/* XPM */
static char *b27f5d3ce78a4d2582aa25eae1148eb00SEgtlCPzNSWm56y[] = {
/* columns rows colors chars-per-pixel */
"32 32 235 2 ",
"   c #020301",
".  c #030B02",
"X  c #020A0A",
"o  c #0A0909",
"O  c #120E07",
"+  c #051606",
"@  c #14140C",
"#  c #151909",
"$  c #1B1B18",
"%  c #140A15",
"&  c #231D0D",
"*  c #221E13",
"=  c #022502",
"-  c #062A07",
";  c #033502",
":  c #122B12",
">  c #22220F",
",  c #2B2B11",
"<  c #272515",
"1  c #362B15",
"2  c #2B3318",
"3  c #353B1C",
"4  c #37351A",
"5  c #12142A",
"6  c #241824",
"7  c #2C2B2C",
"8  c #212525",
"9  c #3B3D21",
"0  c #363B20",
"q  c #373935",
"w  c #2F3033",
"e  c #483A1A",
"r  c #403D21",
"t  c #723C2E",
"y  c #014B01",
"u  c #015801",
"i  c #135D10",
"p  c #3B431D",
"a  c #066407",
"s  c #087216",
"d  c #117313",
"f  c #3D4321",
"g  c #32413B",
"h  c #007724",
"j  c #207B23",
"k  c #44441E",
"l  c #45491D",
"z  c #494C1E",
"x  c #48451E",
"c  c #56471F",
"v  c #51511F",
"b  c #644B1E",
"n  c #78501D",
"m  c #434323",
"M  c #464923",
"N  c #4C4C22",
"B  c #4A4420",
"V  c #5C4624",
"C  c #534E24",
"Z  c #5C4B2B",
"A  c #5E4C24",
"S  c #535423",
"D  c #5B5C26",
"F  c #5A5729",
"G  c #624722",
"H  c #654C23",
"J  c #6A4D25",
"K  c #634D2B",
"L  c #6A4D2B",
"P  c #714A23",
"I  c #6C5524",
"U  c #635B26",
"Y  c #64552C",
"T  c #6C522A",
"R  c #635B2C",
"E  c #685627",
"W  c #725426",
"Q  c #76582B",
"!  c #6A5632",
"~  c #755734",
"^  c #5E6125",
"/  c #64642A",
"(  c #6A652C",
")  c #6B6A2C",
"_  c #646A28",
"`  c #736C2D",
"'  c #7C6A2C",
"]  c #77642D",
"[  c #74732E",
"{  c #7E732F",
"}  c #6C6731",
"|  c #736532",
" . c #7D6A32",
".. c #786734",
"X. c #797634",
"o. c #7A7835",
"O. c #402E40",
"+. c #284644",
"@. c #385A5A",
"#. c #3D4443",
"$. c #434848",
"%. c #4D514E",
"&. c #4C5454",
"*. c #545B5C",
"=. c #605F59",
"-. c #5C615D",
";. c #605863",
":. c #4F666E",
">. c #6A6967",
",. c #677474",
"<. c #747878",
"1. c #BB2525",
"2. c #81581B",
"3. c #835B23",
"4. c #826D2E",
"5. c #8A6127",
"6. c #95762E",
"7. c #836D33",
"8. c #8A6C33",
"9. c #836D39",
"0. c #886837",
"q. c #916F3C",
"w. c #857234",
"e. c #8A7434",
"r. c #837C37",
"t. c #86713A",
"y. c #8B743A",
"u. c #877A37",
"i. c #927639",
"p. c #9C6F2F",
"a. c #837C78",
"s. c #946E45",
"d. c #C64040",
"f. c #008A00",
"g. c #009808",
"h. c #138B15",
"j. c #01A403",
"k. c #04AA0E",
"l. c #00B402",
"z. c #0BA510",
"x. c #23A41C",
"c. c #03932E",
"v. c #02BE25",
"b. c #01B935",
"n. c #31A935",
"m. c #2F8D34",
"M. c #00CD0E",
"N. c #02CA37",
"B. c #04D43B",
"V. c #04CC2D",
"C. c #2AF63E",
"Z. c #3C9743",
"A. c #29A252",
"S. c #7C867F",
"D. c #569A60",
"F. c #0CCE41",
"G. c #0CE846",
"H. c #39F848",
"J. c #3EFF50",
"K. c #3DE161",
"L. c #2ECF4C",
"P. c #41F94E",
"I. c #4AF956",
"U. c #69F576",
"Y. c #8D8439",
"T. c #9C8435",
"R. c #9C823B",
"E. c #958A3B",
"W. c #9D963F",
"Q. c #96802A",
"!. c #A38C3B",
"~. c #A28637",
"^. c #AB933B",
"/. c #AA8F33",
"(. c #A4A93B",
"). c #9A8E42",
"_. c #958B42",
"`. c #9A9545",
"'. c #A39945",
"]. c #A4994A",
"[. c #A7934E",
"{. c #ABA44B",
"}. c #A8AC44",
"|. c #B2AB4A",
" X c #BBB74E",
".X c #B6B252",
"XX c #B3AD52",
"oX c #7B7E86",
"OX c #6D8384",
"+X c #768685",
"@X c #7D898B",
"#X c #7D9D88",
"$X c #5A8FBB",
"%X c #6F8BA5",
"&X c #5BCB84",
"*X c #6DD188",
"=X c #63A7F8",
"-X c #889897",
";X c #8C8691",
":X c #ADA69B",
">X c #99A7A7",
",X c #95B5B2",
"<X c #ABBABB",
"1X c #B4B3B0",
"2X c #CFB1B1",
"3X c #B8FFBB",
"4X c #B0EBB2",
"5X c #8BDFA9",
"6X c #AEC5C6",
"7X c #B4C2C3",
"8X c #B9C7C8",
"9X c #BFD0D0",
"0X c #BFF2CE",
"qX c #A7D5FF",
"wX c #C3D2D2",
"eX c #CCD9D9",
"rX c #D4D8DA",
"tX c #C7C9D2",
"yX c #E0DDDE",
"uX c #D0F3D2",
"iX c #D7D9E4",
"pX c #E1DDE8",
"aX c #D5E2E2",
"sX c #DDE7E7",
"dX c #CEE4E2",
"fX c #E5EAEA",
"gX c #E4E4E4",
"hX c #E6F8E8",
"jX c #F8FCEE",
"kX c #FBEEFB",
"lX c #E9F7F2",
"zX c #F6FAFB",
"xX c #FDFCFD",
"cX c #F4F6F6",
"vX c #E1E7F4",
/* pixels */
"| | 4 ! 0.~ V r Z Z ..0.q.Q E K B Y s.0.q.q.t [.4 R ~.0.L [.0.~ ",
"4 M 4.w.w.7.7.| 2 X.'.].~ t.7.` 3 M .X'.I 7.w.e.Y.[ k 6.XX!.] x ",
"=.e.4.w.W 7.4.y.o.o.].{.I b y.4.F v 3.8.J w.L w.| X./ [ [ S N x ",
"p.6.' w.H 7.8.b [ $ oX7 w.9.4.y.| S ` T.9.E L Q ( 2 E. .K ( F S ",
"C E |.).).'.J ).) , wX[.c L 7.8.' v k [ ^.6.5.D N r.'.'.].T w.C ",
"C 2 (. X XXXY.X.k , :.rX>.e e ( v f / 3 / D l / o.{.{.E ].`.e.7.",
"F 0 0 / ) 3 [ } _ > ,.@XrX*.,.> < B e.E  .' E.} M 5.G T b ].] e.",
"4 M V '  .`.`.f p %.OX+X9XsXxX1X,.4 e.T 7.w.w.| S ` ^.T.^.2.i.] ",
"t.e.G e.7.W.{.E q 8X>X>X7XeXxXxXxX;X1 4.w.I T ` S z S S S N S 3 ",
"R.6.7.7.7.E.[.# 7XjXfXjXzXgXxXxXcXxX>.b t.w.8.Y f 3 3 R  .Y M ) ",
"r.Y.R.' 7.'.$ $XqXxXxX=Xa.xXyXcXxXxXxX=.e J A o.) ` t.w.e.e.' ).",
"4 3 H !.E., >XoX%XaXzX5 * xX<X7XxXcXxX-XE !.m 3 Y H t.I J L y. .",
"( S D ` , -X6X+.7 6XxX:XtXxXfX-XwXxXxXgXq k x ) ~.G u.T T w.H S ",
"J ! A H @ eX,.@.t 1.%.jXxXcXxX8X-XcXcXxXrX7 Y v X.T.w.' e.Q m S ",
"L 0.i., @XwX*.+.1Xd.O cXcXxXxXaXg hXxXxXkXZ.@ } 3 S 2.7.3.c D E.",
"..4.e.& 7X-X+X@.$Xd.. cXxXcXxXrXOXw xXuXK.j.#X1 f ( W.^.w./ Y.W ",
"..y.e ,.9X+X@X*.X 2XtXxXxXxXzX6Xw o zX3XM.*XjXd e E.F D N _ ^.J ",
"K W 1 >X>X@X@X$.$ 7 rXaXiXtXZ.: 2 p ;.3XU.zXzXz.u 1 S S f 3 S R.",
"Z O :.wX@X@X>X<.$ $.8 6 j j D.q `.r.7 lXcXxXU.v.L.;X4 e T E.2 ) ",
"L   oXvX;Xh.% 7 %.>.  f.f.+ ;XeX< Z D *.xXxXI.N.lX4X- O J E.`.v ",
"r   i x.F.v.s y O.6 y d -X- 4XxX8 ..c $.dXkXH.uXrXz.b.N.: T I N ",
"K   s B.B.F.V.j.;   a ,XO.&X5XvX<X$ 8.4 +XeXhXcXV.H.H.F.N.# ! T ",
"!   h G.+ k.c.; l.= # 8X% &XA.rXxX>X> m 4 -XiXL.C.J.H.P.- b.o T ",
"C . u B.b.+ l.y a ; o wX<XX [.xXxX7X@ '.T 1 h.B.P.J.i c.B.+   w.",
"Y R , . g.. f.    p @ wXxXyXcXcXxX<X> Q T ' + g.k.G.P.: f..   ] ",
"K 7.7.4.# . # / N R # wX9XsXhXzXaX$ |.Y 7.e.b # - j.V.B.=   | N ",
"0.7.y.J 7.W b 2 9 7.] + n.5Xv.0XaXo 5.A 7.e.L w.I   y l.+   2 S ",
"t.W 7.7.e.H {.Y.v n ).. j.m.;Xm.: N { T.8.w.J 4.i.k # + . M , D ",
"~ G ].y.T 4.W X.`.}.).@ oXX #.-X+.3 ) E i.7.' 9.i.R z R 4.R M ^ ",
"G '.T 8...e. .0 _ }..Xr.X 8 7 o | U / ) U /.~.T.| S f w.e.y.Y.z ",
"0.P w.' _.p.( ) / [ { T.|.!.5.!...C 2 o.f D / D N F w.J 4.' 7.E.",
"p X.6.T.' ^ S l z x D { U _ / f z N / Y C S C C M z T.w.T 7.8.Y."
};
