/* XPM */
static char *_89f49c9352c4c7c914176ef3f24971duEu2431MQ4jfhRPm[] = {
/* columns rows colors chars-per-pixel */
"64 64 256 2 ",
"   c #010201",
".  c #010B01",
"X  c #0B0908",
"o  c #021301",
"O  c #071906",
"+  c #16160B",
"@  c #181817",
"#  c #150C11",
"$  c #211711",
"%  c #012803",
"&  c #013904",
"*  c #1B2418",
"=  c #0F2D0E",
"-  c #24260F",
";  c #272814",
":  c #332914",
">  c #2D341A",
",  c #2C3317",
"<  c #33351B",
"1  c #343B1B",
"2  c #383719",
"3  c #213B0C",
"4  c #0E1026",
"5  c #2E1C2F",
"6  c #1A2322",
"7  c #0A2121",
"8  c #252826",
"9  c #3A3822",
"0  c #2C3736",
"q  c #353A39",
"w  c #372837",
"e  c #463A19",
"r  c #443D27",
"t  c #712618",
"y  c #014301",
"u  c #004B00",
"i  c #09470A",
"p  c #025902",
"a  c #134C17",
"s  c #3C431D",
"d  c #3A451E",
"f  c #006C00",
"g  c #016302",
"h  c #027602",
"j  c #0A6E16",
"k  c #3D4321",
"l  c #2A4E30",
"z  c #2B6E2F",
"x  c #0F6124",
"c  c #43451E",
"v  c #45491D",
"b  c #494B1E",
"n  c #4C441E",
"m  c #58491E",
"M  c #4F531E",
"N  c #64491E",
"B  c #72511C",
"V  c #444522",
"C  c #4D4423",
"Z  c #454A21",
"A  c #4B4C22",
"S  c #534C25",
"D  c #584926",
"F  c #535424",
"G  c #5B5425",
"H  c #5B5B26",
"J  c #5C5A2A",
"K  c #575727",
"L  c #4A4D2B",
"P  c #644B24",
"I  c #6A4D24",
"U  c #6A4D2A",
"Y  c #644A28",
"T  c #734B2A",
"R  c #6C5324",
"E  c #63542B",
"W  c #6C522A",
"Q  c #625C2B",
"!  c #675828",
"~  c #725425",
"^  c #73562B",
"/  c #735A2B",
"(  c #7A5A28",
")  c #744E31",
"_  c #6B5831",
"`  c #765933",
"'  c #6E4D33",
"]  c #5D6125",
"[  c #5E6029",
"{  c #64632B",
"}  c #6B642C",
"|  c #6C6B2D",
" . c #646528",
".. c #73652C",
"X. c #7C632C",
"o. c #726B2D",
"O. c #7D6A2D",
"+. c #796326",
"@. c #7A752D",
"#. c #6B6731",
"$. c #746532",
"%. c #7D6B33",
"&. c #786833",
"*. c #7A7634",
"=. c #6F712E",
"-. c #3B3843",
";. c #001A53",
":. c #553D58",
">. c #394948",
",. c #3C7444",
"<. c #45494A",
"1. c #57585A",
"2. c #4C5253",
"3. c #4F6F54",
"4. c #595162",
"5. c #596B67",
"6. c #686A6A",
"7. c #697A77",
"8. c #777477",
"9. c #655460",
"0. c #980606",
"q. c #835D26",
"w. c #826D2E",
"e. c #876729",
"r. c #88752D",
"t. c #93762D",
"y. c #836D33",
"u. c #886A38",
"i. c #916E3B",
"p. c #857234",
"a. c #8A7434",
"s. c #847D35",
"d. c #8D7B33",
"f. c #85723A",
"g. c #8B743A",
"h. c #877C3A",
"j. c #937A37",
"k. c #946A2C",
"l. c #81581B",
"z. c #927541",
"x. c #976767",
"c. c #DF6767",
"v. c #008A02",
"b. c #019604",
"n. c #129617",
"m. c #01AB02",
"M. c #03A404",
"N. c #03B703",
"B. c #01B818",
"V. c #10AD1A",
"C. c #098C23",
"Z. c #279829",
"A. c #0BB02C",
"S. c #27A126",
"D. c #06C916",
"F. c #02C728",
"G. c #03CB36",
"H. c #04D638",
"J. c #13D831",
"K. c #2BC73B",
"L. c #11E82F",
"P. c #2BF63E",
"I. c #37B84D",
"U. c #4CB153",
"Y. c #52B96F",
"T. c #639969",
"R. c #11D545",
"E. c #11F145",
"W. c #3BFB49",
"Q. c #36F647",
"!. c #2AF049",
"~. c #2CCB4C",
"^. c #44FE50",
"/. c #4AD471",
"(. c #51EE6D",
"). c #69EB7F",
"_. c #7E8031",
"`. c #8A8439",
"'. c #988638",
"]. c #9B963C",
"[. c #8F8630",
"{. c #A48937",
"}. c #A99339",
"|. c #A98F33",
" X c #A2A53D",
".X c #9BA33E",
"XX c #9B8E43",
"oX c #948942",
"OX c #9D9343",
"+X c #989445",
"@X c #8F9541",
"#X c #A68944",
"$X c #A19545",
"%X c #A49A45",
"&X c #A59B4A",
"*X c #A6994A",
"=X c #A99E51",
"-X c #ABA34C",
";X c #A9A745",
":X c #B2AB49",
">X c #BAB64C",
",X c #B3B050",
"<X c #9EA241",
"1X c #C6C357",
"2X c #1C519E",
"3X c #5E6E8D",
"4X c #0A6AD4",
"5X c #887988",
"6X c #798888",
"7X c #6E8783",
"8X c #6EBA88",
"9X c #66D688",
"0X c #5EA7EA",
"qX c #3D8FDE",
"wX c #879696",
"eX c #8F9091",
"rX c #8AB193",
"tX c #959BA2",
"yX c #97A6A6",
"uX c #97ACA9",
"iX c #A9B8B9",
"pX c #B6B5B7",
"aX c #A7A9AD",
"sX c #A19590",
"dX c #8BC996",
"fX c #89E791",
"gX c #90D5A7",
"hX c #ADCCB2",
"jX c #92EDAD",
"kX c #AEF6B6",
"lX c #B7BDC8",
"zX c #C4BDC3",
"xX c #B7C7C7",
"cX c #BBD2CF",
"vX c #B4F4C8",
"bX c #A9E0FF",
"nX c #C4C8C9",
"mX c #C7D5D6",
"MX c #D9D9DA",
"NX c #D2D0CE",
"BX c #E3D3D8",
"VX c #C9F1D2",
"CX c #D8DAE6",
"ZX c #CCD6E0",
"AX c #DAE5E5",
"SX c #D4E7EE",
"DX c #E6EAEA",
"FX c #E9EAF3",
"GX c #F5EBF6",
"HX c #EAF5F5",
"JX c #F4F4F5",
"KX c #FDFDFD",
"LX c #F7F9F8",
"PX c #EFF2EB",
"IX c #E2DEF0",
"UX c #CCC5BC",
/* pixels */
"$.} $.} r C E _ u.z.q.' r C r C G D S _ $.u.u.u.k.i.` ! R ! E D V S ! u.z.z.u.u.i.i.i.u.N ) *Xz.9 , _ #X{.i.u.u.T T #X*Xu.u.` Y ",
"{ { *.*.2 S #.$.&.u.^ P P C k k L A K } w.w.w.y.u.p.X.} } } J S c b Q d.j.g.y.` p.a.f.%.N T OX'.s , H *.d.d.[.d.( ( -X*Xe.} J A ",
"< 1 V _ y.O.p.p.p.f.y.w.O.O.#.K , , *.&X$X$X$XXX` ' f.p.y.w.} H 1 < A j.,X*X}.].R N y.a.i.f.a.p.`.h.=.{ c e.k.t.:X,X{.j...K C C ",
"r V D ` d.a.g.g.y.X.p.p.a.p.f.#.d 9 h.-X-X=X=X*XU Y %.p.g.a.w.} 9 1 A j.:XXX$XXXP N O.f.f.f.y.a.OX`.*.K s H ..| ;X;X@.Q G Z c C ",
"` %.w.r.w.w.y.y.R I y.a.w.w.g.f.*.=._.OX-X-X-XOXW N N R g.a.e.O.H b m e X $ / p.P P p.y.W ^ a.p...J *.o.{ | *.=.=.=.F b C Z b n ",
"z.XXd.w.w.w.p.y.R R f.g.w.p.g.f.*.=.`.;XOX+XOX].R P P E a.a.p.y.} M v -   + O.u.W W y.O.U W w.u.} K { =.o.=.o.| o.} F Z A F m S ",
"z.{.t.w.O.y.p.%.P P y.f.u.w.B I *.| ].:X( P P R p.a.f.z.O.y.d.a...F 2 +   : r.y.%.f.R I E U ^ ( } F , k XXoX%.$.Y D } { H J F S ",
"` s.t.d.a.y.p.p.W U p.g.y.w.I D | =..X X( P P R a.h.f.f.%.y.g.a.&.2 @ # . : w.d.j.j.q.~ ` ^ E F H F 1 A &X%Xg.a.` ` %.$.} } H D ",
"F H R t.,XOXOX+X].oXOXXXU / oXoX| =..X;X( U y.y.p.p.W W y.a.u.X.n V 8.1.# * | '.|.|.t.e.q.( Q M L K h.OX%X%X%X%X&X*XW Y a.y.D V ",
"n b d ..,X,X;X;X:X;X:XXXP G oX*.[ | <X:Xq.R *.a.p.y.W W p.e.O.C X 6.AXpX* + K [.[.[./ ! G F F v L { OX-X;XOX&X%X-X&X^ U h.a.U D ",
"S v , v  X>X>X>X>X>X,X&XoX_.*.{ k M .X>X-Xh.P P O.%.u.u.p.X.C 9 8.nXMXeX@ , 2 Z { { H M s M [ [ *.OX;X-X-X+XR ! -X=X$XoXa.p.e.&.",
"S v , 1 _. X;X;X;X+X].`.`.=.#.[ v b `.;X>X;X( / p.p.%.$.e.m ; 1.MXPXyX>.# : 2 e Q { H F M K { #.s.%X%XoXoXoXP D oXXX-X$Xw.y.u.z.",
"J L < > k Z { { | { 1 k =.[ #.#. . .| *.;X>X,X+X$XoXn 2 e : q 6XNXmX6X-.O + - e %.%.X.%.].s.&.{ v q.e.N Y U E U m m &X-XX.e.u.z.",
"L V 1 9 9 Z J { Q Q Z F _.*.| | |  .K K _.;X,X:X:X*.+     8 7.wX6X6X6X2.X     : &.f.p.j.OX`.*.#.v P +.( ( ( ( e.( ( %X}.w.w.y.` ",
"2 , A H m P O.O.%.%.XX$X$X`.l d H H d > , d .X,X@.s <.6.5.7.uXuX6X6X7X>.  7 1.q 2 R a.a.y.p.$.Q K F o.'.|.{.[.|.}.}.q.~ i.j.X.Y ",
"V d { } N ( e.r.u.f.*X-X-X$XG Z { | k > ; 1 *.=.2 <.aXZXmXnXmXuX6X6X6X>.@ 1.xX6X8 2 X.O.y.u.&.{ A v H r.[.[.r.@.d.h.m m ..&.K C ",
"a.d.d.&.Y I g.g.y.y.].*X=X*XO.O.p.%.S 9 9 > - * 6.pXDXKXKXHXmXtX7X6XyX6X6.aXJXhX1.* : e U ^ o.[ F Z M M F F K F F F A A K A 1 < ",
"{.}.'.e.Y T a.d.%.y.].$X=X*Xa.r.a.p.G k 1 * + 2.nXKXKXKXKXHXmXiXwXyXxXcXmXDXKXAXwXq   : P ~ o.H M M v v c b b F S S S K F M > < ",
"{.|.t.O.y.y.y.e.y.p.].$X=X*Xu.y.p.w...F ; + >.yXDXKXKXKXKXKXLXDXNXMXDXDXHXKXKXLXhX2.  e X.y.Y L 9 > 1 d 1 s Q $.%.&.Y D c V #.Q ",
"g.d.d.d.g.f.X.%.y.y.#X$XXXoXy.w.r.p.&.e ; q yXDXKXKXKXLXKXPXDXFXHXJXKXKXKXKXKXKXcX6.@ 2 W $.G L k k k A S S &.a.j.j.( / P F oXf.",
"s.s.`.{.'.y.w.w.y.y.*XOXP I y.p.a.y.G $ <.yXmXKXKXLXKXKXKXUX8.3X0XbXSXKXKXKXKXbX0XqX3Xr - C *.=.=.s.o.*.f.f.p.p.d.r.a.p.w.p.XXz.",
"} H  .d.j.a.t.d.d.j.%X}.~ / O.O.! m ; >.yXDXLXKXKXJXLXKXKXsX# 4 2X0XSXKXJXLXKX0X4XqXZXoX8 ; K { @.`.%.p.g.f.w.w.O.w.w.y.y.d.XXoX",
"9 , < s G k.{.{.{.'.j.a.g.a.%.H < ; 2.yXAXKXKXKXKXJXLXKXKXsXX   4 3XSXKXMXAXPX3X;.2XSXiX5.@ + < D U P ~ g.%.W R W P U ^ g.g.X._ ",
"r < < 1 b e.'.`.[.[.O.......Q n + 8 wXHXKXKXJXJXLXLXLXKXKXpX<.@ X 6.AXLXmXcXuX2.- 4.iXcXwXq   e ( ) I R f.u.R R U P W ` y.%.} E ",
"{ K F F H | | o. . .K S F F A V + # yXKXKXJXAXAXJXKXJXKXKXMXpXsXsXnXLXKXPX6X0 >.sXaXaXyX3Xq . m j.w.N R h.f.W U W W f.u.P G G S ",
"%.} | { { { { { Q H F Z Z A V 2 * <.nXKXKXDXxXxXDXKXKXJXLXLXJXJXGXPXNXBXBXx.* 8.PXMXT.6XeX2.@ e +.p.B R d.p._ W W W j.a.n s M D ",
"P P W _ D N N R %.%.} H F A ; ; 1.yXAXKXKXAXtXuXMXKXKXJXLXKXKXKXKXxX5.9.x.c.sXMXKXiXx 3.uXtX2.8 ; o.'.y.f.y.O.O.f.f./ ~ V 2 F ` ",
"U T ` ` ~ ~ P I g.g.$.{ &.Q + 6 wXFXKXKXKXZX6XwXMXKXKXJXLXJXKXKXKXwX7   0.c.LXKXDXT.y ,.hXZXwX>.X c d.d.y.X.O.p.g.j.W C c Z Q z.",
"U R f.f.d.y.I I f.g.P W =Xh.- @ eXJXKXLXAXxX6XyXAXKXKXLXLXLXLXKXKXwX@ # 0.c.BXLXAXT.& ,.xXFXhX2.X + M e.l.N p.p.( k.P 1 H [.[.g.",
"W ~ p.a.d.y.I W y.a.U ( oX$.8 q 7XcXJXLXmXyXT.6XMXKXKXKXKXJXKXKXKXwX* X t c.GXJXuX,.a T.xXSXxX1.# * d +.e.+.j.g.( +.M d | '.{.u.",
"&.f.w.w.a.f.f.f.a.y.I / ; 9 8.uX/./.VXKXxX3X>.5.iXHXKXKXLXJXLXKXKXeX+   X x.GXUX,.l 3.wXxXSXxX>.. * | *.].:X}.|.w.H ] r.[.a.~ T ",
"&.i.e.w.y.f.i.f.p.y.I /   8 5XgXR.H.vXGXtX>.6 >.wXSXPXLXKXKXKXKXKXpX1.w >.eXJXdXp a 6XaXcXSXnX8.0 ; F F s. X{.d.{ b { {.}.%.P ) ",
"&.a.g.g.w.p.y.y.w.O.W `   + z K.F.E.VXBX9.X   6 7.hXcXAXLXKXKXLXKXDXnXpXxXCXAXT.u a 6XaXcXAXFXmXeXl ; $ H H H H A V  .|.}.y.Y T ",
"` f.g.g.e.e.p.a.p.p.E _   o g M.A.9XHXnX-.  X $ 2.3XuXcXFXLXJXGXGXLXKXKXKXDXuX,.& l 7XyXxXFXKXKXMX5.X   S c c b Z A ] @.[.d.( ) ",
"D ` ~ ~ p.p.O.w.-X-X+X`.  o f V.Y.DXKXpXw   w q 6 q 6XxXCXFXCXCXCXAXIXLXFXgXz =   8 3XtXxXAXKXKXDX6.X   F c A K k k 1 d G t.j.z.",
"D ^ U ~ y.y.w.p.+X'.*.#.  = z U.9XmXKXNX6.8 <.8   X 0 7.rXrXdXrXrXrXrXuXtX3.= . @ 2.wXiXCXGXKXKXDX6.X   F A K Q S V V 1 1 / j.z.",
"D W P U %.y.i.g.{ M > ,   8 6XgX/./.VXKXzX3Xq X       = z Z.Z.S.Z.S.Z.Z.z =   @ 4.wXiXMXLXKXKXKXPX6.X   b F V D W W `.@., 1 | '.",
"' ` ~ ( '.`.f.} F v 1 1   8 8.dXG.G.jXKXLXaX8   6 q 0 + % p v.m.b.M.b.v.u o   -.yXcXcXVXVXkXVXHXGX8.X   F J Y R ^ / OX`.9 1 H p.",
"^ t.|.}.1X,XA > A K k S   O z S.F.R.gXGXGXtX@ # 7.xXaX5.4 O v.N.D.G.G.B.v.&   <.iXZXnXfX^.L./.vXKX5XX   Q %.p.y.^ ^ XX%XOX*.M H ",
"Y +.r.].,X;Xd > K #.W `   o f M.K./.8XuXdXT.X 6 yXLXHXpX9.8 i b.G.R.G.D.m.y   <.lXFXNXjX(.J.J.9XhX1.X   %.a.a.y.W R ].%X=X`.F n ",
"9 d H H d d Z S ..w.p.w.  o p V.dXhXU.V.S.j   8 pXKXKXGXMX5X5 & G.H.B.M.m.u   r lXHXHXHXVX(.G.D.S.a     r.p.h.p.y.w.^ ~ W W A r ",
"2 1 v s - 3 L e.d.r.d.w.  + z Y.dXrXS.v.h p -.x.MXKXKXKXKXnXl % j b.M.v.g a q 3XnXLXKXKXLXjXF.m.v.&     d.p.p.a.p.y.I P U R Y D ",
"G F 9 < ; 1 &.'.t.w.f.%.  8 eXhXU.S.M.h O 8 uXCXGXKXPXJXKXvX~.g + i v.f O -.yXMXHXKXLXLXJXgXJ.N.v.&     OXoXP U p.a.p.O.' _ E ' ",
"_ { d > > k h.}.t.O.y.u.  6 T.dXS.b.m.g   w MXKXKXMXaXaXhX).J.Z.<.l p & X :.mXKXKXPXkXkXjXgX).K.b.&     =XOX/ / %.y.a.y.` ` W ) ",
"_ H 1 1 V F @.}.{.w.%.y.  % j V.m.M.m.g X w zXKXKXpXw * Z.N.N.I.hX5X8   X 4.nXKXLXkX^.L.~.kXPXfXn.y X   =X&X&X$XU I w.p.r.w.! ) ",
"! G s 2 A F | t.j.d.d.g.: - i h v.M.m.f o w zXKXKXnX4.O % g Z.T.tX4.#   % l T.BXKXkXL.D.F./.kXT.j 3 : 2 +X&X&XOX^ I y.p.O.O.^ ) ",
"D F F F F F H ] %.{.}.{.I e + % h m.N.f . w zXLXKXDXxX5.X * 5.7.0 @ X % v.b.n.dXPXvXQ.L.F.A.S.a % e N P *X=X%X$Xg.p.a.w.U W p.i.",
"D S Q }  .[ F F ..'.{.d.T I - . h m.N.g o w zXLXKXLXHXiX4.<.4.-.    & C.D.D.N.I.jXkXkX^.F.N.n.&   e ( +.&X$X$X].a.y.w.w.W ^ %.y.",
"E K _ y.w.X...} ..| Q [ O.r.: O h m.N.f o w zXKXKXDXmXxXxX3Xw     i A.E.P.W.Q.J.~.jXHXjXK.N.b.y . < P a.'.y.y.p.R U Y T d.g.O.E ",
"$.{ %.g.a.a.r.e.$.J S F | r.R , u h m.h O w NXKXKXDXnXcXSXwX$ . i j G.E.^.^.^.L.H./.jXvXfXU.p 3 - 2 d ( '.a.a.w.^ ~ U ^ a.y.J C ",
"Y P y.g.g.u.g.a.%.....Q m M  .v + % v.h O w nXKXKXDXmXcXZX5X@ % A.R.H.R.Q.^.W.W.P.H.R.kXHXeX+ 2 2 , , s `.oXk.k.{.{.j.j.f.{ A C ",
") ^ y.p.f.y.w.O.a.p.p.q.m s v c , - y u o @ 6.pXGXKXGXFXHX5X# o A.R.J.!.Q.Q.W.^.W.L.F.Y.sX:.. e R b s 1 H d.e.O.[.'.[.y.J Z c S ",
"g.a.y.w.g.y.U I p.g.~ R P n > , 1 r - X . X + 2.pXLXHXPXAX8.4 % A.E.Q.W.W.Q.W.^.W.P.H.j * # # e y.%. .b , c ] ]  .] [ F , < F / ",
"f.a.w.%.f.y.R R p.f.R R +./ V 1 v q.m e 2 : + 7 Y.jXfXrXT.>.x C.R.!.^.W.W.W.W.!.!.H.B.u   + e ! g.d. .v , , c b Z A A s ; > H i.",
"u.f.R ~ y.%.p.w.a.a.Y / -X-X*.| b B B ~ }.%.$ & A.H.N.p X 7 A.E.!.W.W.W.Q.W.Q.!.H.A.M.u o : O.w.d.g.C , - < b K F F F C ; , { j.",
"u.f.R ~ f.p.p.a.p.p.P / -XOX*.=.H t.q...$Xh.+ l Y./.h %   = A.E.E.~.z Z.W.W.!.H.F.v.p = : m w.p.d.g.C < , 1 J } }  .{ C , < { '.",
"` W P / *X$Xg.y.W U w.O.~ / *.=..X>X,X@X+X*.# q yXtX6     i A.E.E.j O a Q.Q.J.B.b.u O 2 R O.f.f.g.j.Q b v F Q &.+.+.} K V c ] '.",
"' ' Y / &X%Xg.f.U Y p.w.P Y *.| @X>X;X<X=X`.e 9 9.4.@ o & v.B.B.x & & h D.J.F.b.u + e +.a.d.g.g.u.y.Q F K { &.y.k.r.&.{ H A ] j.",
"Y N %XOXW ^ y.y.X.X.f.f.&.[ 1 1 =._.;X>X,X*XXX..+     % h N.M.p . % h m.b.b.b.u + e {.{.'.{.j.j.&.H F M s Y u.a.g.g.g.h.`.#.n k.",
"P B $XXXU ~ y.f.p.a.d.f.=.K k 1 K  .[.;X-X$X%X*.-     o u g u O   o u p u y u = - m '.[.[.'.t.w.G b A H D ^ p.y.g.f.g.j.XX*.E e.",
"e.e.T P a.a.$.e.'.#Xk.e.} F #.| { | =.`.w.'.'...+       . . . .     . o   . . - > 1 ]  .{ { H H A Z J %.g.y.I I w.w.y.y.y.y.'.'.",
"` O./ / j.t.e.a.j.{.t.+.[ A [ { |  .H H } [.|.'.:X X'.t.e.e.d.%.J C v A d A oXh.k , v Z A Z n n Z Z Q f.j.u.R R w.O.O.X.p.j.'.#.",
"d v p.'.t.t.{.[.%.{  .Q F b v Z b b V C ] @.O.o.G G | | { ] k V b b L K { o.G D G L K K A F S Z v Z V ( j.f.w.w.R R u.f.f.g.`.#.",
"9 9 f.*X|.j.{.j./ C e S S S S C C C C D E ! Q ! r V D D C C 9 9 e D D _ %.u.) ' ) ) ` _ ! E E D C D C e.{.i.u.u.) ) u.z.u.z.z.$."
};
