/* XPM */
static char *_9408dbd884c4b5ccdc57327c621abf869PBcPxV8r91V5NC[] = {
/* columns rows colors chars-per-pixel */
"32 32 226 2 ",
"   c #010201",
".  c #010B01",
"X  c #0A0A09",
"o  c #150602",
"O  c #071705",
"+  c #12120C",
"@  c #191A0A",
"#  c #181618",
"$  c #1A0C1A",
"%  c #231418",
"&  c #0A2B0B",
"*  c #28250F",
"=  c #242311",
"-  c #2A2A14",
";  c #2C3416",
":  c #2E351A",
">  c #263019",
",  c #33351B",
"<  c #343B1B",
"1  c #373518",
"2  c #00002F",
"3  c #1F2622",
"4  c #0A2222",
"5  c #272B2B",
"6  c #383A20",
"7  c #343737",
"8  c #322E34",
"9  c #4A3C17",
"0  c #403D21",
"q  c #6C3F23",
"w  c #005E00",
"e  c #004900",
"r  c #3B451D",
"t  c #017600",
"y  c #127714",
"u  c #3D4421",
"i  c #235B27",
"p  c #216C23",
"a  c #337935",
"s  c #45451E",
"d  c #4B421D",
"f  c #45491D",
"g  c #4A4C1E",
"h  c #56481F",
"j  c #654A1E",
"k  c #774F1C",
"l  c #434423",
"z  c #4C4D22",
"x  c #494822",
"c  c #534D25",
"v  c #5C4B2B",
"b  c #5C4A23",
"n  c #535423",
"m  c #5D5525",
"M  c #5B5B26",
"N  c #595729",
"B  c #644B24",
"V  c #6A4C24",
"C  c #624C2A",
"Z  c #6A4D2A",
"A  c #634624",
"S  c #714A23",
"D  c #6C5523",
"F  c #63542C",
"G  c #6C522A",
"H  c #655829",
"J  c #725426",
"K  c #755B2B",
"L  c #785828",
"P  c #6A5632",
"I  c #725332",
"U  c #785B36",
"Y  c #5D6125",
"T  c #5E6028",
"R  c #636426",
"E  c #64632A",
"W  c #6A652D",
"Q  c #696A29",
"!  c #72642D",
"~  c #726C2D",
"^  c #7D6B2C",
"/  c #7C642D",
"(  c #78732E",
")  c #6B6730",
"_  c #736532",
"`  c #7C6433",
"'  c #7D6B32",
"]  c #766B34",
"[  c #7B7534",
"{  c #797734",
"}  c #001A53",
"|  c #3C7742",
" . c #335454",
".. c #444D4B",
"X. c #4E5858",
"o. c #556B5D",
"O. c #575C63",
"+. c #685966",
"@. c #5B6767",
"#. c #5A7665",
"$. c #676A69",
"%. c #6B7979",
"&. c #786C76",
"*. c #9C0C0C",
"=. c #81581B",
"-. c #825A24",
";. c #826D2E",
":. c #896028",
">. c #9A6F2E",
",. c #88732F",
"<. c #95772D",
"1. c #836D33",
"2. c #8A6B33",
"3. c #876938",
"4. c #916F3C",
"5. c #857233",
"6. c #8A7434",
"7. c #85713A",
"8. c #8A743A",
"9. c #877B37",
"0. c #947837",
"q. c #807370",
"w. c #A4614C",
"e. c #018D00",
"r. c #018001",
"t. c #009B01",
"y. c #009704",
"u. c #139C13",
"i. c #1B8F1A",
"p. c #02AB02",
"a. c #04A706",
"s. c #00B800",
"d. c #02B414",
"f. c #249C25",
"g. c #01A22D",
"h. c #03B330",
"j. c #0AB126",
"k. c #2BA02A",
"l. c #01C819",
"z. c #00C82B",
"x. c #04CA34",
"c. c #06D53C",
"v. c #25CE3C",
"b. c #2BF63E",
"n. c #31BD55",
"m. c #51B059",
"M. c #45BF71",
"N. c #6BBD73",
"B. c #1FCA45",
"V. c #25CF4E",
"C. c #3AFB49",
"Z. c #32F546",
"A. c #35E742",
"S. c #49F759",
"D. c #42D26A",
"F. c #53F961",
"G. c #8D8439",
"H. c #9D8435",
"J. c #9C823A",
"K. c #95893A",
"L. c #9A9A3D",
"P. c #96802A",
"I. c #A38837",
"U. c #AB933A",
"Y. c #AA8F33",
"T. c #A4A93B",
"R. c #9A8E42",
"E. c #958B42",
"W. c #9A9344",
"Q. c #A68D4C",
"!. c #A39945",
"~. c #A59C4C",
"^. c #A59949",
"/. c #AA9F52",
"(. c #9FA241",
"). c #ABA44B",
"_. c #A9A645",
"`. c #B2AB4A",
"'. c #BDB94F",
"]. c #B4AE52",
"[. c #B6B252",
"{. c #ACA949",
"}. c #CBC75F",
"|. c #7C8B8D",
" X c #768584",
".X c #6E8182",
"XX c #59B5FF",
"oX c #65B2FF",
"OX c #849292",
"+X c #919191",
"@X c #A08F8F",
"#X c #959EA3",
"$X c #96A8A6",
"%X c #97A4A9",
"&X c #A2A4A5",
"*X c #AABBBB",
"=X c #A8B3B8",
"-X c #B5B3B7",
";X c #84C992",
":X c #B4C5B9",
">X c #8CD0AD",
",X c #BABECC",
"<X c #C2BEC2",
"1X c #B8C7C7",
"2X c #C5C7CA",
"3X c #C7D5D5",
"4X c #D8DEDE",
"5X c #DCD9CD",
"6X c #C7F9D5",
"7X c #CCECD3",
"8X c #D8DBE5",
"9X c #E2DEF0",
"0X c #DCE4E4",
"qX c #D7E3E6",
"wX c #CDE0E1",
"eX c #E6EAEA",
"rX c #E7F4EE",
"tX c #ECE9F5",
"yX c #EDF3F3",
"uX c #EAFBF8",
"iX c #F3F3F4",
"pX c #F4FBF4",
"aX c #FAF4FA",
"sX c #FDFDFD",
"dX c #F8FBF9",
"fX c #FCEAEA",
/* pixels */
"_ _ 1 P 3.I b 0 v c ` 3.4.K H C x H 4.3.4.4.q Q.1 P I.3.Z Q.4.U ",
", x ' 5.7.1.1._ : { ^.^.I 7.1.! < z ].^.D 1.7.6.G.{ s >.].I.W g ",
"U 6.;.5.D 1.;.8.{ { ).{.D j 8.;.m g   U Z 5.Z 5.W [ E ( ~ n z d ",
"8.0.' 5.A 1.2.S { L.L j 5.7.;.8._ 1   ,.' D Z K ) ; K.] m W m n ",
"n D ].R.R.!.Z E.) (.L 1.5.G 5.2.d $.+ W U.>.:.R x 9.!.^.~.G 5.v ",
"z : T.'.'.[.G.{ r L._.B ^ 1.2.d &.0X# 6 R N r E { ).).D ~.W.6.' ",
"v < < E ) < ( ) R ) _.].W.x 9 7 3XOXX = ] _ K.] f :.b Z h ^./ 6.",
", z h ^ ' W.W.u M r ; (.5...@.$XN.&.  O.9 2.5.) N ~ U.Y.U.-.0.! ",
"5.9.A 8.1.K.).;.1.c < = $.eXsX3X.X#X$.yXX.* V ~ n g N n n z N < ",
"J.<.' 2.1.L./.6.6.K > ..eXsXsXdX5XeXuXsX:X  ` G < < < T ' m s E ",
"9.G.J.^ 5.!.B 2.6.m ..3XsXdXsX&.oXuXsXsXoX%.* { ~ ] 7.5.6.6.;.R.",
"< < B I.I.0.6.' , ..eXsXsXpXsXo 2 wX4XrX} wX@.@ m B 7.D V Z 6.' ",
"W n M ~ Q N c z + &XsX0XyXdXsX-X#XsXyX5 +X%X XX 0.j 9.G G 5.B M ",
"A P B b ' E c 1 X.eXsX%X4XsXaXsXsX$.w.@XpXp $XX.- H.7./ 7.K x z ",
"Z 1.6.V 8.A ~.= +XsXeX|.4XsXaXsXsX4 *.fX4X& 1X*XX n =.7.-.m M G.",
"3.;.8.7.5.V - &.M.6X2X .*XsXdXdXsX$ o fXa #.1X*XX E L.U.5.T P.J ",
"` 8.2.1.;.Z   a l.6X+.  %.3XdXsXsX2X2XqXe |.1XyXOX= N M z Y U.B ",
"v J 5.^ ^.R.  w N.sX5 8 # |.8X9X8X9XtX|   %.1XsXeXX n z u r m J.",
"v C ^ 0.E <    XD.6X<X7     p f.f.f.i . O.*XaXsXeXX g l G G.> Q ",
"I I.}.z z l   p z.>XeX# %.=X$ r.d.x.e.  -X1XS.D.aXX H 5.J L.W.n ",
"0 Y r s ! 6.  w ;Xm.k.. -XsX8X% B.d.p.  ,XrX6Xz.f.  6.6.1.G J z ",
"v < > ~ <.6.  |.m.a.O &XaXiXaXn.O e.O #XyXyXpXx.e.  ^.B 5.2.P F ",
"P < s ( I.`   y a.p.O :XsX8 i.a.:X5 X ,XpXF.V.pXu.. ~.~.Z 1.,.G ",
"b n n N ' U.A @ t s.O <XsX1XX #.5 X t u.iXb.z.k.O j ~.!.6.6.V 5.",
"H ) ^ ! ! E ^ 1 t s.. 2XsX3X1X5   g.A.b.V.pXv.t.O m H.[ G V 6.^ ",
"C 1.8.6.' W h R @ e.O 2XsX2X4X# g.c.C.C.b.B.rXO < ; 9.>.I.0.[ x ",
"4.2.7.A 5.K j < 6 = X + :XpXqX$ h.Z.C.C.C.x.3 o 2.R ; Y Y T , n ",
"3.D 1.5.6.B ).{ g k L.= g.d.. g.Z.C.C.C.x.a.O ^ 6.z > c n n - H ",
"I A ^.8.G ;.J [ (._.W.@ $X3   h.c.O A.c.y.O D 7.8.W z H ^ W x Y ",
"A !.G 6.` 6.] 6 Q _.[.R.@ . t p.. r.y.t.O I.I.H._ z u 5.8.7.G.z ",
"3.S 5./ J.>.W ) E ( ;.I.@   . .   . . . : M E M z H 5.V ;.;.^ K.",
"r [ P.H.~ R n f g s Y ( m ) R u h z E F c N n z x f J.1.D 1.7.G."
};
