/* XPM */
static char *char_up_32[] = {
/* columns rows colors chars-per-pixel */
"32 32 229 2 ",
"   c #020101",
".  c #0B0D0B",
"X  c #080705",
"o  c #001000",
"O  c #161409",
"+  c #171816",
"@  c #091415",
"#  c #241B0E",
"$  c #062A09",
"%  c #023A04",
"&  c #1A270B",
"*  c #262818",
"=  c #2C3419",
"-  c #33341B",
";  c #343A1B",
":  c #383919",
">  c #332512",
",  c #10312A",
"<  c #282928",
"1  c #383B20",
"2  c #37383A",
"3  c #483D1B",
"4  c #523B15",
"5  c #403D21",
"6  c #6C3F23",
"7  c #014200",
"8  c #024D01",
"9  c #084604",
"0  c #005300",
"q  c #055904",
"w  c #004213",
"e  c #005317",
"r  c #144F16",
"t  c #3B451D",
"y  c #016801",
"u  c #007100",
"i  c #166918",
"p  c #147116",
"a  c #1C473B",
"s  c #3D4421",
"d  c #1C7725",
"f  c #1D6F20",
"g  c #27772A",
"h  c #317D34",
"j  c #45451E",
"k  c #45491C",
"l  c #494C1E",
"z  c #48451E",
"x  c #57491E",
"c  c #644B1E",
"v  c #61501F",
"b  c #78501D",
"n  c #434423",
"m  c #4B4421",
"M  c #4C4C22",
"N  c #474A24",
"B  c #534C24",
"V  c #5C4B24",
"C  c #5C4B2B",
"Z  c #5A4524",
"A  c #535423",
"S  c #5B5C25",
"D  c #5A532B",
"F  c #595826",
"G  c #644B24",
"H  c #6A4C24",
"J  c #644D2A",
"K  c #6A4D2A",
"L  c #634623",
"P  c #714A23",
"I  c #6C5423",
"U  c #63542C",
"Y  c #6C522A",
"T  c #64592A",
"R  c #725426",
"E  c #785729",
"W  c #6A5632",
"Q  c #725332",
"!  c #775B36",
"~  c #5E6125",
"^  c #5E6028",
"/  c #64632A",
"(  c #6A652C",
")  c #6B6B2B",
"_  c #666728",
"`  c #73642C",
"'  c #7B652D",
"]  c #726C2D",
"[  c #7C6B2C",
"{  c #73742E",
"}  c #7E732D",
"|  c #6B6730",
" . c #736532",
".. c #7A6434",
"X. c #7D6B32",
"o. c #766B34",
"O. c #7A7434",
"+. c #797634",
"@. c #364849",
"#. c #345153",
"$. c #305246",
"%. c #3D6247",
"&. c #46494C",
"*. c #535458",
"=. c #53574F",
"-. c #4D7958",
";. c #407D45",
":. c #4A4762",
">. c #625A63",
",. c #5D6769",
"<. c #67777D",
"1. c #81581B",
"2. c #835B23",
"3. c #826D2E",
"4. c #886229",
"5. c #9A6F2E",
"6. c #95772D",
"7. c #836D33",
"8. c #886937",
"9. c #916F3C",
"0. c #857233",
"q. c #8A7435",
"w. c #85713A",
"e. c #8A743A",
"r. c #867B38",
"t. c #937837",
"y. c #87752E",
"u. c #946E45",
"i. c #008A02",
"p. c #009C00",
"a. c #009400",
"s. c #169C15",
"d. c #00A600",
"f. c #00AB00",
"g. c #09B117",
"h. c #248127",
"j. c #3B8B3F",
"k. c #02C507",
"l. c #00C71E",
"z. c #00D21F",
"x. c #02C93B",
"c. c #02D533",
"v. c #05CD29",
"b. c #439C47",
"n. c #6B8F77",
"m. c #67B471",
"M. c #1FEB44",
"N. c #12F042",
"B. c #35E944",
"V. c #3CFC4C",
"C. c #2DF254",
"Z. c #3DD560",
"A. c #3FE36C",
"S. c #43C953",
"D. c #43FF56",
"F. c #5DD878",
"G. c #55D46F",
"H. c #7BCA7B",
"J. c #8D8439",
"K. c #9D8436",
"L. c #9C823B",
"P. c #95893A",
"I. c #9A9A3D",
"U. c #96802A",
"Y. c #A38A39",
"T. c #AB933A",
"R. c #B2923B",
"E. c #A0892C",
"W. c #A4A93B",
"Q. c #9A8E42",
"!. c #948B42",
"~. c #999445",
"^. c #A68D4C",
"/. c #A39945",
"(. c #A69C4A",
"). c #A59948",
"_. c #AA9F52",
"`. c #ABA44C",
"'. c #A9A645",
"]. c #B2AB4A",
"[. c #BBB74E",
"{. c #B6B252",
"}. c #AEAA4C",
"|. c #CBC75F",
" X c #7C8C8C",
".X c #7D918F",
"XX c #71C096",
"oX c #808F8F",
"OX c #848C93",
"+X c #869595",
"@X c #9E9A9C",
"#X c #8DB59B",
"$X c #9B9EA6",
"%X c #AA9BAA",
"&X c #93A5A3",
"*X c #9DA9AA",
"=X c #98A9AC",
"-X c #ACBBBC",
";X c #A5B3B3",
":X c gray75",
">X c #A0BFA6",
",X c #81CC9C",
"<X c #8DC3A8",
"1X c #8BCFB0",
"2X c #A5C9B2",
"3X c #96E9AF",
"4X c #87FBA8",
"5X c #A4ECB7",
"6X c #B2BFC2",
"7X c #ADC8C1",
"8X c #B4C5C5",
"9X c #BACBCB",
"0X c #BAC7C9",
"qX c #C8CACA",
"wX c #C3D2D2",
"eX c #CBD5DB",
"rX c #D7DCDC",
"tX c #C8CAD3",
"yX c #D1C4E3",
"uX c #DDE1E5",
"iX c #ECEDEC",
"pX c #E4E8E8",
"aX c #EEF3F1",
"sX c #EBF8FA",
"dX c #F2F3F3",
"fX c #FCFCFC",
"gX c #F4FBF5",
"hX c #E5F8ED",
"jX c #CCEFD4",
/* pixels */
" . .: W 8.Q Z 5 D B ..8.9.! T C z T u.8.8.9.6 ^.: W Y.8.P ^.8.! ",
"- N X.0.w.X.7. .= O.).^.Q 0.7.) ; M {./.I 7.e.e.!.{ j 5.].^.` l ",
"! 0.[ 7.R 7.3.e.+.r.`.`.I c q.E . : 2.8.Y 0.K 0.( O./ { { A M z ",
"9.K.X.0.H 7.0.P { I.E c 0.w.7.* -X< ( K.X.I K R ( = P.o.G ( F A ",
"B T ].Q.Q./.H !.) I.E O.0.K ..# -X+X. _ T.6.4./ N r./.).).W 0.B ",
"B - W.[.[.{.J.O.j I.].G ' O   ;XwX+X+ : _ F k ^ +.`.`.I (.~.0.7.",
"D - ; / | : { | _ / '._.- qXiXfXfXqXwX< T ' P.o.N 4.Z Y x (.' 8.",
"- M B [ X.~.~.s F t = - qXfXfXdXgXfXgXfX< ' 0. .A { R.E.T.2.t.' ",
"q.q.G q.7.I._.3.0.B + qXfXdXgXfXdXfXfXfXwX+ Z ` A l A A A M F ; ",
"L.6.7.7.0.Y._.7.' * qXfXfXoXuXfXfXfXdXfXwXwX+ U ; ; t T o.G N _ ",
"r.J.t.[ 3.(.L 7.# :XfXfXfXoXpXfXfXdXdXfXwX2X< ) { o.w.0.q.q.[ Q.",
": ; G T.Y.t.q.` * qXfXfXwX XuXfXfXfXfXfX0XOX8X  V G w.I I K q.o.",
"/ A ~ ] _ F A O +XfXfXfX X-X8XpXfXfXfXdX9X X7X< [ c e.Y K q.G S ",
"J W V G X.( A + OXaXfXfX#.=XwX8XpXiXiX0X7X, uXwX. K.w.[ w.E n M ",
"K 8.t.H w.G r.& n.7XgX0X, &XwX9X0X0X0X-X=X#.iX<X$ z 1.X.2.x S P.",
"..3.0.w.0.H   u k.XXfX*   &.;X6X-X-X6XoX@ eXgXl.p.. I.R.y./ J.R ",
"..t.7.7.3.K   g S.<XaX*.2 + %.-.-.-.-.,.O +XdXS.d.+ F ~ M _ T.J ",
"C R 7.[ (.!.  n.2X7X0XsXa .Xj.g g p p   &.  rXfXF.2 : B s ; A L.",
"C J [ t._ -   q k.1X2X&X<.tXuXeXeX=X+X< 2   pXfXjX,X  3 Y J.= ) ",
"Q Y.|.M M n   j.G.,Xs.$ 2X5X X-X9XwX&X&X  $ iXhXg.i.  0.R I.Q.A ",
"3 ~ t s ` 0.# >.;Xs.a.a u Z.o &X;X=XeX,.r N.3XfXF.i.  q.7.R Y M ",
"C : * o.6.e.G O u d.d., 8 &X*.+X*X*X6X. B.D.c.5XfXb.  G 0.7.W Y ",
"T ; s } K.X.e.x 9 a.f.o :.#.9X-XfXfX*.% B.V.V.z.3XyX  (.K 7.y.Y ",
"D A A S X.R.R V 4 % d.o *XpXrXfXfXfXX c.C.g B.V.v.m.  /.q.q.H 0.",
"U | 3.` ( T [ R.F : 7   *XfXfX$XfX%X9 e d r V.M.x.9 3 [ Y G q.' ",
"J 7.e.q.7.( B _ A T V > =.,X4X  H.. y f i D.g x.g.  r.5.K.K.X.M ",
"8.7.e.G w.R c = 1 7.3.(.= p.A.+ 7 &.X M.C.d e l.0 - = ~ ^ ^ = A ",
"8.R 7.0.q.G `.J.l b /.`.O %.9X<   &.X w e 7 z.7 3 N = M A A * / ",
"Q L (.q.Y } R O.I.}.~.I x 2 &.X j   q 0 0 0 7 m q.T N T [ ( N ~ ",
"L /.Y 7.' w.X.; _ '.{.~.` Z 4 z q.O 8 0 0 x G K...A s 0.e.e.r.M ",
"8.P w.' L.5.( ) / { [ Y.[.Y.4.Y.' .       ~ / S M S 0.H 3.3.7.P.",
"t O.U.K.[ ~ A N l k T } S / / s l M / U B F B B k N L.y.Y 7.0.J."
};
