/* XPM */
static char *_99600228df4496db39253279bf1dec9P6PA9C3UOHmbDgXM[] = {
/* columns rows colors chars-per-pixel */
"32 32 229 2 ",
"   c #020201",
".  c #040D02",
"X  c #0A0808",
"o  c #021303",
"O  c #091708",
"+  c #181A0C",
"@  c #181917",
"#  c #121417",
"$  c #231D17",
"%  c #002802",
"&  c #013A01",
"*  c #1D2215",
"=  c #163011",
"-  c #242613",
";  c #272917",
":  c #2B3317",
">  c #2D351A",
",  c #33351B",
"<  c #343B1C",
"1  c #383619",
"2  c #2A2211",
"3  c #261C2A",
"4  c #2B2C2B",
"5  c #393922",
"6  c #293333",
"7  c #363538",
"8  c #2E302F",
"9  c #123131",
"0  c #5B0000",
"q  c #7E0101",
"w  c #503C1C",
"e  c #453A1A",
"r  c #413C21",
"t  c #543F21",
"y  c #6C3F23",
"u  c #035804",
"i  c #025419",
"p  c #004A08",
"a  c #3B431D",
"s  c #36401B",
"d  c #016902",
"f  c #027603",
"g  c #02691E",
"h  c #126415",
"j  c #1F4F22",
"k  c #3D4420",
"l  c #1D7822",
"z  c #007C23",
"x  c #45451E",
"c  c #45491E",
"v  c #494B1E",
"b  c #4B441D",
"n  c #524D1F",
"m  c #56461E",
"M  c #6F4E1E",
"N  c #4C4421",
"B  c #4C4C23",
"V  c #454623",
"C  c #534D25",
"Z  c #5C4B2B",
"A  c #5A4724",
"S  c #4D5124",
"D  c #535323",
"F  c #5A5B25",
"G  c #5A542B",
"H  c #5D5B2A",
"J  c #585725",
"K  c #494B39",
"L  c #644B24",
"P  c #6A4C24",
"I  c #6A4C2A",
"U  c #634826",
"Y  c #714A23",
"T  c #6B5424",
"R  c #64542B",
"E  c #6B522A",
"W  c #645829",
"Q  c #725426",
"!  c #795A28",
"~  c #695832",
"^  c #755734",
"/  c #5D6124",
"(  c #5E6028",
")  c #64642A",
"_  c #69642D",
"`  c #686728",
"'  c #73632D",
"]  c #736D2D",
"[  c #7D6A2C",
"{  c #79642B",
"}  c #77732E",
"|  c #6C6730",
" . c #736432",
".. c #7D6B31",
"X. c #7A6434",
"o. c #7A7535",
"O. c #7A7735",
"+. c #002354",
"@. c #3A4242",
"#. c #375454",
"$. c #2E4E50",
"%. c #4B4A4A",
"&. c #434646",
"*. c #57585B",
"=. c #52544B",
"-. c #575F60",
";. c #5B6666",
":. c #5D7373",
">. c #456162",
",. c #616D6C",
"<. c #6A7A7A",
"1. c #6F6F71",
"2. c #855C22",
"3. c #826D2E",
"4. c #886228",
"5. c #8A722E",
"6. c #96772E",
"7. c #836D33",
"8. c #8A6C33",
"9. c #886837",
"0. c #916F3C",
"q. c #857234",
"w. c #8A7334",
"e. c #85713A",
"r. c #8A743A",
"t. c #887A36",
"y. c #917637",
"u. c #9C6F2F",
"i. c #945B46",
"p. c #C57979",
"a. c #008800",
"s. c #009603",
"d. c #02A804",
"f. c #01B60D",
"g. c #22A31C",
"h. c #008827",
"j. c #269524",
"k. c #0CB328",
"l. c #2BB636",
"z. c #00DD14",
"x. c #09C128",
"c. c #01C936",
"v. c #02D73D",
"b. c #19E234",
"n. c #00E432",
"m. c #6A8979",
"M. c #5FB467",
"N. c #4B9E49",
"B. c #07D842",
"V. c #10CC40",
"C. c #28D148",
"Z. c #02EA44",
"A. c #3BFB4B",
"S. c #35F646",
"D. c #2DEE47",
"F. c #68F675",
"G. c #8D843A",
"H. c #9E8535",
"J. c #9C823B",
"K. c #94873A",
"L. c #9A9A3D",
"P. c #96802A",
"I. c #A38938",
"U. c #AC943B",
"Y. c #A0892C",
"T. c #A4A93B",
"R. c #9B8E42",
"E. c #958B42",
"W. c #999443",
"Q. c #A68D4C",
"!. c #A39945",
"~. c #A69C4B",
"^. c #A99D4C",
"/. c #A59847",
"(. c #AA9F52",
"). c #9FA241",
"_. c #ABA44C",
"`. c #A7A444",
"'. c #B2AB4A",
"]. c #BBB74E",
"[. c #B4AE52",
"{. c #B6B252",
"}. c #ACA949",
"|. c #C1B94D",
" X c #CBC75F",
".X c #5B6386",
"XX c #767D83",
"oX c #7C8C8C",
"OX c #788586",
"+X c #7D9292",
"@X c #728C85",
"#X c #7188A1",
"$X c #78D194",
"%X c #3F9BF4",
"&X c #838D8D",
"*X c #899B9B",
"=X c #94949E",
"-X c #97A5A7",
";X c #A8A8A7",
":X c #A6B6B6",
">X c #BCBCBB",
",X c #B0AFAF",
"<X c #8BCF8B",
"1X c #B1C7BA",
"2X c #BAB3CC",
"3X c #AFC1C1",
"4X c #B7C6C6",
"5X c #BFD2D2",
"6X c #B3DCC1",
"7X c #BCFEC0",
"8X c #AFE1FF",
"9X c #C4C9CB",
"0X c #C8D7D7",
"qX c #D5D9DD",
"wX c #CBCCCF",
"eX c #E3DCD6",
"rX c #F7DFDF",
"tX c #CCF7D1",
"yX c #D8DEE7",
"uX c #D7E1E2",
"iX c #DFE5F3",
"pX c #E8EBEB",
"aX c #E6F8E8",
"sX c #EDF7F4",
"dX c #F4F6F6",
"fX c #FDFDFD",
"gX c #F5FAFB",
"hX c #EBEBEE",
"jX c #E8D4E6",
/* pixels */
" . .5 ~ 9.^ A r G C ^ 9.0.! W R b W 0.9.0.0.y Q.1 ~ I.9.I Q.9.^ ",
"1 V ..q.7.7.7. .> o.^./.^ e.q.' , B [./.T 7.r.e.G.} x 6.[.I.' B ",
"^ 7.7.7.T 7.3.r.O.O._.}.T L w.3.F n 2.e.P q.I 8.' o.) } } D B c ",
"y.K.[ q.U 7.7.Y } L.! L 7.e.3.r. .D ] J.X.K 8 A | : K...U _ J D ",
"D T '.W.R./.P R.] ).! 7.q.Q 7.8.{ D x ] r qX@.D S t.!.~.~.E q.C ",
"C > T.].].{.G.o.k L.`.U [ 7.7...D - : - >X1X@ C O.`._.T _.W.w...",
"G 5 5 ) | < } | ) ` }.[.Q.q.5.B - %.;.oX0XoX# ) V 4.U I m ~.{ r.",
", V m [ ..W.W.k F s : T.].U.` 8 &XpXsX0X-XXXOX; D ] U.Y.U.2.0.{ ",
"w.t.U w.7.!.^.[ q.C < < < S ; wXfXfXdX1X:X*X0XoX- v D D D S J > ",
"J.6.7.3.q.K.(.q.w.' B B J $ 9XfXgXfXdXpXfXdXqXgX=.* s W o.L c ` ",
"t.G.y.3.7.^.L 7.8.K.D _ 1 >XfXdXfXuXfXeX.X8XfXfX%X1.m 3.w.w.3.R.",
"< > T I.I.6.w...F < V q.# fXdXfXdX+XdX>X  #XpXdX+.1X%.m T I w...",
"_ D ) ] ` J D B c H e.1 ;XdXgXsX*X4XdXhX;XqXfX#.K >.uXK t q.U F ",
"P ~ m L ..) D J c ] t XXfXdXfX4X*XdXfXfXfX-Xi.q OX9 5X;.G ! V C ",
"I 9.y.P r.U ^._ J A & wXfXfXfXXX+XfXdXdXfX<.0 p.oX9 -X4X8 b F K.",
"X.3.e.e.q.P _.7.A *.g.C.F.fX,X6 :XfXfXdXfX:.0 wX$.<.OX0X7 S P.Q ",
"X.r.3.7.3.I ^.E.O <XaXx.S.fX&X  <.yXfXfXfXqXrX%.@ *XXX:X3X@ H.U ",
"U Q 8.3.^.W.t.% s.<XfXtXA.jX* x + h -XyXqXsX,.8 X OXOXXX0X9 C I.",
"Z U [ y.) : 3 1Xf.C.tXfXaX:X$ ! 1 &Xl l j 3 4 *.X 0XoXXX:X:X# ` ",
"^ I. Xc - X j.fX$Xz.tXfX9X@ A N ,.dXX f a.% 7 *.%.@ = N.2XiX# D ",
"< F c - z k.x.N.fXF.7X0X3X+ q.1 ,XfXl.3 <Xd O %.# f s.V.g.g.. B ",
"R < + g v.D.D.b.$XfX0XqX4 6.w =.4XfXV.=X&.M.o X a.d.V.v.v.c.o E ",
"~ X i i l.A.A.A.b.$XiX8 O.`.7 sXgX=Xv.1.7 XX  d s.O n.p h.Z.o E ",
"Z   . g Z.o D.A.D.x.= < H ` @.gXfXdXO 4 dX-.  s.o d.u i B.f.. q.",
"W .   d % l.A.k.d.u 1 ..Z n k gXfXfXhXhXsX*.W +   & d u p . ! ] ",
"I { w   h.Z.d.a.. 1 w.P R.[ x 1.dXsXsXwX0X;.w ..< - O . T 5.o.B ",
"9.7.A   f d.X X 5 8...~.^.y.C ,.fXC.c.1Xd e I q.w.) : F ( ( : D ",
"e.Q ..1 . o E.o.v M !._.E 7.q.2 f m.m.d.u e P 3.y.N : B D J ; W ",
"^ L ~.w.I 3.Q o.).}.W.T 3.7.q.K ,.&X  $.*.e [ e.0.) B W [ ) B / ",
"U /.E q.[ e...5 ` `.{.W.[ 7.8.3.> X &.X $ I.Y.J.] S k w.r.r.G.c ",
"2.I w.{ J.u.) | ) } 3.I.].I.4.I.X.B : O.s F ) F B H q.P 3.3.7.K.",
"a e.6.H.] / J c v c W } J ) ) k B B ) ~ C J C D V x J.3.E 7.q.G."
};
