/* XPM */
static char *_0e962fa2249422eeecfe7a948e541fdAQ987AyV3pkidUQR[] = {
/* columns rows colors chars-per-pixel */
"64 64 256 2 ",
"   c #020301",
".  c #020C01",
"X  c #090909",
"o  c #011303",
"O  c #081707",
"+  c #17180B",
"@  c #191A17",
"#  c #120E10",
"$  c #241B12",
"%  c #032704",
"&  c #19230A",
"*  c #023703",
"=  c #192615",
"-  c #103811",
";  c #2C2C14",
":  c #262615",
">  c #342A16",
",  c #2C3317",
"<  c #2D3419",
"1  c #32351B",
"2  c #343B1B",
"3  c #383718",
"4  c #25260F",
"5  c #121327",
"6  c #282828",
"7  c #383723",
"8  c #363738",
"9  c #2E302F",
"0  c #1A292E",
"q  c #5B0101",
"w  c #453A1B",
"e  c #523C1D",
"r  c #443E22",
"t  c #543F21",
"y  c #76281F",
"u  c #004C01",
"i  c #054606",
"p  c #015802",
"a  c #025618",
"s  c #084A14",
"d  c #3B431D",
"f  c #37421C",
"g  c #026704",
"h  c #017702",
"j  c #016A1B",
"k  c #0D7117",
"l  c #3D4421",
"z  c #344D39",
"x  c #0C7624",
"c  c #23622A",
"v  c #44461D",
"b  c #45491E",
"n  c #494C1E",
"m  c #4A441D",
"M  c #55481E",
"N  c #52561E",
"B  c #6A4E1D",
"V  c #454522",
"C  c #4D4423",
"Z  c #4B4C22",
"A  c #464A21",
"S  c #534C24",
"D  c #584926",
"F  c #4E5123",
"G  c #535324",
"H  c #5B5425",
"J  c #5B5B25",
"K  c #5C5B2A",
"L  c #575728",
"P  c #484938",
"I  c #644C24",
"U  c #6A4D24",
"Y  c #674B29",
"T  c #734B2A",
"R  c #6C5325",
"E  c #63542B",
"W  c #6C532A",
"Q  c #625D2B",
"!  c #685928",
"~  c #735426",
"^  c #735A2B",
"/  c #785929",
"(  c #744E31",
")  c #6A5A31",
"_  c #765933",
"`  c #6E4D33",
"'  c #5D6126",
"]  c #64632B",
"[  c #6B632C",
"{  c #6C6B2D",
"}  c #656428",
"|  c #74632D",
" . c #7B642C",
".. c #726C2D",
"X. c #7D6A2D",
"o. c #746625",
"O. c #79752E",
"+. c #6B6731",
"@. c #746432",
"#. c #7D6B32",
"$. c #786733",
"%. c #7A7734",
"&. c #6E702F",
"*. c #1E2F4E",
"=. c #47334A",
"-. c #3B4445",
";. c #315051",
":. c #454848",
">. c #55595A",
",. c #4F5151",
"<. c #526958",
"1. c #576A6B",
"2. c #646868",
"3. c #697878",
"4. c #6C7373",
"5. c #625D62",
"6. c #B02020",
"7. c #C22929",
"8. c #845E24",
"9. c #826D2E",
"0. c #876628",
"q. c #88742D",
"w. c #93752C",
"e. c #836D33",
"r. c #896B34",
"t. c #8C6D3A",
"y. c #866838",
"u. c #916E3B",
"i. c #857234",
"p. c #8A7434",
"a. c #8D7A33",
"s. c #86723A",
"d. c #8B743A",
"f. c #857C37",
"g. c #947A37",
"h. c #946A2C",
"j. c #927541",
"k. c #827D7A",
"l. c #9F5252",
"z. c #C75E5E",
"x. c #008801",
"c. c #009805",
"v. c #0B9517",
"b. c #02A704",
"n. c #00B605",
"m. c #0AAB16",
"M. c #048C28",
"N. c #28912C",
"B. c #05B42C",
"V. c #2CAE37",
"C. c #23A41C",
"Z. c #00D013",
"A. c #03C627",
"S. c #03D629",
"D. c #01C937",
"F. c #04D63B",
"G. c #17CE35",
"H. c #10E832",
"J. c #23E532",
"K. c #30AB4E",
"L. c #3B8D4B",
"P. c #6F887A",
"I. c #54B96A",
"U. c #599D61",
"Y. c #03D942",
"T. c #12C840",
"R. c #29D24A",
"E. c #07EB46",
"W. c #3AFA4A",
"Q. c #2FF448",
"!. c #3DE161",
"~. c #44FB50",
"^. c #6ACD72",
"/. c #5EE371",
"(. c #7E8031",
"). c #8A8438",
"_. c #988638",
"`. c #9B963C",
"'. c #928931",
"]. c #A48A37",
"[. c #A89338",
"{. c #A2A63E",
"}. c #9BA33E",
"|. c #9B8E43",
" X c #968B42",
".X c #9D9244",
"XX c #969744",
"oX c #8F9541",
"OX c #A68944",
"+X c #A29545",
"@X c #A49A45",
"#X c #A59B4A",
"$X c #A79A4A",
"%X c #AA9E52",
"&X c #ABA34C",
"*X c #A9A745",
"=X c #BAB64C",
"-X c #B3AD4D",
";X c #9EA241",
":X c #C1BC4E",
">X c #CBC75F",
",X c #767D83",
"<X c #6D6188",
"1X c #0661D6",
"2X c #907492",
"3X c #748484",
"4X c #7B8A8B",
"5X c #788F8B",
"6X c #77AB84",
"7X c #6A8CA8",
"8X c #74D190",
"9X c #6FE291",
"0X c #6EAFF1",
"qX c #3F9BF4",
"wX c #858A8B",
"eX c #889897",
"rX c #94989A",
"tX c #868D94",
"yX c #88AE90",
"uX c #98A6A6",
"iX c #97B0AE",
"pX c #A7B6B7",
"aX c #B7BCBA",
"sX c #AAABAA",
"dX c #A2999A",
"fX c #C8B3B7",
"gX c #8ACF8F",
"hX c #B4C4B8",
"jX c #B2F9B6",
"kX c #8BEBA0",
"lX c #B9B8C5",
"zX c #B5C4C5",
"xX c #BBCACA",
"cX c #BDD3D1",
"vX c #AECAC6",
"bX c #BEF7C5",
"nX c #ABDBFF",
"mX c #C7CACD",
"MX c #C8D7D6",
"NX c #D4D8DB",
"BX c #C8CECF",
"VX c #E8DDDA",
"CX c #CBF7D0",
"ZX c #D7DCE6",
"AX c #D7E4E5",
"SX c #D8EAEB",
"DX c #E7EAEA",
"FX c #E7F9E9",
"GX c #F9EEFB",
"HX c #EBF6F4",
"JX c #F5F6F6",
"KX c #FDFCFD",
"LX c #F6F9FA",
"PX c #EBEEF1",
"IX c #E5D9E7",
"UX c #C5C0B9",
/* pixels */
"@.[ @.+.7 r ) ) y.t.( T D C r C D D D Q $.y.y.r.u.r./ ) ! ! D D C C ! r.j.j.y.y.u.t.u.y.U T +Xj.3 ; +.OX].t.r.r.T T OX$Xy.r._ D ",
"] ] %.&.v S ) @.#.d.^ U D Z l l F F L +.X.r.e.e.r.r.| [ [ [ Q G b Z } a.j.s.#.0.i.i.d.e.B U .X Xl 1 L %.a.a._.a./ ~ &X$X0.[ E S ",
"1 2 A _ e. .i.i.p.r.e.X.#.X.+.L < , %.#X@X+X+X|.^ ` p.i.r.e.[ J 2 1 Z g.-X#X+X`.R I i.i.t.s.i.i.).f.&.] b 0.w.w.-X=X].g.| G A C ",
"7 V D _ a.i.d.p.e.#.i.i.p.i.s.+.f 7 f.&X&X$X%X$X` Y e.s.p.q.9.[ 7 2 Z g.-XOX+X_.B I X.d.t.t.e.p..X X..L d K ^ [ *X*XO.Q L Z V C ",
"_ j.i.q.9.9.s.e.R R p.i.9.e.d.s.%.&.(..X&X#X&X@XI I I R p.p.9.X.J n N h.8.U s.y.U U i.i.Y W e.e.| K %...] &.&.O.&.&.G n C Z v C ",
"j.j.w.O.X.9.i.e.R R e.d.9.q.r.s.%.&.).*X+X.X.X`.R I R W p.p.r.e.] F b B / 8.a.e.W D > # X + R e.[ G ] { { ......{ [ G Z F G M C ",
"d.[.w.X.X.#.i.e.I I #.s.e.e.U U O.{ `.-X/ I I B p.p.s.s.#.e.a.d.@.K N G ..]._.e.^ t P 4.9 + I / [ G , l _. X%.@.I D [ Q J J G S ",
"$.a.a.w.p.e.i.i.W Y p.d.e.9.U I &.{ {.{./ I I ! i.f.s.s.X.e.d.p.$.Q F v J O.g.a.I $ dXDX>.$ S L K G 2 G &X.Xd.d.8._ #...[ ..K D ",
"G J R g.-X+X|.XX|.`..X XU ^ |.).&.&.XX*X8.R #.i.i.e.W ^ i.r.r.9...! N n v F ..! r  XZXcX-.$ M n A L f..XXX@X@X@X%X.XW E p.e.S r ",
"m n d o.-X-X*X*X*X*X-X|.I E  X%.' { }.-X8.R #.p.i.e.W W i.i.9.X.} N Z b v b n 1 5.DXSX,X@ + v b F ] .X#X*X.X@X@X%X%XW W a.i.Y Y ",
"S b , b {.=X=X=X=X=X=X#XoX(.%.] A Z }.=X&Xa.I I  .X.e.y.r.9.#.! N d : $ > > 4 4.aXAXlX1.@ O F ] %..X&X&X&X@X~ ^ &X%X.X Xq.i.#.y.",
"S b , 2 (.{.*X*X&XXX X).).%.+.K b n (.*X-X*X .^ i.p.d.p.r.q.[ G n 3 X       8 BXPX5X5X<X6 + G ] ).#X@X X X XM I  X X%X+X9.e.r.u.",
"L Z 2 1 7 A ] ] ] ] 2 d &.{ { { } } { %.*X:X-X#X+X+Xi.X.q.0.S 4 4 : :.4.1.>.3XNXMX5X5X3.@ : Q ] b 0.0.I I I W W M I $X&X . .t.u.",
"P V 2 2 7 V ] ] ] ] A G %.&.+.+.{ { L L (.*X&X-X&X-X_.a.O.! ; @ @ :.iXAXcXzXxXMXpX5X5X3.9 : E +.l I o./ / /  ./ / / @X[.9.9.e._ ",
"1 , F K M U X.X.$.#..X+X#X).l f J J f , , l }.=X=X=X[.].[ 4 9 3.wXsXPXKXLXSXNXxXuX4X,X3X4X,.; V G G o._.[.[.'.].[.].8.~ p.g.$.Y ",
"v d ] [ B ~ q.i.y.d.#X&X&X.XL l ] { l 2 = f (.{.{.`.'.o.3 = 4.AXLXKXKXKXJXMXvXzXiX4X3.eXcXuX8 : A v J q.'.q.q.q.).a.M M $.$.J C ",
"p.a.a. .I T p.s.e.e..X$X%X+XX.X.i.#.S 7 2 < 2 d 2 f F < : wXBXKXKXKXKXKXLXMXzXhXpXiXuXiXMXvXwX8 4 2 n N G G N G G G G Z G G 2 1 ",
"].[._.e.I T d.p.#.e.`.@X%X$Xi.q.a.i.H l l < , < , < 1 @ 5.DXKXKXKXLXLXKXLXNXxXxXBXmXmXxXxXNXNXP.= ; v n b n S S S G G G L A < 1 ",
"].[.w. .#.e.e.e.e.i._.@X%X$Xy.e.i.9.| K Z V F L H 3 $ 4.mXKXKXKXLXLXKXKXLXDXDXJXLXJXPXDXAXHXLXhXP # + d 2 d Q $.#.$.I D b l +.) ",
"d.a.a.w.d.p.X.X.e.e.+X+X|. Xe.9.p.r.#.K G G Q [ H > ,.mXKXKXKXLXLXLXLXJXLXLXJXVXAXHXLXLXKXKXKXNX7X-.@ 1 C S $.d.g.d./ / I H  X%.",
"f.f.).]._.e.9.9.e.i.$X.XI R e.i.p.r._...F K ) E 1 5.aXLXKXKXJXLXKXJXNXDXLXKXVXk.<XqXnXJXKXKXKXnXqX7X4.; C #.e.i.q.p.q.i.9.r.|.j.",
"[ J ] p.g.p.w.a.a.a.@X[.T ~ X.X. .[ %.] G +.e.w @ sXKXKXLXJXLXKXKXAXhXmXLXKXUX$ 5 1X0XJXLXJXKX0X1X0XhX,.4 )  .9.X.e.X.e.9.p.|. X",
"3 < 1 l H w.].]._.]._.p.p.i.#.[ J G 2 2 v I e.C @ rXKXKXJXLXKXKXPXzX5XpXJXKXlX$   5 4XKXDXAXHX7X*.<XhXiX,.> M B R Y Y _ a.a.#.) ",
"V 1 1 2 m 0._.).'.a.X.| | | ] K Z b 2 b I ~  .w r sXKXKXJXLXKXPXBXuX5XaXJXKXNX>.@ > rXKXHXcXpX>.O *.6XZXuX9 > M I I W ^ y.#.) E ",
"] J G G J [ &.{ [ } J S G G Z Z b A K #.d.^ 3 r sXDXLXLXLXKXPXBXeXeXzXDXLXKXDXmXsXdXVXKXKXvX=.9 -.z 1.vXZXeXP : C ~ r.p.I S J D ",
"$.[ { ] ] } ] ] Q J G A Z Z Z Z b Z +._.d.e : wXLXKXLXGXKXKXAXiX4XiXPXKXKXJXLXKXKXKXHXNXVXdX$ > 3X;.*.5XSXNX1.# r W a.t.C d S H ",
"I I W ) D I I U e.#.] J G G J J n n { _.S 9 ,XNXKXKXLXLXKXKXxXyXeXzXHXKXLXJXLXKXKXLXuX,.l.6.6.y 3X;.0 3.xXMX5.# Y s./ / V 1 S @.",
"U T _ _ ~ R B U d.d.@.] @...} J M N o.o.$ z zXGXKXKXJXKXKXLXuX1.uXAXKXKXLXLXLXLXKXHX1.X q 6.6.l.5X;.0 <.pXcXP.9 C e.Y C A V ] t.",
"Y ~ r.d.a.i.U U s.d.Y W %X.X] L L Q M 4 * L.MXGXKXKXJXKXKXDX3X*.5XAXKXKXLXLXJXKXKXJX3.X q 7.%XsX5X;.0 ;.iXBXzX4X> w M d K '.'.t.",
"` ~ e.p.p.i.U W e.p.U / &X$X| ] Q Z 1 6 x.C.8XbXCXHXKXKXDXuX;.;.eXNXKXKXJXJXJXLXKXJX1.. q 7.mXnX3X;.;.P.eXzXAXzX8 + v d { _._.r.",
"$.t.9.9.p.s.s.s.p.e.I ^ %X@X9.X.S : >.6XC.b.R.!./.CXKXKXsX8 9 3XpXAXKXKXKXJXJXKXKXJX1.. q 7.MXiX;.;.3.3X3XeXcXvX8 + F q.'.p.~ T ",
"$.d.9.9.i.s.t.s.e.e.U ^ %X@Xr.^ ; = tXAX^.C.m.Z.W.jXKXLXwX  @ P.uXcXPXLXKXKXJXKXKXLXeX=.l.z.dX1.0 <.7X5X,X3.pXaX2.6 v g.].e.I T ",
"$.p.d.d.9.r.e.i.i.X.Y _ #X@X).d & k gXFXDX8XA.Z.W.CXKXGXtX#   8 P.pXZXGXKXKXKXKXKXKXAXBXVXfX:.X # ,.5X5X,X3XiXcXzX2.: G _.e.U T ",
"_ p.d.d.0.9.i.e.q.i.E Q `.).M & u m.gXJXKXCX/.H.Q.jXGXfX>.4 + + 8 3.yXaXDXGXGXLXLXLXKXKXDXrX6   X ,.5XeX3X3XuXvXSXuX@ 3 a.a./ T ",
"E W ~ ~ i.i.X.9.$X%X.X X%.v + p x.m.gXJXKXLXCX/.W.jXIX5.: , b 3 @ - k L.uXMXZXZXZXAXJXMX2.6 9 @ X :.5X5X3X4X4XuXMXuX5 # G h.g.j.",
"D W U ~ e.e.e.p.+X).%.{ w 9 ;.v.n.m.^.CXJXKXKXCX9XCXmX6 O 2 G [ 4 o s N.<.P.yXyX5X4XrX3.@ X :.9   1.iXuX4X4X,X4XzXiX,.: 4 D g.j.",
"D ) Y I $.e.d.d.} n < & : 2XjXR.n.B.J./.CXKXKXJXFXHXpX6 $ [ | ^ 3 9 wXU.x k x c f 0 @ 6 9 :.5.$ X ,XMXsX4X,X,X4XpXMXpX<.# X { _.",
"` _ / / _.d.e.+.v 3 = + f fXLXkXR.A.H.~.bXKXKXKXJXhX2.< w r. .S 7 ,XNXyX- u h x.u %   X 8 5.5.6 0 5.tX4.>.U.3.tXlXSXPX2X@   N q.",
"( h.].[.>X-XZ 1 + X X % N.jXKXFX8XA.Z.~.bXKXKXKXBX>.@ w D U C : 2.NXLXwX  % h x.x.x.%   =.>.,.,.:.6 5 # = v.L.tXlXSXSX,X#   G J ",
"E  .'.'.=X*X2 = % s - g m.^.BXLXSX/.H.~.CXKXPXHXxX8 X D T Y 3 @ rXKXKXsX- % f V.R.c.u O 6 =.,.,.=.O o O i c.V.U.6XyXgX<.O   G C ",
"w f N ' d d 4 & x B.B.D.A.m.I.CXKXCX/.~.bXGXNXAXzX:.+ ^ 9. .> @ pXKXKXjXK.* 6 rX8Xv.g u O @ ,.=.# u h h c.B.T.T.V.C.C.a .   S r ",
"3 < v v = & - j D.E.E.E.H.n.m.^.FXKXCX9XbXDXBXpXP.7 w  .X.M 7 >.aXGXLXjXQ.M.=.2XwX<.N.g o X 6 6 * x.n.Z.A.Y.Y.S.n.b.b.g o   E D ",
"K G 2 < = X j D.F.F.Q.W.W.Q.J.A.8XKXKXFXMXAXMX4X6 m g.#.m + ,.zXzXIXLXkXY.8X2X=.-.sXI.p o     * x.b.b.B.Y.D.Y.F.D.D.D.x o   ` Y ",
") ] ; @ = a j M.D.Q.W.W.~.~.Q.S.R.kXPXGXDXxX5X8 , q.].I > :.uXPXZXZXxX/.Y.kXrX# = zXyX-     % h b.h a B.E.A.M.j B.Y.E.x o   W ( ",
"^ Q X . a B.a % V.W.~.W.W.W.W.Q.H.R.6XIXSXeX9 : (.:X&X1 8 uXPXKXLXIXrXK.T.8X4.# 8 zX,XO   % g n.c.* O M.H.m.* o M.E.F.x o   W ` ",
"E L .   i M.a a G.R.N.V.W.W.~.~.E.S.K.^.eX:.+ d '.*X).+ -.cXKXKXKXDXpXL.j s 8 ,.rXxX2.X   * b.b.p % i B.m.p * s B.H.S.k o   ^ ( ",
"D G     . O j Y.E.M.o c W.~.W.~.Q.D.A.v.- @ 7 K K { o.: -.hXLXKXKXKXJX3X#   9 aXPXMX>.X   * c.g o u b.n.p o a B.Y.F.n.p o   e.u.",
"D Z       . j D.M.s s N.W.Q.J.J.G.A.x.i O : L +.J J H + -.xXKXKXLXKXKXfX5.,.,XPXKXMX>.# : 4 p %   % x.b.g   j S.B.j p - $ > X.y.",
"E G X     . g c.% = V.W.W.E.B.m.b.b.u O 3 } $.#.H D M + -.aXLXKXLXLXLXJXDXVXPXKXHXMX>.+ ! ! &       * x.g . u c.u o o 4 / e. .E ",
"@.[ > ; $   * u - x Q.Q.J.S.m.g u u & 3 o.q.a.p.~ R H 3 7 2.pXHXJXLXKXKXKXKXJXJXLXSX2.+ W e.m ; 4 & & i i   % u & > $ e a.e.K C ",
"Y I  .#.m     % M.F.E.B.b.b.h % . O > ^ p.r.U W |.+X9.! v @ 4.AXKXKXJXFXFXAXBXxXMXcX>.@ e ~ #.[ d 3 4 O O X . + U g.w.p.s.] Z V ",
"( ~ e.r.D     o v.H.Z.x.u u * + 4 < ! t.p.y.^ ^ $X%Xa.9.S . >.SXKXFXkX9XkXvXhXyXU.2.P w e R p.p.I n 2 4 4 3 w w f.'.).e.L Z V S ",
"t.d.9.X.S     o h n.b.p .   . : 2 I e.a.#.p.#X#X#X#Xd.i.S # 1.AXKXCXR.m.B.iXhXV.p o w  .Y ( i.i.d.i.} v , d J ' ' ' K G < < G ^ ",
"s.i.X.X.^ w # . * p p & > > : 1 m ~ r.i.e.a.#X#X|.|.p.e.@.w 7 4.^.^.K.K.I.^.!.b.p X e  .Y ~ i.i.d.d.[ b 4 3 b n Z Z Z v ; < K u.",
"t.s.^ R #.^ 3 X . o O > XX X&.+.N 8.~ ~ +X+X%X#X` Y #.i.i./ ; + g V.P.tXP.N.b.m.p X w | U W O.9.a.g.V < , , Z L G G G V ; , } g.",
"y.e.R ^ e.s.! w w w > D @X.Xf.&.N w.8.o.+X@X@X.X^ I #.9.r.9.> O c U.rX<X=.s k K.c X w | R ~ 9.i.a.p.C 1 , 2 K [ [ } ] Z , 1 [ g.",
"_ W I ^ $X+Xd.e.U W X.9.~ ^ %.&.}.=X-XXX@X|.I R #.i.e.e.d.#.P z 1.eX4X-.  X ;.,X5.+ w X.X.#.s.s.g.d.! n n G Q $.X.o.[ L A b ' g.",
"` ` Y ^ #X+Xd.p.Y U i.e.I I %.{ oX=X*X;X#X|.I I 9.p.9.e.t.e.+.P -.:.-.9 : # 5 -.7 w ! a.q.p.d.d.t.#.] G G ] $.e.w.q.$.[ J Z ' _.",
"D B +X+XW ^ e.e. . .d.d.%.' 2 2 { (.{.=X-X#X|.`.X. .s.r.p.e.X.[ 6 X X 9 :.0 X X $ ~ ].].].].g.g.$.L G n d E e.d.p.d.s.d.).[ m h.",
"U B +X|.U W e.y.p.p.p.e...L 7 2 J ' `.{.&X.X#X@Xa.f.d.p.r.e.r.9.9.X.K G J Q +.Q b ~ '.'.a.'.w.i.H n S K D ~ e.e.d.d.t.d.|.%.E 0.",
"0.r.U I p.p. .9._.OXh.0.+.G +.{ ] { &.).9._.]._.=X:X[.w.8.h.]._.$.H Z v , l %.%.l 2 ' } ] Q J L Z V K #.d.e.U U 9.9. .e.e.i._.).",
"_ 0./ ^ a.w.9.e.g._.w.0.' A K ] { ] J K } _._._.{.*X_.w.X.0.a.X.Q Z Z Z 2 Z oX%.l < l Z Z Z m b A A Q s.g.y.R R X.9.e.#.r.a.).@.",
"f Z i._.w.w._.w.#.] } J H Z n n m n V n ' O.O...H H { [ ] J V 2 Z m S L ] +.E D D Z G G S G S Z b Z A / g.a.9.9.R R y.i.d.d. X[ ",
"7 7 s.OX].].].].) C m C S S C Z S C C C E ^ ) E C V D S S C 7 7 t S D ) $.j.` ` ( _ _ ) E ! E D V C C h.OXt.r.r.( ( y.j.t.j.j.@."
};
