/* XPM */
static char *_205b64e889741f0eed5d6bf98620dc7fCykxNNxi0DJ1Qg8[] = {
/* columns rows colors chars-per-pixel */
"64 64 256 2 ",
"   c #020301",
".  c #020C01",
"X  c #080909",
"o  c #011303",
"O  c #081708",
"+  c #17170B",
"@  c #191917",
"#  c #120E10",
"$  c #241B12",
"%  c #022803",
"&  c #033703",
"*  c #152E11",
"=  c #23240E",
"-  c #2B2B14",
";  c #272516",
":  c #362C15",
">  c #2C3419",
",  c #353C1C",
"<  c #38361A",
"1  c #20360E",
"2  c #121327",
"3  c #282828",
"4  c #2B312A",
"5  c #383822",
"6  c #373738",
"7  c #312E2D",
"8  c #1A292E",
"9  c #5B0101",
"0  c #45391A",
"q  c #4B381B",
"w  c #453E22",
"e  c #423F35",
"r  c #76281F",
"t  c #004C01",
"y  c #044606",
"u  c #015802",
"i  c #035619",
"p  c #084A14",
"a  c #3B421D",
"s  c #33411C",
"d  c #026704",
"f  c #017702",
"g  c #016A1B",
"h  c #0D7117",
"j  c #3D4321",
"k  c #344E39",
"l  c #0C7624",
"z  c #23622A",
"x  c #44451E",
"c  c #45491D",
"v  c #494C1E",
"b  c #4C451E",
"n  c #57471E",
"m  c #51531E",
"M  c #63491E",
"N  c #73541D",
"B  c #444522",
"V  c #4D4423",
"C  c #454A21",
"Z  c #4B4C22",
"A  c #534D24",
"S  c #5B4C24",
"D  c #584826",
"F  c #4E5122",
"G  c #535424",
"H  c #5B5425",
"J  c #5B5B26",
"K  c #5C5A2A",
"L  c #575728",
"P  c #484C3C",
"I  c #644C24",
"U  c #694D24",
"Y  c #6A4D2B",
"T  c #644A28",
"R  c #734B2A",
"E  c #645325",
"W  c #6D5324",
"Q  c #63542B",
"!  c #6C522B",
"~  c #625C2B",
"^  c #695C29",
"/  c #73562B",
"(  c #735A2B",
")  c #785928",
"_  c #744E31",
"`  c #6B5831",
"'  c #765933",
"]  c #6E4D33",
"[  c #5D6125",
"{  c #5E6129",
"}  c #64632B",
"|  c #6B642B",
" . c #6C6B2D",
".. c #646629",
"X. c #7C642C",
"o. c #726C2D",
"O. c #7D6A2D",
"+. c #75642A",
"@. c #7A752D",
"#. c #6B6731",
"$. c #746532",
"%. c #7D6A33",
"&. c #786734",
"*. c #7A7634",
"=. c #6E702F",
"-. c #1E2F4E",
";. c #47334A",
":. c #3A4445",
">. c #375757",
",. c #2B4A4A",
"<. c #454848",
"1. c #565A5A",
"2. c #4E5050",
"3. c #506B58",
"4. c #5C6767",
"5. c #5D7272",
"6. c #4A646A",
"7. c #656868",
"8. c #697878",
"9. c #6C7474",
"0. c #625D62",
"q. c #B02020",
"w. c #C22929",
"e. c #845C26",
"r. c #826D2E",
"t. c #886628",
"y. c #89752D",
"u. c #93752D",
"i. c #836D33",
"p. c #8A6B34",
"a. c #886A39",
"s. c #916E3B",
"d. c #857234",
"f. c #8A7434",
"g. c #837D35",
"h. c #8D7B33",
"j. c #86723A",
"k. c #8B743A",
"l. c #867B3A",
"z. c #947A37",
"x. c #94692A",
"c. c #81581B",
"v. c #927541",
"b. c #827D7A",
"n. c #9F5252",
"m. c #C75E5E",
"M. c #008801",
"N. c #009805",
"B. c #0B9517",
"V. c #02A704",
"C. c #00B605",
"Z. c #0AAB16",
"A. c #048C28",
"S. c #28912C",
"D. c #05B42C",
"F. c #2CAE37",
"G. c #23A41C",
"H. c #00D013",
"J. c #03C627",
"K. c #03D629",
"L. c #01C937",
"P. c #04D63B",
"I. c #17CE35",
"U. c #10E832",
"Y. c #23E532",
"T. c #30AB4E",
"R. c #3B8D4B",
"E. c #6F887A",
"W. c #54B96A",
"Q. c #599D61",
"!. c #03D942",
"~. c #12C840",
"^. c #29D24A",
"/. c #07EB46",
"(. c #3AFA4A",
"). c #2FF448",
"_. c #3DE161",
"`. c #42FB4E",
"'. c #48FD53",
"]. c #6ACD72",
"[. c #5EE371",
"{. c #8B8439",
"}. c #988639",
"|. c #988E39",
" X c #A48A38",
".X c #A8933A",
"XX c #A98F33",
"oX c #A3A63D",
"OX c #988D42",
"+X c #9C9344",
"@X c #8F8F41",
"#X c #A68944",
"$X c #A19545",
"%X c #A49A45",
"&X c #A59B4A",
"*X c #A5984A",
"=X c #A99E52",
"-X c #AAA548",
";X c #BAB64D",
":X c #B3AE4D",
">X c #767D83",
",X c #6D6188",
"<X c #0661D6",
"1X c #896993",
"2X c #748484",
"3X c #7B8A8B",
"4X c #788F8B",
"5X c #77AB84",
"6X c #6A8CA8",
"7X c #74D190",
"8X c #6FE291",
"9X c #6EAFF1",
"0X c #3F9BF4",
"qX c #858A8B",
"wX c #889897",
"eX c #94989A",
"rX c #888B93",
"tX c #88AE90",
"yX c #98A6A6",
"uX c #97B0AE",
"iX c #A8AAA9",
"pX c #A7B6B7",
"aX c #B7BCBA",
"sX c #B2ADAD",
"dX c #A2999A",
"fX c #C8B3B7",
"gX c #8ACF8F",
"hX c #B4C4B8",
"jX c #B2F9B6",
"kX c #8BEBA0",
"lX c #B9B8C5",
"zX c #B5C4C5",
"xX c #BBCACA",
"cX c #BDD3D1",
"vX c #AECAC6",
"bX c #BEF7C5",
"nX c #ABDBFF",
"mX c #C7CACD",
"MX c #C8D7D6",
"NX c #D4D8DB",
"BX c #C8CECF",
"VX c #E8DDDA",
"CX c #CBF7D0",
"ZX c #D7DCE6",
"AX c #D7E4E5",
"SX c #D8EAEB",
"DX c #E7EAEA",
"FX c #E7F9E9",
"GX c #F9EEFB",
"HX c #EBF6F4",
"JX c #F5F6F6",
"KX c #FDFCFD",
"LX c #F6F9FA",
"PX c #EBEEF1",
"IX c #E5D9E7",
"UX c #C5C0B9",
/* pixels */
"$.| $.| < w ` ` a.v._ _ D w B V L D A ` $.a.p.p.s.s.' ^ E ^ Q D B A E p.v.v.a.e.k.s.s.a.r ! #Xv.< - | #X Xk.p.a.Y Y #X*Xa.p.' T ",
"} } *.*.x A #.$.%.a./ U S Z B j Z Z L | r.r.d.i.t.p.$.| | | ~ A c c ..f.v.k.%.a.d.f.k.i.M W *X@Xa , K *.h.h.}.u.e.) -X*Xt.^ K Z ",
"< , B ` r.%.d.d.i.p.i.O.i.+.#.L > > *.&X*X$X$XOX' _ i.d.i.i.+.H , < Z z.:X=X$X|.W M i.d.k.k.j.d.{.l.=.{ x t.u.u.:X;X Xz.$.G C D ",
"5 j T ' f.f.k.f.i.%.d.y.f.d.j.#.j 5 l.-X=X&X=X*X! T %.f.f.f.O.| 5 , Z z.:XOX+X.XI M i.f.j.j.i.f.+X{.*.L a K ( | %X-X@.} H B B V ",
"' v.d.y.r.r.j.i.W W d.d.r.d.k.j.*.=.{..X-X&X-X*XU S I W f.d.r.O.K v v x.e.U a.i.U I d.i.E ! i.y.+.K *.o...=.=.*.=. .G v Z Z x V ",
"v.v.u.@.O.r.d.i.W U j.k.r.r.k.d.*.J + X # w OX|.W U E ! d.f.f.i.} m c E ) e.z.i.! ! %.%.Y / i.f.| G }  .o.o.o.o.o. .F Z Z G m V ",
"k..Xz.O.O.r.d.%.I T i.j.p.r.U U *.G = 7 9.<.: M d.g.j.v.i.i.f.f.$.K G G @. X}.i.i.i.W U Y ! / ' #.G > a @XOX%.$.T S  .~ L J G D ",
"$.g.u.u.f.i.d.d.! U d.k.i.i.M I  .H - 1.DXdX# 0 d.d.v.%.r.i.f.k.&.} m c G @.h.z.z.z.) ) ' / Q G K G , A &X*Xh.d.' ' %.+.| $.J S ",
"A J N }.:X+X|.+X|.OX%X|.Y / OX{. .J - :.mXNXb.5 A %.! ! d.i.d.d.O.~ m v c F @. X.X Xu.t.e.) ~ m C L l.OX+X%X%X%X&X*X! I d.i.A V ",
"b c s o.;X:X-X-X:X-X:XOXT Q @X*.} J - @ E.SXDX0.: E U T X.X.t.$...m A m b B { h.|.{.+.E H G G c Z } $X-X-X+X*X%X-X=X! Y h.f.T D ",
"A c > C oX;X;X;X;X:X:X&X@X*.*.} j a - @ 4.zXNXaX7.w q 0 < q ( } G C , Z ~ K a b } } m m a m { { v.+X-X%X-X+XW +.&X=X$XOXf.i.i.a.",
"A c > s @.oX-X-X-XoX@X{.{.*.#.{ B a = 3 8.3X4XHXBX6     X + V G v Z B A *.| x , } ..J G F L } #.g.%X&XOXOX@Xn I OXOX=X%Xr.r.a.v.",
"K Z 5 4 5 Z .... .} , j =...=. ...m = @ 8.3X3XMXNX2X1.4.5.2.= = = Z w T k.%.W E %.%.O.%.|.*.&.} a t.t.M n U ! ! n M &X&XX.X.f.v.",
"D j , s 5 B } K } ~ B G g.=.#.#. .F @ 4 8.4X4XpXBXcXxXxXAXpX<.+ @ : D / f.d./ ( j.k.f.z.+X|.*.#.j ~ +.) e.) X.) ) e.%X%Xt.r.a.' ",
"< > F J n W O.O.&.%.OX*X*X{.j s a ; 2.3X2X>X2XyXxXMXSXLXKXDXsXqX8.4 < X.f.r.! ! i.d.f.f.d.i.$.~ G J o. XXXXX}.XX.X.Xe.N z.z.+.T ",
"x a } | M W y.f.p.a.*X-X-X+XG a - 7 yXcXwX8.3XpXvXzXNXJXKXKXKXKXAX8.; b X.O.! / i.i.i.r.i.i.%.} G v m @.{.{.@.y.l.h.n b $.&.H V ",
"d.h.f.%.I U f.f.i.i.|.%X=X*XW < 6 qXvXMXuXeXuXpXzXhXMXLXKXKXKXKXKXBXb.< : E d.d.j.d.W W ! / $.{ G v v m G G G G G G F Z L F , < ",
" X.X}.i.T R f.k.i.i.+X%X=X+Xq ; E.NXNXmXcXmXcXMXxXxXNXLXKXLXLXLXKXKXDX7.$ q d.d.j.d.W W U / o.~ G c c v x v m A G A A L G Z > 4 ",
" XXXz.O.i.a.i.i.%.d.OX$X*XH $ P hXLXHXAXDXJXJXKXLXDXDXJXKXKXLXJXKXKXKXmX9.- S p.d.j.i.i.p.i.Q B 5 > , a , a ~ &.%.&.T S B C  .~ ",
"f.h.y.u.f.i.r.r.i.d.#X|.Q 3 ,.6XZXKXKXLXJXHXPXAXVXJXKXLXLXLXKXKXLXKXKXKXmX2.< Q X.i.i.i.i.&.L Z j j B Z Z A %.k.z.k.) ) U H {.j.",
"g.g.{. X}.i.r.r.i.d.%X~ : 7.0X0XnXKXKXKXLXnX9X,Xb.VXKXJXAXAXJXKXLXGXLXKXLXaX0.: 0 M Y Y S L *.=.=.g.=.%.j.j.d.r.y.h.y.f.O.d.+Xv.",
"| J ..h.f.f.h.u.z.y.h.- P hX9X<X9XKXJXKXLX9X<X2 ; UXKXJXBXhXNXLXLXLXJXLXKXKXiX; 0 W ' / Z j #.=.@.{.%.i.k.k.i.O.O.r.%.%.i.u.OX@X",
"5 > > j E x.XX X|.+.< <.iXhX6.-.4XHXAXDXGX6X2   $ UXKXJXpX3XzXHXKXKXLXJXKXKXeX+ ^  X Xf.B , , A T T I ( j.i.W W E Y Y / k.k.%.` ",
"w < < , v r.}.l.o.0 5 yXNXwX6 # 1.pXcXPXJXeX; @ 1.BXKXJXhXrXyXMXPXKXLXLXKXKXiX6 x o.g.+.s > a ) e.' U W j.j.W W U U ! ' p.%.| T ",
"} J F J ~ ..o.H - P wXNXvX6.k k 4 >.zXKXKXVXiXiXhXDXKXLXDXzXwXwXBXFXKXLXKXKXDXdXe + x A b x .. X Xi.M M h.j.! ! Y ! f.i.U A K A ",
"&.| | } ..~ } x X 7.AXSX6X8 >.4X7 # dXVXNXHXKXKXKXKXJXKXKXPXiX2XpXNXKXKXLXJXKXKXrX@ - Z A G ..y.h.h.N W h.j.! ! ! ! k.f.V a m S ",
"Y E ` ! M S n q + 4.MXxXE.8 >.2Xr q.w.n.2.yXLXKXKXLXJXKXKXJXcXwXwXmXLXKXLXLXKXKXNX8.3 0 ~ K F G @..X}.i.%.j.O.O.j.v./ ) x , A ' ",
"U U ' ' R U M 0 7 2XcXuX6.8 >.4Xn.q.q.9 X 5.JXKXLXLXJXLXKXLXNXyX5.yXJXKXLXLXKXKXKXxXk + S E m b L g.}.h.i.%.O.r.k.z.E V B B } v.",
"Y U a.k.h.+.- 7 3XzXcXuX6.8 ,.4XdXm.w.9 # 8.JXKXLXLXKXKXKXJXAX4X6 E.DXKXKXJXKXKXGXMXR.y # 0 #.L 5 5 F t.c.M r.d.) x.S a J h.}.f.",
"Y / i.d.f.( + 6 aXAXvXeX5.,.,.5.cXNXw.9   5.JXKXKXJXJXJXKXKXAXwX,.>.yXDXKXKXJXCXcXgXG.M.4 : Q | j > c | O.X.z.z.e.) F a  .|. Xp.",
"%.a.r.r.d.( = 6 zXcX4X2X2X8.>.>.9XmXw.9 X 5.HXKXLXJXJXLXKXKXNXuX2X8 6 sXKXKXCX[._.I.V.G.4X1.- Q j , ..*.|.:XXXXX@.J } y.{.f.W R ",
"&.s.y.r.&.S 4 7.aXpX2X2XqXwX6.8 3.dXm.e.:.wXJXKXLXLXKXKXKXPXBXuXE.8   qXJXKXjX).H.J.G.].AXwX* : A Z =.=.{.oX Xh.} v { XXXXi.T R ",
"$.j.k.i.0 3 9.zXcXuX2X>X4XwX2.2 X <.fXVXBXAXKXKXKXKXKXKXGXSXaX8.4   X rXLXKXjX(.H.J.7XDXFXgXd + b {.|.*.L K J J F x ..XX.Xr.I R ",
"' i.v.i.: 2 eXSXzXyX2X2X3X4X<.X   ; eXAXKXKXLXJXLXLXGXIXhX5X5.6 # + = 1.lXKXjX).U.[.CXKXKXgXG.y = [ {.g.Z x x Z C Z [ @.}.h.( _ ",
"Q ' / W : @ yXMXyX2X3X2XwX4X<.X @ 7 8 5.NXLXZXNXZXZXNXyXR.h * $ , a , > 0.VXjX`.[.CXKXKXJXgXZ.N.u = < x G b A K j j , s G u.}.s.",
"D ! q 0 5 2.uXzX2X>X3X3XyXuX6.X 3 2.X @ 8.eXqX4XtXtXE.4.S.i . ; o.o.H @ 3 mXCXkXCXKXKXHXbX].Z.C.Z.k 7 - Z Z L ~ A V j 5 , ( z.v.",
"D ! # + 0.pXMXpX3X>X2X3XiXMX8.X $ 1.<.7 3 $ 3 z l l z h Q.wX7 ; +X&Xg.; 3 iXHXFXHXKXKXCX[.Y.D.C.^.cXrX: : A w D ! ! |.=.> ,  .}.",
"] '   # 3XPXSXlXrXE.3.6.9.rX0.3 7 1.7.6 X   o t f d y y tXNX9.5 } @X{.V 4 4.lXJXKXKXKXCX'.K.J.^.kXLXaXs = 0 w q / / +X{.5 , G y.",
"' u.  @ >XSXPXlXrXR.B.* # 2 7 <.2.1.0.;.X % M.N.M.M.% # qXJXNX5.; : D ` K ; 1.cXLXKXKXCX'.H.J.8XFXKXjXS.% # # : U ! OX%X+X*.G J ",
"T X.  X 3.tXgX5XQ.F.N.u o o @ 6 2.2.;.3 O u N.F.F.y O > yXKXKXeX# ; T &.*.+ 6 xXHXDXKXCX`.U.[.SXKXMX].Z.d & p % < I |.%X=X|.G b ",
"5 a   . i G.G.G.~.!.D.N.f M.t # e ;.3 O y d h 7XyX3 % T.jXKXKXsX3 : i.a.q + <.lXAXNXGXbX(.[.CXKXCXQ.V.D.D.L.D.l = 0 U W / ! Z w ",
"< >   . d V.V.C.K.!.P.J.H.C.M.% ; 7 X o d S.R.qX1X;.l ).jXKXGXaX1.5 Q &.M : 7 E.pXBXDXbXkXCXKXFX].Z.C.U./././.L.g 1 0 D U U Q D ",
"Q G   o l L.L.L.P.!.L.L.D.V.V.M.% X   o d W.iX<.;.rX7X~.kXLXZXzXaX2.@ E p.p.> 3 2XZXMXMXDXKXLX7XI.Y.).).(.).P.P.L.g + A ] ] Y ] ",
"` }   o l !./.D.g A.K./.D.u f V.f %     1 5XxX@ # uX8X!.[.xXZXZXHXyX<.< Q X.Z ; k 3XxXPXGXPXkX^.K.).'.(.'.'.).I.A.g i j < w ! _ ",
"Q ~   o l /./.A.O & Z.P.A.O & V.C.f %   + >XlX6 # 9.5X!.T.eXNXKXKXPXyX6 = C B B 5 7 wXDXZX7X^.U.).(.(.(.(.(.(.F.% p D.i X + W _ ",
"Q L   o f K./.D.p & u Z.D.y % u V.N.&   X 7.zXwX2.6 i g 3.sXPXKXKXKXBX:.# a L | $.5 2.wX].T.K.Y.`.`.(.(.F.S.^.I.i i A.p . X / _ ",
"S H X . u C.L.!.D.i . d C.V.t o d M.&     4.MXJXaX7   # 2XHXKXKXKXLXvX:.+ m $X$XY q : * B.D.L.Y.`.(.(.(.z o A./.!.g o .   X f.s.",
"S Z ; ; & u g D.K.i . u C.f %   % u 1 + X 1.MXKXPXb.<.7.lXKXKXLXKXKXxX:.O ( -X*X! D n = y M.J.U.Y.^.).(.S.p p A.K.g         r.i.",
"Q J ~ ~ - o . t N.u . d M.&     . O a x + 1.BXHXKXPXIXDXJXKXJXKXKXLXhX:.$ *./ ! Y ! r.A O u V.V.V.L.!.`.(.F.* % B.d       X X.E ",
"' } %.k.I : < = t %   y t < b < + @ m G + 7.SXGXGXHXKXKXKXKXKXJXHXaX7.5 } {.U T ! Y i.X.0 = t t d Z.K.Y.).).l p t &   + - < ~ V ",
"T U a.f.i.a.i.S O . X . + x ..J Z F ~ S @ 1.BXMXxXBXAXFXFXJXKXLXAX5.@ E :X+X! ` i.i.f.i.M : O O % f V.N.D.P.P.A.%     n | K v V ",
"_ / i.i.k.i.%.( q 0 0 : : a x x A } i.+.0 P 5.Q.5XhXvXkX8XkXFXKXAX1.. +.-X}.! ! j.k.p.r.I n q < - & t t M.H.U.B.o     A K C x D ",
"a.k.r.i.f.i.I U a.i.) U M b > > 5 Q i.f.) 0 O u T.hXuX!.H.^.MXKXAX4.# n t.I n W i.d.d.r.Y ! d.d.W +   . u V.C.f o     > < > G ( ",
"k.d.r.O.j.i.U W i.k.W E X.N C s Z ) p.d.r.n X u V.^.W.W.T.T.].].5.7 - W t.W W W i.d.f.r.Y ( d.d.i.n - = % u u & . X = < ; > J s.",
"a.j.W ( i.i.d.y.f.d.U ( -X&X*.#.v N N ) |.H O u V.V.S.E.rXE.F.d + ; v [ @.XX}.i.j.k.i.X.M W %.y.f.i.B - + o O . X = Z B - > } z.",
"a.i.W ( j.d.d.d.d.d.E ( %X*X*.=.[ x.e.+.|.V % >.R.S.1 6 1XeXQ.g O , C c ..}.z.f.k.a.i.r.W ( %.r.h.f.V > = + : > : m ~ F - > ~  X",
"] ' T / *X$Xk.i.! ! O.i.W ( *.=.@X;X:X|.@XF # 1.2X>.X   :.3XwX5.,.k , , o.*.W t.z.p.r.r.O.i.j.j.k.z.^ v v G ~ $.r.+.| G Z x [ }.",
"] ! I ( &X$Xk.f.Y T y.r.T U *. .@X;X;XoX-X=.: 7 :.2 # $ 6 ;.<.:.P $.x , J K a X.{.y.f.h.y.f.k.k.a.i.~ G G } &.i.u.y.&.#.L F [ u.",
"I M $X$X/ / p.i.X.X.f.j.&..., , ..@XoX;X:X+Xl.> X   3 <.4 X X ; %.f.~ F [ }  .@.N t.XX}. X Xz.z.$.K G v a Q d.k.f.k.j.j.{.| v x.",
"M W %XOXU ! i.i.f.f.f.j.=.L , , J { |.-X-X+X*X+Xh.j.k.f.i.i.r.r.f.O.J F J .. ...c N }.}.h.}.u.r.H v Z J S / p.i.d.k.a.z.OX*.Q p.",
"t.t.R U d.d.X.r.#X Xx.t. .F #. .}  .@.{.t.}. X|.:X;X.Xz.t.t. X}.$.~ A x > j *.*.j , [ ..} } J G Z B K %.k.a.U M r.r.r.r.i.d.|.{.",
"' r.( / f.u.i.d.z.|.u.X.K Z J  ...} J J ..}.}.|.-X-X|.u.t.t.h.%.~ Z c C , F @X*.j > c Z B Z Z b C Z ~ j.z.i.W W O.r.X.%.p.z.{.$.",
"a C g.}.u.u. Xz.O.~ J ~ G v c Z v v B Z [ O.%.o.H H | ..} J B 5 v b Z K } #.K Q A Z J G A G Z Z c Z C ) z.f.r.r.W W a.j.j.z.{. .",
"5 5 j.#XXX XXXz.^ V V A D A Z V V V V D E ^ ~ Q V w H S A V 5 < V D D ` %.a.] ] _ ' ' ` Q Q Q D V V D t.#Xs.p.a._ _ a.a.v.v.v.' "
};
