/* XPM */
static char *char_up_64[] = {
/* columns rows colors chars-per-pixel */
"64 64 256 2 ",
"   c #010201",
".  c #020C01",
"X  c #0B0908",
"o  c #011401",
"O  c #061A05",
"+  c #16160A",
"@  c #181817",
"#  c #0F0D15",
"$  c #241C10",
"%  c #052806",
"&  c #023803",
"*  c #19271C",
"=  c #162C0E",
"-  c #25260D",
";  c #282916",
":  c #332B16",
">  c #2D341A",
",  c #2D3316",
"<  c #32351B",
"1  c #343B1C",
"2  c #39381A",
"3  c #291E2C",
"4  c #142E2A",
"5  c #272728",
"6  c #3A3922",
"7  c #373738",
"8  c #2D3335",
"9  c #1E1420",
"0  c #473B1B",
"q  c #523C19",
"w  c #453E22",
"e  c #6C3F23",
"r  c #024702",
"t  c #025602",
"y  c #044519",
"u  c #035517",
"i  c #165219",
"p  c #3B431D",
"a  c #36411E",
"s  c #036705",
"d  c #027602",
"f  c #136B19",
"g  c #194634",
"h  c #3D4421",
"j  c #3A463B",
"k  c #177423",
"l  c #2A792D",
"z  c #43451E",
"x  c #45491D",
"c  c #4A4B1E",
"v  c #4B451D",
"b  c #58481E",
"n  c #4F531E",
"m  c #64491E",
"M  c #6F521E",
"N  c #444522",
"B  c #4C4423",
"V  c #454921",
"C  c #4B4C22",
"Z  c #534C24",
"A  c #5C4B23",
"S  c #574827",
"D  c #4D5122",
"F  c #535424",
"G  c #5B5424",
"H  c #5B5B26",
"J  c #5D5B2A",
"K  c #575727",
"L  c #45443C",
"P  c #644C24",
"I  c #6A4D24",
"U  c #644D2A",
"Y  c #6A4D2A",
"T  c #654725",
"R  c #734B2A",
"E  c #6C5324",
"W  c #64542B",
"Q  c #6C522A",
"!  c #635C2B",
"~  c #665828",
"^  c #725426",
"/  c #73552B",
"(  c #735A2B",
")  c #7A5A28",
"_  c #744E31",
"`  c #6B5831",
"'  c #765933",
"]  c #6E4D33",
"[  c #5D6125",
"{  c #5E6029",
"}  c #64632B",
"|  c #6B642C",
" . c #6C6B2D",
".. c #646528",
"X. c #74652C",
"o. c #7C642C",
"O. c #716C2E",
"+. c #7D6A2D",
"@. c #7B6325",
"#. c #7A752D",
"$. c #6B6731",
"%. c #746532",
"&. c #7D6B33",
"*. c #786833",
"=. c #7A7634",
"-. c #6E702F",
";. c #3B3842",
":. c #423345",
">. c #284647",
",. c #394746",
"<. c #395653",
"1. c #3C6D49",
"2. c #47494A",
"3. c #555858",
"4. c #4E5256",
"5. c #4B7554",
"6. c #565363",
"7. c #615665",
"8. c #5B6666",
"9. c #587172",
"0. c #666967",
"q. c #6C7778",
"w. c #835D27",
"e. c #826D2E",
"r. c #886629",
"t. c #88752D",
"y. c #93762D",
"u. c #836D33",
"i. c #8C6D3A",
"p. c #876937",
"a. c #916E3B",
"s. c #857234",
"d. c #8A7434",
"f. c #837D34",
"g. c #8D7B33",
"h. c #86723A",
"j. c #8B743A",
"k. c #867B3A",
"l. c #937A36",
"z. c #946A2C",
"x. c #81581B",
"c. c #927541",
"v. c #018802",
"b. c #019C01",
"n. c #009304",
"m. c #0E8D16",
"M. c #01A401",
"N. c #00AD00",
"B. c #00B502",
"V. c #0DA818",
"C. c #12942A",
"Z. c #29882D",
"A. c #02AD2F",
"S. c #29B434",
"D. c #01C303",
"F. c #03C61B",
"G. c #02C637",
"H. c #08D836",
"J. c #08CD25",
"K. c #2FC93A",
"L. c #13E830",
"P. c #468A52",
"I. c #6A8776",
"U. c #5BAD61",
"Y. c #15D247",
"T. c #35CF4D",
"R. c #14EC47",
"E. c #3AFA4A",
"W. c #32ED49",
"Q. c #3ED768",
"!. c #46FF54",
"~. c #41F84C",
"^. c #4ED471",
"/. c #53D761",
"(. c #548539",
"). c #8A8439",
"_. c #988638",
"`. c #9B973C",
"'. c #918530",
"]. c #A48A38",
"[. c #A99339",
"{. c #AB8F35",
"}. c #A0A53D",
"|. c #9B8E42",
" X c #948A41",
".X c #9D9343",
"XX c #989445",
"oX c #8F9541",
"OX c #A68944",
"+X c #A19545",
"@X c #A49A45",
"#X c #A59B4A",
"$X c #A6994A",
"%X c #AA9E52",
"&X c #ABA34C",
"*X c #A9A744",
"=X c #B2AB49",
"-X c #B9B64C",
";X c #B6B552",
":X c #AEAB4C",
">X c #9DA240",
",X c #C6C357",
"<X c #767B83",
"1X c #8A7E93",
"2X c #788788",
"3X c #778E8B",
"4X c #7DB884",
"5X c #75CB97",
"6X c #62DD8A",
"7X c #838A8A",
"8X c #8C9C9C",
"9X c #859494",
"0X c #97999B",
"qX c #8A8D96",
"wX c #88B096",
"eX c #979AA6",
"rX c #98A7A8",
"tX c #99B1AA",
"yX c #ACBCBC",
"uX c #A5B4B3",
"iX c #ADB2B2",
"pX c #A496A7",
"aX c #C1BEBE",
"sX c #8ECAA9",
"dX c #A7CEB8",
"fX c #91ECAE",
"gX c #A6ECB6",
"hX c #81CC9C",
"jX c #B3BFC3",
"kX c #C2BECA",
"lX c #AEC3C1",
"zX c #B3C4C4",
"xX c #BBCBCB",
"cX c #B9C7C8",
"vX c #BFD3D1",
"bX c #B3F5C6",
"nX c #9ED2C3",
"mX c #C4C9C9",
"MX c #C4D3D3",
"NX c #CBD7D8",
"BX c #D6DADB",
"VX c #C6CAD4",
"CX c #CDF7D1",
"ZX c #D5D7E2",
"AX c #DDE3E3",
"SX c #DBE8EA",
"DX c #CEE1E1",
"FX c #E5EAEB",
"GX c #EBEDED",
"HX c #E3E5E5",
"JX c #E5F7EB",
"KX c #EBF6F3",
"LX c #F4F5F5",
"PX c #FCFCFC",
"IX c #F6FAF9",
"UX c #F2E8F6",
/* pixels */
"%.| %.| 6 w ` ` p.i.' R S N w B K S S ` %.p.p.p.z.a.' ` ~ ~ W S B C ~ p.c.c.p.p.i.a.a.p.e R OXc.2 : $.|.].s.p.u.R Y OX$Xp.p.' U ",
"} } =.=.z Z ` %.&.j./ I A B N h D V K | e.e.u.u.s.u.o.| ~ | ! Z x c ! g.c.j.e.e.s.d.j.u.m E $X Xp , J &.g.l._.y.) ) &X$Xr.| K Z ",
"< 1 N ` u.o.s.s.s.d.u.e.u.o.$.K > , =..X$X+X+X|.' ] s.s.u.u.| H 1 > C l.;X%XOX`.E m u.d.h.j.h.g.).).=.J z r.y.y.=X;X].l.| F V S ",
"6 h U ' g.d.j.j.u.&.u.s.d.s.=.$.h 6 k.:X&X$X%X$XY U &.s.g.d.e.~ 6 1 C l.&X|.OX`.P P +.s.j.h.u.u..X).=.F p H ( X.*X*X=.~ K B z B ",
"' c.s.t.e.+.u.u.E E u.d.e.e.j.h.=.-.f.`.&X&X:X#XE m T E f.s.X.0 # + 2 r.w.M u.u.I I s.u.Q Q s.s.| ! =. .}  .=.-.-.-.F c C V x B ",
"c.c.y.+.+.e.s.&.E E h.j.e.u.i.h.=.-.).*X.X.X.X_.^ T E ~ h.X.b 6 3.7 - v ) w.g.u.Q Y &.&.U / u.u.| F  . .-.O.-. .O.| D C Z Z c Z ",
"j.[.y.+.+.&.s.s.T T u.h.u.u.M I =. .`.*X) P m ~ s.s.h.c.e.A $ 4.yX7X5 - | ].l.s.&.u.E T Q Y / ) | F , h _. X&.%.U A | } H J G B ",
"%.g.g.y.g.u.s.s.W E s.d.p.e.I A  . .}.=X) A m ~ s.k.c.&.u.A + 7 xXdX8.; ; G g.l._.l.) ) / ' Q F J F 1 C #X#Xl.h.' ' *.O.X.X.H A ",
"F [ E y.:X+X|.XX_..X@X XI (  X). . .>X*X) E s.s.u.&.U U +.b * 2.yXvX8X;.X -  ._.[.].y.z.r./ ! n N K k..X@X@X@X@X$X+X` U s.u.A B ",
"v x p X.-X:X*X:X:X*X:X XT W  X=.}  .>X=Xw.Q &.s.u.' 0 : 0 : 3.8XyXxX8X,.  + H ).'.'.| ~ A F n x C } .X&X*X.X@X@X&X%X/ Y g.u.Y S ",
"C x , x }.-X-X-X-X-X;X#X).f.=.$.p D }.-X*Xj.P T o.A 9 X   ,.uXSXMXjX9X2.@ - 2 x } | H c x n { J =.XX&X*X&XXXE ( %X:X.X Xd.s.u.p.",
"Z x , a f.}.*X*X*XXX`.).).=.$.{ x x ).*X-X*Xo.Q Z : 9.<XXXpXAXIXFXMXtX3X8.6 + : } } H n D F } $.k.&X@X X X Xb P  X|.#X+Xe.u.p.i.",
"W C < > 1 C } } } } 1 h -. .-.-.} .. .=.*X,X&X$.< 3.mXGXGXLXPXPXPXSXMXMXvXq.8 : ~ &.o.#._.k.=.} x x.r.T A P Q Q b m &X$X@.o.i.a.",
"Z N 6 h 6 N } J } ! V F f.-.-.{  ...K K f.`.$.0 0.aXPXPXPXPXPXPXPXLXGXLXPXNX0XL 2 W t.l..X).=.$.V ~ @.) ) @.o.' ) ) @X+Xe.u.u.' ",
"1 , V K b I o.e.&.&.|.+XXX Xh a H H a > , , : 3.VXPXPXPXPXLXPXLXIXLXPXLXIXPXPX0X5 2 ) s.d.s.$.J F F  ._.{.].'.].{.].w.M l.l.o.W ",
"N h { $.I ^ t.u.s.h.$X&X:XXXK h  . .h > + O 0.iXLXPXPXPXPXLXLXLXIXPXPXPXPXPXPXBX2X7 : E u.u.&.` Z x H t.'.'.t.t.).k.b b %.*.G B ",
"s.g.d.o.T Y d.d.u.u.`.$X%X+X+.+.#.&.B ; @ 2.mXPXPXLXGXLXLXPXIXLXLXPXLXPXPXPXIXIXMX0.@ : S ^ O.{ F x n n F F F F F F D D K D > 6 ",
"].[.].u.T Y g.j.&.u.`.$X%X$Xt.s.g.u.0 @ 0.yXLXPXPXAXyXaXGXPXPXIXPXLXPXLXIXPXIXKXBXtXq.j : q X.{ F D x x x C C F F Z Z F F C > > ",
"].{.y.&.u.u.u.u.u.s._.+X%X%Xs.+.o.U : 3.mXPXPXPXPXNX7X8XBXPXPXIXLXLXLXPXPXPXPXAXMXMXMX8.# 0 U B 6 > a a 1 2 ! %.&.*.P A z N $.` ",
"d.).t.y.g.s.&.+.u.s.+X+X|.c.s.o.0 6 0.mXLXPXPXPXPXNX2X9XAXPXPXPXLXPXLXPXLXPXPXBXvXDXAX0.# 2 K C h h N C Z Z &.g.l.a.) ) P K  X=.",
"f.f.).].l.u.e.e.u.s.$X+XT I e.X.$ 7 mXPXPXIXIXPXPXMX9X8XHXPXPXIXPXLXPXLXPXPXIXAXvXxXjXq.5 : $.| -.=.*.=.h.&.&.s.t.s.t.s.e.u.|.c.",
"| H } g.l.d.y.g.g.l.@X[.^ ^ u.~ $ $ iXPXPXPXPXPXFXyX2X8XFXPXPXLXLXPXLXPXPXPXIXHXxXtX8X8XI.L ; C O.).&.u.j.j.e.+.e.u.e.u.e.g.|. X",
"6 , 1 p P z.].].]._.l.d.d.u.X.z ; 2.yXPXPXPXPXGXmXrX3XrXAXPXPXPXPXLXLXPXPXPXPXFXxX8X2XjXcX8.  $ A Y I ( j.h.E E E I Y / j.l.&.` ",
"w < < 1 c e._.).'.g.#.X.X.~ < ; 3.rXHXPXPXPXPXAXuX8XrXyXMXHXPXPXLXPXLXLXPXPXPXFXxX8X3XzXxX8.  0 w./ P E h.h.E E I U Y ' u.u.! W ",
"} H F F H ..-. .| ..F Z F N + 9 8XKXIXPXPXPXPXNX2X2XuXvXzXvXFXPXPXPXPXPXPXIXLXAXzX3X3XuXxX<X* b e.X.m M g.h.Q Y W Q h.s.T Z H Z ",
"*.| | } } ..} | ..H F C D 2 + @ 9XSXPXPXPXPXPXmX8.<.tXMXxXlXMXAXPXPXPXPXPXGXNXNXlX<X>.8XSXNX7X2.: P M E j.u.` Q Q Q j.d.B z n A ",
"E P ` Q T A P I u.&.} K Z V * * qXZXKXLXPXPXPXyX<.>.rXNXMXjXzXVXHXLXLXLXKXBXcXNXzX9.4 3XSXPXVX6.# G _.u.h.s.+.+.h.c./ ^ z < Z *.",
"T R ' ' ^ ^ m I h.h.%.| &.! - 9 qXZXDXBXKXPXPXuX>.>.tXDXvXlXzXxXVXNXMXNXNXMXxXSXxX9.4 <XFXPXZX7.X c _.g.e.*.+.u.j.l.E B N N ! c.",
"Y E p.j.g.s.I I h.j.T Q k.! - = I.nXlXNXKXKXcXq.4 >.rXNXMXxXvXxXxXxXxXzXcXdXyXzXtX<X>.eXKXKXwX5.% - 0 ) x.M &.h.w.r.P 1 H '.'.i.",
"Q / u.d.d.u.E Q u.d.Y ) : = r n.S.^.wXZXPXNX3.5 X 8 I.yXxXvXVXxXzXzXxXxXxXyX0X9.<.9.5XZXKXfXT.V.d % + v @.r.l.g.) @.D x  .]._.p.",
"*.i.e.e.s.h.h.i.d.u.I (   o d B.D.Y.5XAXPXaX9     9 ,.2XuXjXjXjXjXyXjXjXjXuX3X8 # 9.BXPXIX6XF.D.b.r o z `.=X{.{.t.H ..#.'.d.^ R ",
"*.i.t.e.s.h.h.h.s.u.I (   o s N.D.Y.5XDXPXmX@   5 7 # 8 <XuXeXeXeXeXeXeXeXtX8X7 . 4.DXPXIX6XF.B.n.r X 2 ).}._.g.} N [ ].[.u.P _ ",
"*.s.l.j.e.y.u.s.e.e.W '   + l T.T.^.sXZXUXmX3.4 7 ;.# = 4.P.5.5.1.5.5.5.5.9.0.8 # w qXZXGXgXQ.J.M.& + c K H H H C x ..[.[.s.P R ",
"' u.c.j.e.e.e.u.s.e.W `   3 q.dXzXlXzXVXMXcXyX2X<.>.3.<.f s t s s f f d f i * 5 7 : 8 qXFXKXbX^.V.r + C F z z C C C [ #.'.d./ R ",
"U ' ^ ^ u.u.+.s.#X&XXX X  @ I.dXdXdXzXjXcXNXKXuX>.4 9XwXP.f k Z.l k f d f &   5 2.3   0.AXPXPXbX^.P.7 : 2 C C K h 6 1 a F y.].c.",
"S Q I E p.s.u.u..X X=.-.  O k S.T.Q.sXVXVXNXKXrX>.>.rXdXdXwXtXtXtX4XI.9.I.8   5 2.5   0.AXPXPXPXGXAXeX,.X C K ! Z B N a 1 Q l.c.",
"S Q T E u.u.l.j...n , ,   o t M.B.Y.sXVXtXwXwX3X<X3XVXUXSXZXNXZXZXjXrX8X7X8.5 5 8 @   q.HXPXLXJXCXCXsXj . F h A Q Q ).-., 1  ._.",
"] ' ) ( ).j.p.$.F c > 1   o s M.B.Y.nXzXU.Z.i 0.jXUXPXUXSXNXvXxXvXVXjXrX3X<Xq.,.@     0.HXPXKXfXT.K.C.=   ! P R ' ( @X).6 1 n d.",
"_ y.].[.,X;XC , C H N Z   % l /.^.6X5XU.V.s % 2.sXbXgXsX3XqXyXvXxXNXvXlX8XrXrX2.    & wXLXPXJX6XB.B.v.&   *.s.e.^ ^ .X@XXXk.F H ",
"G @.'.'.;X*Xp 1 F | ` '   ; I.DXMXsXU.V.b.v.4 g Z.T.W.C.* 2.rXDXxXxXvXxXzXlX8X:.X & A.5XJXPXJX6XJ.B.v.&   s.g.u.Q E _.@X&X).F v ",
"w a H H p p V F X.#.s.e.$ : 7.pXuXU.V.n.n.d g y d V.W.Z.. 3 rXDXuXrXrXlXNXeX8.8 i C.R.!.gXFXIXbX^.V.n.&   s.g.s.u.u.( E / Q C N ",
"6 , z p = , Z w.y.t.d.e.T 0 $ * l V.M.b.b.m.g g v.T.JXuX@ 5 rXMX3X<X<XuXxX<X9 i K.W.E.H.Y.fXPXPXCX/.v.&   s.h.s.u.u.E T I I U S ",
"J F p 1 ; 6 *._.y.e.h.&.T b + o d N.M.b.b.d 4 % r Z.rXqX6.4.3XuXrXrXrXzXjX6.X t W.!.~.L.H.^.gXKXPXgXP.y    XI U s.d.u.o.] ] W ] ",
"` ! 2 < > h f.[.y.e.u.p.E A $ o s M.M.M.M.d % X 4 4 >.9.rXrX9XrXAXFXSXNX8X:.  f W.!.E.E.L.H.T.fXPXPXuX,.  |.( ( u.u.s.s.' ' Q _ ",
"` ! 1 1 h F #.[._.u.u.u.d.*.b - r s n.B.N.d . # 6.9.>.<XxXMXiXmXPXPXPXaX3.* y C.W.~.E.!.~.L.J./.fXGXVX7.  #X#X.XQ T e.d.f.e.Q Y ",
"~ H 2 1 D F  .'.l.l.d.j.h.u.#.~ - % d B.B.s X 3 qXMXjXyXlXNXFXPXPXPXUX0X9 % A.R.W.~.~.W.E.E.W.H.Y.fXkX7.  #X$X.X/ I u.u.e.+.( _ ",
"A F F G n F F [ #.].[._./ I b m q - & v.N.d . 3 eXKXFXAXNXGXPXPXPXPXPXpXX & H.E.E.K.k S.W.!.~.L.F.Q.U.2.  #X@X.Xd.s.d.e.I Q s.a.",
"A C H | | ! F F X._.].g./ ^ M ) M b + & v.v.O 3 8XKXIXPXIXPXPXPXPXPXPX0XX % A.R.W.Z.X f K.!.~.L.G.J.m.=   @X.X.Xd.s.u.e.Y / u.u.",
"W K $.p.e.o.X.| | | J } +.].{._.G p < = & r   8 rXIXPXPXPXZX0XiXPXUXpX3.u r u k k i i S.E.E.R.R.G.n.r , 0 s.#.u.Q E I ^ d.j.+.W ",
"%.! *.j.d.u.y.u.%.! Z F  ._.{.l.h , C c - O X 8 0XFXKXKXIX8X5 2.FXiXw & v.s O   O k T.~.W.R.G.H.G.u o 2 s.g.d.u./ ^ Y ^ d.u.J B ",
"U U u.j.h.d.d.d.&.X.X.! b G  ...F F ! %.A 0 $ : 3.I.hXfX6XP.  O ^.0.X o t f f i k K.!.K.l C.G.H.A.r . ; k._.y.z.]._.l.g.&.} C B ",
"] ^ u.d.h.d.o.u.u.d.t.w.n p x p F ! u.i.j.u./ S - y A.R.R.k O % b.d O   o f W.E.~.~.E.k . y G.J.b.r X + J g.r.o._._.l.s.J V x Z ",
"i.g.e.&.j.u.T I h.h.( E m v < , 1 U s.g.u.s.#X=., % v.J.Q.P.@ . r i 5.3 X i R.E.E.K.k y u V.F.m.t = , 2 , x H [ [ ..J F < , F ' ",
"p.s.r.+.h.u.E E u.s.E E ) ( N 1 z ) u.u.u.j.#X=.- O m.K.dX8X5   X 7 q.3.X y A.R.G.u # u A.F.n.r O q ! x , , z c C V C z ; 1 H i.",
"i.s.Q ( u.u.s.s.g.d.P ( &X&X=.$.c x.M ^ +X+X&X=.X = 1.4XxXqX5     3 2.7   . y u u & r n.F.V.& - 0 u.B , - , D K F n F C ; , } l.",
"p.h.E ( s.s.s.s.s.u.P ( &X.X=.-.[ y.w.@.+X@X#X*.+ 5 9.8X9X3.#   X       . . .   o r n.B.n.r + z u.g.B , , 1 J | | ! ! C , > ! ].",
"] ' T ( $X+Xj.s.Q Y e.#.R ( =.-.>X;X*X`..X`.~ A Z < :.2.7 5 X + 0 : . O t s t t t t t t r = B ( g.a.} c C F ! o.+.@.! K V z [ l.",
"] Q U ( $X+Xj.s.Y U e.s.I P =.-.oX:X:X}.@X.XP P e.W $ + + . X : u.A X & n.M.n.b.n.t . . + v u.h.s.&.! F F } %.u.t.t.*.| K F [ l.",
"T m +X+X^ / s.s.o.%.j.s.=.{ 1 1 ..oX*X-X;X$X|._.o.( A w 0 0 v E d.m + O r t t t t - m b m t._.l.%.W F C h P h.h.g.j.h.j.).| n z.",
"P M +X|.Y Q e.p.u.y.d.i.-.K 1 1 [ ..).*X#X.X@X@Xg.d.d.s.p.u.e.u.p.0 .             - '.'.'.y.g.e.K C D J A / u.u.i.h.j.l. Xk.W w.",
"p.r.I U i.u.&.e. XOXz.r.| Z $. .}  .#.).e._.]._.-X-X].y.x.z._.l.&.2 X             = H ..} { H K C V J *.j.u.I I e.t.o.u.u.s._.).",
"( r.) ( g.y.e.p.l._.y.r.J C { } } } H H .._._._.*X*X].'.r.e.l.#.W c x C a D  X=.h > N C C B v C z C ! h.l.u.E ^ @.e.&.u.d.l.).%.",
"p V h._.y.'.].l.&...H [ F c c V x c N B [ #.#.O.P K | } } [ h 6 c c D K } %.W K G B F K C F Z C c C V ) l.j.s.e.E Q *.p.p.l.).$.",
"6 6 u.$X{.y.{.l.( B q Z Z Z Z C Z B B Z W ^ ` J B N A Z S B 6 6 q Z S ` &.p._ ] _ _ %.` W Q U Z B B B r.].a.p.p._ R c.p.c.c.c.*."
};
