/* XPM */
static char *_097204ce3964844f8bfbda21ebcd49dpPJrLn7Cw9p5mwQ8[] = {
/* columns rows colors chars-per-pixel */
"32 32 224 2 ",
"   c #252A13",
".  c #2B2C15",
"X  c #242814",
"o  c #332B15",
"O  c #2C3215",
"+  c #2B3319",
"@  c #333315",
"#  c #33351A",
"$  c #3C3319",
"%  c #343A1B",
"&  c #3B3B1A",
"*  c #363817",
"=  c #20260F",
"-  c #383922",
";  c #423D1B",
":  c #4B3B1C",
">  c #473419",
",  c #533D18",
"<  c #5D2306",
"1  c #403D21",
"2  c #793B30",
"3  c #3B451D",
"4  c #3D4321",
"5  c #44441E",
"6  c #4A421D",
"7  c #4A4A1E",
"8  c #46491E",
"9  c #5C431C",
"0  c #54481F",
"q  c #56471C",
"w  c #52531F",
"e  c #71501C",
"r  c #424424",
"t  c #4C4C22",
"y  c #494723",
"u  c #534422",
"i  c #5A4523",
"p  c #544C25",
"a  c #5C4C23",
"s  c #5C4C2B",
"d  c #564A2D",
"f  c #535424",
"g  c #5A5B25",
"h  c #5B552B",
"j  c #5E5C28",
"k  c #595724",
"l  c #505135",
"z  c #644B24",
"x  c #6A4C24",
"c  c #6A4D2A",
"v  c #634826",
"b  c #714A23",
"n  c #645324",
"m  c #6C5423",
"M  c #63552C",
"N  c #6C522A",
"B  c #635D2C",
"V  c #6D5A2C",
"C  c #655C24",
"Z  c #725525",
"A  c #775828",
"S  c #6A5332",
"D  c #725332",
"F  c #785B36",
"G  c #664C30",
"H  c #5D6125",
"J  c #5E6028",
"K  c #65632B",
"L  c #6B642E",
"P  c #676727",
"I  c #73642C",
"U  c #746B2E",
"Y  c #7E6A2D",
"T  c #7A642D",
"R  c #76742D",
"E  c #6B6331",
"W  c #6B6A30",
"Q  c #6A6338",
"!  c #7B6533",
"~  c #7D6A31",
"^  c #746935",
"/  c #7A7334",
"(  c #7B7835",
")  c #2A0158",
"_  c #360A56",
"`  c #4C1C4F",
"'  c #562348",
"]  c #511162",
"[  c #58585E",
"{  c #715F46",
"}  c #6B6556",
"|  c #6D6A4C",
" . c #716F72",
".. c #963D02",
"X. c #944003",
"o. c #AD4E08",
"O. c #B0651E",
"+. c #825A24",
"@. c #975325",
"#. c #A65E20",
"$. c #826D2D",
"%. c #88732F",
"&. c #95782D",
"*. c #836D33",
"=. c #836D39",
"-. c #886835",
";. c #857234",
":. c #8A7434",
">. c #85713A",
",. c #8B743A",
"<. c #8A7A36",
"1. c #937837",
"2. c #946E33",
"3. c #C36609",
"4. c #C56809",
"5. c #CB6E08",
"6. c #C96905",
"7. c #CE7405",
"8. c #DA7C07",
"9. c #CB7917",
"0. c #CA7423",
"q. c #8F6A53",
"w. c #9B852B",
"e. c #8E893A",
"r. c #8A823A",
"t. c #9C823A",
"y. c #948D3D",
"u. c #988638",
"i. c #98993C",
"p. c #A38939",
"a. c #AA963B",
"s. c #B19238",
"d. c #A4A93B",
"f. c #D88404",
"g. c #DC9D00",
"h. c #E98D06",
"j. c #ED9504",
"k. c #F59B06",
"l. c #F99F05",
"z. c #F29508",
"x. c #F59807",
"c. c #DFA600",
"v. c #FBA205",
"b. c #FFAB02",
"n. c #FAA506",
"m. c #F5BC00",
"M. c #FFB602",
"N. c #F6B708",
"B. c #F6A622",
"V. c #F9C400",
"C. c #FDCA07",
"Z. c #FFD50C",
"A. c #FFDC0C",
"S. c #F8D800",
"D. c #FFDE11",
"F. c #FFE113",
"G. c #FFE21C",
"H. c #FFE529",
"J. c #FFED3C",
"K. c #86854B",
"L. c #9A8E42",
"P. c #938941",
"I. c #9B9246",
"U. c #A49A46",
"Y. c #A99D4C",
"T. c #A69B4A",
"R. c #A89650",
"E. c #ACA44A",
"W. c #B4AC4C",
"Q. c #BDB94F",
"!. c #AFAB4D",
"~. c #8F8E77",
"^. c #F7BA5B",
"/. c #D4975F",
"(. c #CBC75F",
"). c #FFE64B",
"_. c #FFE646",
"`. c #FFF044",
"'. c #FFF75A",
"]. c #FFEE52",
"[. c #FFCE78",
"{. c #FFFE75",
"}. c #FFFF78",
"|. c #F5FF6A",
" X c #637595",
".X c #53668E",
"XX c #A82694",
"oX c #9206B5",
"OX c #7E8C97",
"+X c #7F8D9D",
"@X c #7B92A2",
"#X c #83919B",
"$X c #878981",
"%X c #A0948C",
"&X c #A8A595",
"*X c #8996A0",
"=X c #9AA5AD",
"-X c #ACACA2",
";X c #B4B1A4",
":X c #BAB8AF",
">X c #BABAB2",
",X c #C4BEB5",
"<X c #FDFF8A",
"1X c #FEFA88",
"2X c #FFF195",
"3X c #FFEC91",
"4X c #C3C3B5",
"5X c #FEF9A4",
"6X c #FFF7BD",
"7X c #FBD290",
"8X c #BDC5CA",
"9X c #CCCCC6",
"0X c #D5D3CE",
"qX c #D8D6CE",
"wX c #D1D2D0",
"eX c #FEFFC2",
"rX c #F8E9D8",
"tX c #E0E3E6",
"yX c #ECEDEA",
"uX c #FDF6E9",
"iX c #F2EFF4",
"pX c #FEFBF3",
"aX c #FFFFFF",
"sX c #FCF6F1",
/* pixels */
"! E $ S ! F i 1 h p ! -.2.F m M r p G : ,X0X%XV . h p.-.c R.-.F ",
"# y *.;.>.*.$.^ + ( U.R.D *.*.L @ & E aX^.).uX9Xk B 5 &.W.p.V y ",
"F *.$.*.Z *.$.,.( ( E.E.m z <.$.y @ { rXj.M.D.aX> j j R R f t 7 ",
",.u.~ ;.x *.*.b / i.A z ;.>.Y ! u @ aX0.k.m.F.aX& = r.~ v L k f ",
"p C !.L.L.U.c P.W d.A ~ ;.N T m 6 -XsXh.x.Z.3X:X. B y.U.T.N ;.p ",
"p + d.Q.Q.W.e.( 4 i.E.z T F n 6 -XaX5.k.v.m.A.pX| / I.m Y.I.:.~ ",
"h # - K W % R W P P !.!.e.n q -XaX5.k.x.A.n.F.2X~.9 u c i Y.T :.",
"# t 0 Y ~ I.I.4 f 3 O y.y.C -XaX5.k.x.A.j.F.C.aX. t t.w.a.+.1.I ",
":.<.v :.*.i.Y.~ ;.p # +   -XaX3.v.x.A.j.F.V.b.6X} * w f f t k % ",
"t.&.*.*.*.y.Y.:.:.V 5 # - uX4.7.b.A.f.D.V.n.F.3X$XX O B ~ h 8 K ",
"<.r.1.$.;.E.z *.2.r.5 ; aX/.4.b.g.m.7.j.n.F.Z.aX3 p ! ;.%.:.$.L.",
"& # n p.p.1.2.~ g % & u aX0.4.n.7.k.f.3.A.Z.sX:X$ , =.m m c <.! ",
"L f H U P k f t 8 k V q ;XrX4.5.5.j.5.c.x.uX>X& A q <.N c >.z g ",
"z S a z ~ K f g 8 H C : ;XaX/.4.o.F.A.7.aX>X# o g 1.*.$.>.A r f ",
"c *.1.x ,.v Y.B p n 9 ,XpXB.v.h.C.A.'.<XG.eXaX&   8 e *.A a g u.",
"! *.>.>.;.x E.~ f y 4XpXk.k.k.z.D.A.{.<XA.1XeXaXX t e.s.%.H u.m ",
"! ,.%.;.Y c U.e.f & aXk.k.k.k.x.F.D.A.D.D.J.{.2X4Xj t k t P a.z ",
"s Z *.Y U.I.r.* t wX7Xv.k.k.k.b.D.D.D.D.F.A.1XA.aX$ & y 4 % k t.",
"s v ~ ,.K % + L o aXn.' 2 v.k.D.D.D.D.D.D.A.1XA.aXl * & N e.+ P ",
"D p.(.t t r u U Q sX` _ _ f.k.A.D.D.D.D.A.F.{.`._.9X; I m L.I.f ",
"1 g 3 r I ;.z : d iXO.) ` l.O.A.D.D.D.D.D.D.{.`.).9Xp T ~ A N t ",
"v 3 + U &.:.9 > d iX@.n.#._ ` oXN.D.D.D.D.A.}.`.).0XE u ;.*.S N ",
"V % 5 R u.=.~ C u aX) _ ' b.b.XXoXF.D.D.D.D.}.H.pX~.W P.x *.%.N ",
"s f f k ~ s.N : , aX[.9.v.' ) 0.XXG.D.D.D.A.<XA.pX> ^ L.<.:.x ;.",
"M E $.I L j L %.$ # aXk.v.) _ ] F.D.D.D.D.A.{.2X4X$ Y ~ N x <.Y ",
"G ~ :.:.Y V ; 5 . o qXrXl.9.' v.F.D.D.D.D.'.5XaX  = U 2.u.1./ t ",
">.$.,.x ~ v > # aXaXtX#.o.l.l.k.Z.A.D.D.F.].pX;Xu 7 O H J J @ f ",
">.Z *.*.! > Q aX*X#X@XX.X...8.h.v.F.F.C.f.J.H.aXa & . w k f   B ",
"D v T.<.s 0 0X=XOXOXq.X.< x.k.V.V.m.m.G.A.|.sX;Xs k y B Y L y H ",
"v U.c *.m a &X8XOXOXq...X.x.Z.G.D.D.S.d. XwXaXa p 7 3 ;.,.>.r.7 ",
"-.b =.T <.Z & aXtX#X#X[ } K.>.K..X X#XtXaXyX& & ; h :.x $.$.*.y.",
"3 ;.w.w.I w & . -XaXaXaXaXaXaXaXaXaXaX:X@ @ & 5 5 8 t.*.m *.*.r."
};
