/* XPM */
static char *a7ca53e7cbe44e49fdcedfecdbfde5f55OqEGNoTfCHihx9I[] = {
/* columns rows colors chars-per-pixel */
"64 64 256 2 ",
"   c #1E2411",
".  c #1D220F",
"X  c #2B2D14",
"o  c #252914",
"O  c #322D17",
"+  c #2C3216",
"@  c #2E341A",
"#  c #273018",
"$  c #323415",
"%  c #33351A",
"&  c #343B1B",
"*  c #3B3C1B",
"=  c #3A3617",
"-  c #20260F",
";  c #393922",
":  c #191D0E",
">  c #433C1C",
",  c #4B3C1C",
"<  c #463518",
"1  c #523D1A",
"2  c #4A2B17",
"3  c #6F2C04",
"4  c #463C23",
"5  c #583729",
"6  c #6E3335",
"7  c #5C1B06",
"8  c #3C431C",
"9  c #35411D",
"0  c #3D4321",
"q  c #43441D",
"w  c #4B421D",
"e  c #4A4B1E",
"r  c #45491E",
"t  c #57461D",
"y  c #53521F",
"u  c #6A4E1D",
"i  c #444522",
"p  c #4C4322",
"a  c #4B4C22",
"s  c #454A21",
"d  c #524523",
"f  c #534C24",
"g  c #5B4C23",
"h  c #594829",
"j  c #535424",
"k  c #5B5425",
"l  c #5B5A26",
"z  c #5B552A",
"x  c #5D5A29",
"c  c #565925",
"v  c #514D30",
"b  c #644B24",
"n  c #6A4C24",
"m  c #6A4D2A",
"M  c #644A29",
"N  c #724B2A",
"B  c #645424",
"V  c #6C5324",
"C  c #64542B",
"Z  c #6C532A",
"A  c #625D2A",
"S  c #6D5C2C",
"D  c #665C25",
"F  c #73552A",
"G  c #745B2C",
"H  c #775927",
"J  c #744D31",
"K  c #6A5831",
"L  c #765933",
"P  c #6A4D32",
"I  c #5D6126",
"U  c #64632B",
"Y  c #6B642C",
"T  c #6B6B2C",
"R  c #656428",
"E  c #73642C",
"W  c #7B652C",
"Q  c #726C2E",
"!  c #7D6A2D",
"~  c #776426",
"^  c #7A762C",
"/  c #6B6733",
"(  c #746432",
")  c #7B6533",
"_  c #736C32",
"`  c #7D6A32",
"'  c #796A39",
"]  c #7A7734",
"[  c #2B0158",
"{  c #2B0356",
"}  c #370A56",
"|  c #3F1153",
" . c #4D1D4F",
".. c #4D1B55",
"X. c #562348",
"o. c #501966",
"O. c #58574E",
"+. c #71534B",
"@. c #696756",
"#. c #726D55",
"$. c #75756B",
"%. c #5E5A73",
"&. c #993C01",
"*. c #A13E00",
"=. c #954407",
"-. c #A54201",
";. c #B15106",
":. c #B36719",
">. c #915927",
",. c #826C2E",
"<. c #89692B",
"1. c #89752E",
"2. c #95772D",
"3. c #836D33",
"4. c #886A38",
"5. c #926E3B",
"6. c #857234",
"7. c #8A7435",
"8. c #8C7A33",
"9. c #85723A",
"0. c #8B743A",
"q. c #867C38",
"w. c #937937",
"e. c #92682B",
"r. c #B06224",
"t. c #C46609",
"y. c #C56809",
"u. c #CA6B06",
"i. c #CC7404",
"p. c #D77907",
"a. c #C87718",
"s. c #D07617",
"d. c #CA7423",
"f. c #917147",
"g. c #B65249",
"h. c #AE3677",
"j. c #8B833C",
"k. c #898437",
"l. c #988639",
"z. c #98963B",
"x. c #9B852B",
"c. c #A58938",
"v. c #A99539",
"b. c #AC9035",
"n. c #9DA23E",
"m. c #B0A72E",
"M. c #DA8506",
"N. c #D88B0B",
"B. c #E58C09",
"V. c #EE9306",
"C. c #E89603",
"Z. c #F59B06",
"A. c #F99E06",
"S. c #F29508",
"D. c #F49807",
"F. c #E49118",
"G. c #E8A800",
"H. c #FCA204",
"J. c #FCA805",
"K. c #FFBD06",
"L. c #FAB603",
"P. c #F7B20F",
"I. c #F3A82D",
"U. c #DB9025",
"Y. c #FBC402",
"T. c #FFCC0C",
"R. c #FBC603",
"E. c #FFD40C",
"W. c #FFDC0C",
"Q. c #FAD802",
"!. c #FFDE11",
"~. c #FFDF1B",
"^. c #E4C909",
"/. c #FFE114",
"(. c #FFE11A",
"). c #FDCD32",
"_. c #FFE629",
"`. c #FFE93A",
"'. c #FFF03E",
"]. c #9B8E42",
"[. c #958942",
"{. c #9C9344",
"}. c #9B9643",
"|. c #868549",
" X c #A19545",
".X c #A49A46",
"XX c #A59B4A",
"oX c #A79A4A",
"OX c #A79049",
"+X c #A9A547",
"@X c #BAB64C",
"#X c #B1AC4D",
"$X c #8D8972",
"%X c #A6A961",
"&X c #F0B353",
"*X c #DEAA77",
"=X c #E7B670",
"-X c #CF9F58",
";X c #FFE64C",
":X c #FFF146",
">X c #FFF95E",
",X c #FFF656",
"<X c #FFEA57",
"1X c #FDC971",
"2X c #FEFA64",
"3X c #FFEC77",
"4X c #FFFE75",
"5X c #FFFF7A",
"6X c #FFEB68",
"7X c #E3C45E",
"8X c #677895",
"9X c #55678D",
"0X c #9406B6",
"qX c #A41CA6",
"wX c #A82498",
"eX c #7E8C97",
"rX c #788998",
"tX c #7E909D",
"yX c #7C90A1",
"uX c #899191",
"iX c #ABA89A",
"pX c #909DB0",
"aX c #8998A3",
"sX c #98A4AE",
"dX c #9EA8B0",
"fX c #ADACA3",
"gX c #B9B6A9",
"hX c #B5B5AE",
"jX c #A19990",
"kX c #E3B689",
"lX c #CEB8A8",
"zX c #EFC896",
"xX c #FDFF84",
"cX c #FDFF8B",
"vX c #FFF08E",
"bX c #FFF394",
"nX c #C5C3B9",
"mX c #C2C2AE",
"MX c #FEF8A8",
"NX c #FEF3BD",
"BX c #EACBAE",
"VX c #B7BEC3",
"CX c #BCC4C9",
"ZX c #CCCCC8",
"AX c #D1CEC9",
"SX c #D5D3CC",
"DX c #D8DAD9",
"FX c #CCCCD8",
"GX c #FCF0D0",
"HX c #E4E6E6",
"JX c #FCF7E8",
"KX c #FEFBF3",
"LX c #FFFFFF",
"PX c #F6F5F4",
"IX c #F4EEEF",
"UX c #EBD9C6",
/* pixels */
"( / ( Y ; 4 K K 4.4.J N h p 4 i z f f S L 4.4.4.5.7.L S V C C h i p g V P d 4 $XnXSXSXAXjX2 C C o o C f.c.4.4.4.m N OXOX5.<.L M ",
"U U ] _ q f / ( 3.9.G n g a i 0 j a j Y ! 1.3.9.<.6.E S Y R x j q 8 e B k p gXLXLXLXLXLXLXnXk k X o j ^ 1.8.x.8.H H XXoX~ E z v ",
"% & s L 3.! 6.6.6.4.3.! ` ! / c + + ] XX.XOX X].L J 9.6.4.3.~ j $ # * b T $XLXKX&X).;X;XJXLXAXd k l x c q <.2.1.#X@Xc.w.E j s d ",
"; 0 g L 7.7.0.7.3.,.3.6.7.6.9./ 8 9 #.#X+XoXoXoXm M ,.9.7.6.! D % # % b A SXLX*XS.Z.R.~.`.GXLX$Xx U z a 9 B G T +X+X] R z e q p ",
"L f.1.1.,.! 6.3.V V 6.0.,.6.0.9.] _ ] n.+XXX+X.Xm t b V 7.6.,.S e = $ 1 +.LXGXU.V.S.L.!.!.6XLXgX< * l A l T ^ Q ^ T j a a s r d ",
"f.[.8.,.! ,.9.3.V V 3.9.,.,.0.6.] T k.+XXX]. Xz.G n V Z 6.6.,.E f = X O nXLXkX:.V.A.S.T./.6XLXgX* * y A T Q _ Q T Y j r a j e d ",
"7.b.w.! ` ,.6.` b M 3.9.4.,.n n ] T }.m.H n b B 6.6.9.9.` ! ) G t & O fXLXGXd.p.Z.S.K././.3XLXiX> $ o & k.[._ ( g h Y U c z c f ",
"( 1.1.2.7.3.6.6.Z n 6.7.3.,.n b _ _ n.+XH b b V 6.q.9.4.W E E C d * O LXLXBXu.F.A.S.R.(._.KXLX#.$ $ X q {. Xw.9.L L ` _ Y E l g ",
"k c D 2.#X}.{.}.].z.+Xl.m G [.j._ T n.+XH V 3.3.6.3.Z m W S B g , $ fXLXPXa.B.A.Z.J.E.R.vXLXhXo # % I q.].}..X.XXXXXZ M 6.3.f p ",
"w e 8 Q @X#X+X+X+X+X+X].g C [.] I T n.#X<.V ] 6.6.3.b M G V t , = #.LXKXkXp.A.Z.S.L./.C.3XKXLXhXX 0 / j.[.}.}..X+XoXL N 8.6.m h ",
"f r + r n.@X@X@X@X#X@XXXj.] ] / 0 a n.@X+Xj.b n W W ( G B g p = fXLXLX*Xu.V.Z.Z.A.!.L.M.!.3XKXLX@.A ] k.}.}.V H oX%X Xl.6.6.) 4.",
"f r X 9 k.n.+X+X+X+X[.j.k.] / I r r k.+X#X+XH F ` Q G C g w * #.LXLX*Xu.V.A.Z.S.K.W.C.G.!.!.bXLXjXD Q _ j.f.t b [.{.oX.X,.,.4.5.",
"z a @ @ & a U U / U & 0 ] I T T R R T ] #X@X#X[.j.q.z d t w fXLXLX*Xy.S.H.S.D.K.W.C.H.W.!.!.vXLX$X1 t 1 d b m m t b oX+XW ! 7.f.",
"v i 0 ; ; i U A U A s j ] ^ / T T T c c ] n.XX}.l.k.D t , fXKXLX*Xu.V.H.Z.S.Y.W.C.J.!.!.!.;XJXLXO.$ 1 u V ~ H 3.>.H .Xz.,.<.3.L ",
"% + a c e V ! ! ) ` ].{.+X|.0 9 c c 9 + 9 9 z.n.k.^ D t fXLXLX*Xi.S.Z.Z.S.K.W.M.G.!.!./.T.zXPXnXX $ w ! l.c.x.x.c.c.>.H 5.w.W M ",
"i 8 U Y b H <.1.4.9.oX+X+X}.I 0 T T 8 9 - # T ^ ^ I t $XLXKX*Xp.S.Z.Z.S.R.W.i.C.!.!.~.R.U.NXLXHX* X 8 D ^ ^ 1.^ k.k.t e W _ l p ",
"6.8.7.) b m 7.7.3.3.z..XoXoX! Q 6.` f & @ # + X - - fXLXLX*Xt.p.H.Z.V.K.W.M.C.!././.Y.M.L._.NXLX@.+ $ q e j j j j j a a j j @ % ",
"b.v.c.,.M n 7.0.3.3.c.XXoXoX6.1.7.6.C ; & X   . : fXLXLX*Xt.p.D.S.S.K.W.M.p.T././.R.p.H.E./.vXLX$X+ + = * q e j j f z j c s @ % ",
"l.b.w.! 3.3.3.3.3.6.]..X%XOX4.,.6.3.E j i & % % 4 LXIX*Xt.t.i.D.L.T.Q.M.M.L././.Y.M.H.E.~.W.vXKXuX. - + % * A ( ` ' M g w q / U ",
"0.8.2.1.w.4.! ,.3.3.]..X].[.6.6.2.3._ z q * > > fXLXGXt.t.y.p.L.!.G.i.;.V.H.W.R.p.A.E.W.~.`.GXLXO.o + q w a ' 7.w.0.H H u x |.9.",
"q.k.k.c.w.9.,.,.6.6.XX}.b n ,.6.2.6.j.T q q 4 p LXLX-Xt.t.u.L.!.C.p.G.R.M.M.C.M.H.E././.R.7XLXDX= y j S ( ` 3.6.6.8.6.6.! 6.{.w.",
"U c U 8.8.7.2.8.8.w..Xc.V H 3._ ) E _ l q p d d LXLXs.t.t.u.L.C.u.J.L.G.L.i.i.Z.E././.W.&XIXLX$.w y C G 9.9.,.,.! ,.,.6.3.7.}.f.",
"* @ % 8 B e.c.c.c.x.l.7.5.1.` Y c j & @ = > t p LXKXd.y.t.u.A.t.p.A.A.p.B.Y.u.H.W./.E.I.KXLXgXX < , t b 3.3.V V V m m Z 0.w.` K ",
"4 % % & e ,.l.k.k.8.! E E E U z e q & > 1 1 t w LXLXkXy.y.y.B.u.p.A.A.A.;.L.M.p.T.Q.-XIXLXfX- , 1 5 1 u 9.' V V b m Z L 3.` Y C ",
"U l j j I R Q Q T R c f j j a a r e c ( S M d w gXLXGXa.t.t.u.S.u.i.V.u.u.L.G.y.D.&XHXLXhXX * u ~ B t V 0.6.Z m V Z 7.4.b f c g ",
"_ Y Y U Y U U U D c j a a a a a r s U ` ( g p , 4 LXLXBXs.t.t.p.B.;.:.i.B.H.M.r.-XPXKXhXX O > y Y W u u q.9.K Z Z Z 0.7.p 8 j k ",
"b n K K b t b B ` ` U z j j c c r r D ! G d , > fXLXLXLX*X;.t.t.;.G.!./.W.G.i.BXLXLXgX#.O O O = l 8.8.3.3.6.! ! 9.f.S H i @ f L ",
"n N L L V N u n 0.0.( U ) Q R l e e R ~ B d < gXLXLXJX&XF.u.;.;.i.W.!.W.(.>X`._.3XKXLXLXgX= O X q R 6.3.,.` ! 3.0.w.V w s s U 5.",
"m V 9.0.8.3.n n 0.0.b Z oX XU j y f B H t < mXLXKX&XI.A.A.A.B.B.R./.W.(.>XcXxX'._.cXGXLXLX#.= % o o w H >.u ! 3.>.e.k 9 c k.x.9.",
"m F 4.6.7.6.Z N 6.9.n G #XoXE x f f e y t mXLXKX&XA.Z.Z.Z.Z.A.S.E./.W.,XcXxXxXxX_.2X5XNXLXLX#.* o   & D ~ ~ 8.8.~ H y 8 T c.l.4.",
") 9.,.,.6.9.9.9.6.3.b H oX X` S j q p q mXLXKX&XH.D.Z.Z.Z.Z.Z.L.W.~.W._.5XxXcX>XW._.xXxXGXKXLXgXo o r U k.+Xb.b.^ z I 1.k.7.H N ",
") 0.<.1.6.7.9.9.6.6.n G oXOX` S f * = $XKXKX&XH.A.A.Z.Z.Z.Z.S.R./.W./.W._.4X>X~.W./.>XcX4XvXKXLXv + p j Q z.l.8.U q I b.b.3.M N ",
") 7.0.7.,.1.3.6.,.! C L .X{.j.Q y 8 * AXLX1XZ.D.Z.Z.Z.Z.A.D.Z.T./.W.W.!.W.(./.W./.W.`.xX4XW.MXLXnXz x k r j c l a r I v.v.6.b N ",
"( 9.0.9.,.,.,.6.6.6.Z A l.j.] c e = @.LXGXI.Z.D.Z.Z.Z.Z.Z.S.L.!.!.!.!.!.!.!.W./.!.!.W.>X4X!.<XJXLX/ A j * * q w s a I ^ l.1.H J ",
"M L F H 4.6.! 1.XX+X}.|.k.T = $ e r SXLXzXA.A.A.A.Z.Z.Z.Z.S.L.!./.!.!.!.!.!.!.!.!.!.W.>XxX'.W.GXLXmX= O * * a j 0 0 & 9 j 2.w.f.",
"h Z u V 4.3.,.6.{.[.] T x j & * w #.KXGXI.H.V.B.D.A.Z.Z.Z.Z.L.!.!.!.!.!.!.!.!.!.!.!.W.2XcX>XW.`.KXLX; o * > a x f i i ; & G l.5.",
"h m M m ) ` w.f.U e $ @ X & Y A O fXLXGXH.N...} 6 H.H.Z.D.J.W.!.!.!.!.!.!.!.!.!.!.!.W.:XcX,XW.~.KXLXv X $ 8 * d Z Z j.] # & T l.",
"P L H ~ [.[.3.K c r @ & @ i _ / , KXKX1XN. .[ } } 6 D.A.D.J.W.!.!.!.!.!.!.!.!.!.!.!.!.!.5X2X_.!.MXLXjXX * e d m F G }.k.0 & c 1.",
"J 2.x.v.@X@Xs & a z s p d g Q Y / LXJXU. .[ } } } { M.A.Z.J.W./.!.!.!.W.!.!.!.!.!.!.!.!.4XcX:XW.;XLXZX$ * k G ) V V {..X{.] y k ",
"C ~ 2.z.@X+X8 @ c Y C L b M Y x K KXPXo.} | } | {  .V.H.H.L.!./.!.!.!.!.!.!.!.!.!./.W.~.4XcX:XW.;XLXZX= t B E ! V F l.XX+Xj.j p ",
"; 8 c I 8 8 0 j Q ^ 6.,.b t , < v LXIXo.r.r.[ [  .B.A.r.:.a././.!.W./.!.!.!.!.!.!.!.W./.4XcX:XW.;XLXZX> f B E 3.3.,.F F Z Z a i ",
"* + r 8 - + a ,.2.1.7.! b 1 < 2 h LXIX6 J.A.r.>.N.r.6 [ { } g.P././.!.!.!.!.!.!.!.!.W.~.4XcX:XW.;XLXZXd y B G ` 3.3.V b n n C h ",
"z j 8 % # ; _ c.2.! 9.) t 1 , < v LXIXo.>.A.H.P.r.[ } .. .o.0XqXP./.W./.!.!.!.!.!.!.!./.5XcX:XW.;XLXSXx ( ( d b 4.7.3.! P K P P ",
"K A ; % @ 0 ] v.2.,.4.` b t 1 4 d LXPX9X} r.p.>.[  .N.V.C.s.0X0XqXT./.!.!.!.!.!.!.!.!./.4XcX:XW.3XLXgXA / _ g S ` 3.6.3.L L Z J ",
"S x & & i j ^ b.c.,.` 3.` E D y d gXLXFX[ } } [ X.M.H.H.H.F.wXh.0XE./.!.!.!.!.!.!.!.W./.4X4X_.~.KXLX$XR / j.[.[.m b ,.6.1.,.Z J ",
"C c * * a j T 8.w.8.7.9.3.E B t d #.LXUX:.X.[ X.F.H.N.6 6 s.P.d.0XE.!.!.!.!.W.!.!.!.W.:XxX,XW.~.KXKXA A / q.[.[.F N ,.6.,.! Z J ",
"h j j k j j c I ,.c.v.w.N d < < 1 5 LXKX1XB.s.B.A.B.X.[ [ 6 d.0XwXE.~.!.!.!.!.!.!.!.W.2XcX,XW.MXLXKX< , ' j.[.].7.6.7.,.m Z 6.5.",
"f f l Y R D j j Q l.c.8.F b t 1 1 < fXLXNXI.H.H.A.6 [ } } { o.qXK.(.!.!.!.!.!.!.!.!.W.>XcX:X`.JXLXfX< , ] |.l.z.7.6.3.! Z F ,.3.",
"C z / ` 3.W E Y Y Y x l Q 1.1.D = - % HXLX&XA.A.A.6 [ } } { o.P./.!.!.W.!.!.!.!.!./.W.2X4XW.bXLXnX$ = b ! E _ 3.Z m M F 7.w.E C ",
"L U ` 0.<.6.8.<.( x f a B ! ~ g X : X $XLXGXI.A.A.s. .[ [ ..y.T./.!.!.!.!./.W.!./.W._.5X4X<XJXLXO.X # t ! ! 6.1.F V n F 7.3.x a ",
"M M 3.0.7.0.5.6.` E A k > * e = O X O < SXLXGXV.A.H.a. .X.a.A.T././.!.!.!.!.!.!.!.!.>XcXMXKXLXnX- - - $ _ l.e.e.c.l.2.0.' A a p ",
"J F 3.7.9.6.,.! 3.,.H B = X X o O.iXDXDXLXLXlX;.V.H.A.Z.D.A.A.S.E.!.!.!.!.!.!.!.W._.cXMXKXLXgXw = $ o + j q.<.W l.l.x.6.A a i f ",
"9.7.,.3.0.3.b n ` ) b , < X ; hXPXLXLXLXDXVXr.*.;.V.H.Z.Z.Z.Z.S.T./.W.!.!.!.!.!.(.>X,X=XKXLXfX, t g e > + 8 I I I I I j @ $ j L ",
"4.7.,.,.9.3.m V ) G w < < f IXLXIXFXpXsXaXf.&.*.&.&.=.D.Z.H.Z.D.L.E./.!.!.!./.!.E.F.M.G.<XLXLXp f M y q # + r a a a a 8 + @ l 0.",
"9.6.F V 3.3.6.! ! S < < / IXLXFXaXeXeXrXaX>.*.-.=.7 &.i.p.B.C.H.H.E./././.Q.R.N.M.).'.W._.LXLXp t B * @ o + f j j j z i o + A w.",
"4.9.V F 6.6.6.` E C < > gXLXDXaXeXeXeXrX$X>.*.*.3 3 y.V.p.p.y.p.p.M.G.L.G.i.G.C.!.xX4X(.3XLXLXw g B > # + & l Y Y A U a + $ A c.",
"L J b G oX X7.` g 1 t w SXLXsXeXrXrXuXyXf.&.*.=.7 &.D.A.Z.G.Y.Y.Y.Y.L.Y.L.Q./.(.~.,X2X%XLXLXgX, M Z k r r j A E ,.~ R j a 8 I l.",
"P m M G XX X6.` b 4 t w AXLXdXeXaXrXrXyXf.&.-.3 3 p.A.S.H.T./.!.(./.!.~./.(.W.Q.Q.%XaXFXLXLXd f g C j a j U ) 3.1.1._ U z y R 2.",
"b b .X XZ F 4.) V M g p iXLXCXeXuXrXrXtXf.*.&.3 &.B.Z.H.E./.~.~.~.!.!.!.Q.^.n.%.9XaXDXLXLXgXg g f e r e 0 B 6.0.7.0.9.f.q.Y r e.",
"n u  X{.n Z 3.` W Z B d #.LXLXCXrXrXuXrX8X%.3 7 i.H.K.E.~.!.~.Q.m.m.m.m.$.9XrXtXVXDXLXPX/ f t g w q a z g F 3.3.7.9.5.w.].] B 4.",
"<.<.N m 6.4.W ! 0.7.V t * @.LXLXHXdXaXaXuXrX%.O.@.#.|.|.|.|.|.@.9X8X8X8XrXsXHXHXLXLXHXv * * q q q q z ' 9.4.V n ,.,.,.3.3.6.l.j.",
"L W H G 8.2.,.,.w.1.H t * X @.DXLXLXPXPXFXsXpXsXsXpXpXpXpXpXpXpXsXdXVXPXPXPXLXLXDX@.; @ X $ = * 9 q x 9.w.4.V V ! ,.! 3.7.w.j.( ",
"8 s ] l.2.2.l.2.Q c y e * $ X X fXLXLXLXLXLXLXLXLXLXLXLXLXLXLXLXLXLXLXLXLXLXhXO.O O % = * > i q q w q W w.0.,.,.V V 3.9.9.w.k.T ",
"; * 4.OXc.c.b.w.G w , > > = O O o ; ; v jXAXSXSXZXAXAXAXAXAXZXZXAXZXiX$.v v 2 4 2 , d p p g h p p p p e.c.5.4.4.J J 4.4.f.5.f.) "
};
