/* XPM */
static char *_597ec1c88704b1cff108f7128f97dbfEaA5hRz6R97g6chZ[] = {
/* columns rows colors chars-per-pixel */
"64 64 234 2 ",
"   c #2A2F15",
".  c #262D15",
"X  c #2C3316",
"o  c #2D341A",
"O  c #2B3518",
"+  c #313516",
"@  c #353C17",
"#  c #32361B",
"$  c #343B1B",
"%  c #393E1D",
"&  c #3A361D",
"*  c #363D20",
"=  c #3B3C21",
"-  c #3A3421",
";  c #583F19",
":  c #413F1D",
">  c #433E23",
",  c #6C3F23",
"<  c #35401C",
"1  c #3C431D",
"2  c #3F481F",
"3  c #3D4321",
"4  c #3E4821",
"5  c #44451E",
"6  c #4A461E",
"7  c #45491D",
"8  c #494C1E",
"9  c #534B1E",
"0  c #5D471E",
"q  c #4D521F",
"w  c #51531F",
"e  c #5C5D1F",
"r  c #644C1E",
"t  c #65471D",
"y  c #6D571E",
"u  c #75571E",
"i  c #434522",
"p  c #4C4423",
"a  c #454922",
"s  c #4B4C22",
"d  c #514622",
"f  c #5B4623",
"g  c #524D24",
"h  c #5C4D24",
"j  c #544B29",
"k  c #5C4B2A",
"l  c #58462B",
"z  c #4E5222",
"x  c #535424",
"c  c #5B5525",
"v  c #565B25",
"b  c #5B5B25",
"n  c #555528",
"m  c #5A552A",
"M  c #565A29",
"N  c #5C5B2A",
"B  c #644724",
"V  c #644C24",
"C  c #6A4D24",
"Z  c #644C2A",
"A  c #6A4D2A",
"S  c #6D472D",
"D  c #714B24",
"F  c #744C2D",
"G  c #645224",
"H  c #6C5325",
"J  c #615E26",
"K  c #63542B",
"L  c #6C532A",
"P  c #625D2B",
"I  c #6B5C2D",
"U  c #6B5C25",
"Y  c #725425",
"T  c #795725",
"R  c #755925",
"E  c #7C5C25",
"W  c #73552A",
"Q  c #79562D",
"!  c #735A2B",
"~  c #7B5B2C",
"^  c #6E4D33",
"/  c #744E31",
"(  c #6C5231",
")  c #6B5C31",
"_  c #665632",
"`  c #745332",
"'  c #745C33",
"]  c #7A5B33",
"[  c #795738",
"{  c #5D6125",
"}  c #5E6129",
"|  c #636226",
" . c #6A6426",
".. c #64632B",
"X. c #6B642C",
"o. c #66692C",
"O. c #6C6B2D",
"+. c #6F6B27",
"@. c #73652D",
"#. c #7C642C",
"$. c #726B2D",
"%. c #7D6A2D",
"&. c #766526",
"*. c #6D712C",
"=. c #73732E",
"-. c #7C732D",
";. c #7A792B",
":. c #6B6431",
">. c #6C6B31",
",. c #646131",
"<. c #746532",
"1. c #7C6533",
"2. c #746B32",
"3. c #7D6B32",
"4. c #7D6938",
"5. c #757333",
"6. c #7A7433",
"7. c #7C7B34",
"8. c #7D7939",
"9. c #7F7738",
"0. c #81581B",
"q. c #835B23",
"w. c #845E2B",
"e. c #885C2F",
"r. c #8B6425",
"t. c #82652C",
"y. c #8A632A",
"u. c #826C2E",
"i. c #8C6C2D",
"p. c #876524",
"a. c #936E2E",
"s. c #94692A",
"d. c #85722E",
"f. c #8C722E",
"g. c #8B7B2D",
"h. c #847B2D",
"j. c #94722D",
"k. c #937B2D",
"l. c #947428",
"z. c #846435",
"x. c #836D33",
"c. c #896C34",
"v. c #846D3A",
"b. c #8C6D3A",
"n. c #8A6739",
"m. c #916E3B",
"M. c #857234",
"N. c #8A7434",
"B. c #847C33",
"V. c #8D7A33",
"C. c #86723A",
"Z. c #8B743A",
"A. c #837D3A",
"S. c #8D793A",
"D. c #927434",
"F. c #937C34",
"G. c #9B7D33",
"H. c #917539",
"J. c #937B3B",
"K. c #9A7937",
"L. c #8C6C40",
"P. c #936F43",
"I. c #947B41",
"U. c #7E8031",
"Y. c #8C832E",
"T. c #97832D",
"R. c #848334",
"E. c #8D8232",
"W. c #858239",
"Q. c #8B843C",
"!. c #8E893C",
"~. c #878B34",
"^. c #938233",
"/. c #9C8435",
"(. c #9C8A35",
"). c #93843B",
"_. c #9D823A",
"`. c #938A3E",
"'. c #9B8C3D",
"]. c #958835",
"[. c #9C913E",
"{. c #9A9C3D",
"}. c #969838",
"|. c #8D9238",
" X c #A18A2D",
".X c #A18535",
"XX c #A38B34",
"oX c #A98D35",
"OX c #A38C3A",
"+X c #A68739",
"@X c #AB923B",
"#X c #A79538",
"$X c #B1933A",
"%X c #9CA23A",
"&X c #A2A43E",
"*X c #A4A93B",
"=X c #B4B03F",
"-X c #958742",
";X c #948B42",
":X c #9B8E43",
">X c #9C8F48",
",X c #9D9344",
"<X c #989445",
"1X c #8F9541",
"2X c #A28441",
"3X c #A88E47",
"4X c #A19545",
"5X c #A49A45",
"6X c #A99E45",
"7X c #A2954A",
"8X c #A59B4A",
"9X c #A99D4B",
"0X c #A9904C",
"qX c #A99E51",
"wX c #9DA140",
"eX c #A3A343",
"rX c #ABA445",
"tX c #ACAA45",
"yX c #ACA34B",
"uX c #AEAC4A",
"iX c #A5A646",
"pX c #B4AB44",
"aX c #B3AA4B",
"sX c #ADB044",
"dX c #B9B44D",
"fX c #BDBA4D",
"gX c #B6B64B",
"hX c #AEA452",
"jX c #B3AB52",
"kX c #B4B251",
"lX c #BCB953",
"zX c #C2BD4E",
"xX c #C3BD54",
"cX c #CBC75F",
/* pixels */
"<.X.2.) - p _ ) z.P.[ S f > > p k j j K 1.n.n.n.a.b.' K K K _ l p s K c.P.L.n.z.b.m.m.z., F 3XI.#   ) 2X+XC.c.c.S S 0X0Xn.a.[ k ",
"....5.5.5 g ) :.3.N.Q C h 8 i 3 n s M  .%.i.u.x.N.i.$.X. . .P g 7 8 { V.I.C.u.x.M.M.Z.x.t Y 5X`.< # } 8.V.F.^.F.E E 9X9X&. .m g ",
"& $ a ' x.%.M.M.M.M.x.%.u.$.>.M O X 6.7X5X7X7X>X` ` v.M.x.x.X.c # # s K.kX8X4X#XH C x.M.Z.Z.C.N.!.B.5.N 5 p.j.j.aXdXOXF.@.n a g ",
"- % k ] N.N.N.Z.x.x.x.M.N.M.C.:.= % A.yXyX9X9X7XL B 4.N.N.N.d...% # s K.aX:X4X'.V r %.M.C.C.x.M.:X).5.M 1 c @.O.eXtX6.P m i 5 d ",
"' L.d.d.u.u.x.x.H H x.N.u.d.Z.C.7.*.7.4X9XiXyX5XG B r H V.M.i.%.b 8 q s.q.C x.x.C V M.M.L L M.M.@.b 6.$...+.=.=.=.=.x s s 8 6 6 ",
"L.-XD.u.%.u.C.3.H H v.C.u.x.b.v.A.>.~.iX5X<X,X'.Y V H I C.M.f.x...x 7 G T w.J.x.L L x.1.K L i.x. .M o.>.*.$.2.O.X. .x a s g 8 d ",
"H.@Xk.%.3.%.M.M.V V x.C.x.x.D r 5.>.{.iXT V r G M.M.C.L.x.u.S.N.<.N x w $.XX/.x.4.4.H V A L Q ~ X.x   3 ;X;X1.<.k k X.J b N c g ",
"<.V.g.k.N.x.M.M.L C M.Z.x.u.C G >.>.%XpXE V V H A.N.C.v.u.x.N.C.1.P x 5 v 7.V.F.K.F.&.T Q ` K c N x $ x 8X8XS.N.] ] 3.2.X.@.M h ",
"g v U G.uX7X:X:X:X'.5X'.A I ;XQ.>.O.%XtXE H x.M.M.M.L L x.M.c.i.%.| x 8 5 x =.OX#XXXl.i.w.T J q s n A.>XeX,X8X5X8X7XK A M.x.g > ",
"p 7 < #.gXuXrXiXtXtXuX<XB K Q.A.} O.wXaXq.L 6.M.M.x.L W N.x.u.@.| w x s 6 a ..V.].Y.@.G c g x 7 s P ,XiX5X5X,X5X9X9XW A V.N.Z Z ",
"g 7 o a *XfXzXfXdXdXkX8X!.8.6.o.i s {.fXrXS.V C %.%.x.v.c.u.1.X.x 8 1 s P M 1 i  ...v s 7 q } P 8.,XrXyXhX,XH U 8XhX,X-XM.N.x.z.",
"j 7 X $ ;.&XiXeXeXwX;XQ.Q.5.o...7 8 R.eXgXyX~ I M.N.C.x.N.i.@.n 8 s = j 6.@.: % J ..b x q x ..o.B.iXrX;X;X;X0 V ;X>XyX4Xu.x.x.m.",
"m s # # * s ..o.o.o.$ 1 =.o.O.>.| | O.B.*XcXjX7X7X4XM.%.f.f.J s z } p Z x.4.H G 4.4.$.x.`.B.2...i q.p.V k Z A A 0 t 8XyX#.#.C.m.",
"j i * * * a P P P P a x 7.=.>.o.O.o.M M U.eXuXhXuXyXG.V.d. .N n M X.K ! N.M.W ! C.Z.N.F.,X!.9.>.7 G E E w.~ 1.w.T E 5X[.t.i.x.1.",
"# X s M 6 H %.%.1.x.>X4X,X!.4 < b N < O X 2 %XzXzXdX#XXX=.x b @.V V %.M.f.x.L L M.M.M.N.M.x.<.N n M O.(.$XXX X X@X3Xq.T H.F.<.Z ",
"5 2 ..X.V R i.i.c.C.8XyXyX,Xh a O.X.4 O . X B.&X&X{.Y.;.v 5 } K.w.D M.M.d.%.L L x.M.u.x.x.c.3.,.j i v h.Y.h.h.;.R.B.0 9 <.1.c p ",
"N.V.V.1.B Y C.N.x.x.[.5XqX7X%.$.M.%.j * $ # < 1 $ < M n o o x D.T.u.x.3.H H M.x.C.M.H H L L $...x 8 8 w x x x w x M s s n z $ # ",
"+X$XG.x.B A N.S.x.x.[.5XqX7XM.M.N.M.K 4 $ # X X   X a a O $ 4 U ^.^.S.z.V H M.N.C.M.H H H W @.N z q 7 7 6 5 8 n g g n z x s o # ",
"_.oXF.u.x.x.x.x.x.M.'.4XqX0XM.d.N.x.@.m s i z M n n M v N b 8 q -.XX_.v.4.c.x.x.M.C.x.x.c.c.K i * o $ 1 % % ..1.4.1.G h p a :.) ",
"M.E.g.f.S.x.x.%.u.x.4X4X>X-XM.d.N.i.2.P x x N <.$.@.X.X.O.X.b g e d.K.J.H.x.x.x.x.3.x.x.x.<.m s 4 3 i s s g 3.C.K.N.~ T V m W.9.",
"B.B.E.OXK.x.u.u.x.M.9X4XV C x.N.D.N.).2.g N :.x.u.%.Z.x.; r -XA.9 w -.XX2XC.u.u.r f A A k m 8.*.$.7.2.4.C.6.u.M.g.M.d.M.u.M.:XI.",
"X.b ..V.V.N.k.V.F.V.5X'.D W u.%.#.X.3...x :.4.b.f.d.N.x.t T 7X-Xx 6 b B.F.k.F.g.E E ] W s 4 o.>.6.A.6.x.Z.Z.x.%.%.x.u.x.i.N.;X-X",
"= o # 3 V l.OXOXXX(.J.N.N.N.%...M x @ @ 5 G d.M.M.3.H H u.f.8X,XX.b x q 9 p.#XXXXXOXOXN.i $ * p K A C Y C.v.Y y H A A W S.N.1.) ",
"> # o % 6 t.^.Q.^.V.-.@.@.@...c 8 7 $ 5 V W d.M.M.M.L L M.V.8X5X6.b 8 5 < y ^.Y.B.B.B.O.$ o 3 E e.W r Y C.v.H H C V A ' x.3.X.K ",
"..v x x b O.$.>. .| c g x n s s 7 8 N 3.C.Z.M.M.C.C.3.M.4X4XN.Z.1.N n s s c b M @ @ g g 5 5  .XX.Xx.0 H S.M.( A L L b.x.V g c g ",
"1.O.X.....J ......b n s s a s s i s X.).J.Z.v.M.C.L.3.V.9X4XN.x.4.:.M z a s g g + o s n g x ..g.F.V.y H A.C.L L A L S.N.d 1 x c ",
"G V ( ( V h r G 3.4...M n n b b 6 8 +.(.K.C.#.x.x.N.x.x.S.Z.x.u.M.3.1 X   @ b  .#.@.1.<.I N 9 w ;.@X/.x.M.M.%.%.C.C.! Y 5 $ g ] ",
"A C ] ] Y Y t C Z.S.@.P 2.@.| b g w ;.oXG.x.z.x.N.c.x.x.c.c.u.x.N.x.s @ $ x d.D.N.N.F.N.1...x 8 v 8.G.V.x.3.%.x.S.J.A d i a ,.b.",
"A C v.N.V.M.A C C.Z.B L 9X,XX.M c P d.XXk.#.C.S.c.c.x.i.M.M.x.x.W Y 6.O.R.8XyX7XL C C.v.C G X.M * * g p.u r x.x.q.s.h % b R.^.H.",
"A W x.N.N.M.H L x.N.A ~ hX8X@.J P ,.-.V.k.k.S.N.x.v.x.x.x.M.c.c.L h 5.6.Q.8X9X>XW H M.x.Y ! M.X.* o 7 @.p.#.K.S.#.E 8 5 +.(./.n.",
"z.N.u.%.M.C.C.v.N.x.C ! 9X4Xx.%.X.N 5.W.%XpXG.3.4.v.x.i.x.x.Z.Z...c m <.#.x.N.M.u.x.M.M.i.x.N.x.3 $ o.7.{.pX$XoXd.b { 7.^.M.T F ",
"4.C.i.u.M.C.C.b.M.x.C ! 9X7XV.x.:.N ..,.~.*Xk.N.S.S.f.V.V.N.N.1.n 5 P H.D.u.x.d.x.u.N.M.M.x.C.N.K z >.o.B.&X(.V...5 { #X@XM.V S ",
"<.N.Z.S.u.i.x.M.d.%.K ' 9X5X<XQ.5.o...,.>.5.G a.oXXX(.XX@XOX%.n 5 6 2.OX.Xu.x.x.u.u.i.N.x.x.x.N.,X,X`.6.c b b b z a { #X@XM.V F ",
"' b.Z.C.u.u.M.x.M.M.L ) [.`.Q.7.O.O.>.>.o.} a &.^.Y.g.g.^.V...8 5 8 :.V.F.D.N.c.u.u.M.x.x.x.x.M.5XrX5XA.s 5 5 a a s { h.^.N.T F ",
"Z ' Y R M.x.u.i.8X9X<XW.Q.=.7 8 6.W.i 3 ,.N x w { b { x $ 2 v M 9 x x M +./.K.%.4.x.C.b.N.3.B H 5XyXL s x 7 g m 3 * $ < c f._.L.",
"l A C Y x.x.u.M.<X;X8.>...{ q x 6.W.s a o.} 9 7 @ 2 7 p + @ M  .$.$.M s | Y.].F.J.S.4.x.M.x.Y ! 8X,Xg < x s n N j p a $ $ U _.P.",
"k L B A 3.x.H.C.| q @ X X 3 ;X;Xf ; 4.6. .e M a o X a N :.3.X.1.8XiX!.8.*.U.%XgXlXqXf f A.S.,X8X,X<X{ 8 w x i f L L !.5.O $ o./.",
"Z ] E ~ ^.J.v.:.x 8 o $ $ g 5X8X~ L c.N.$.b x a + @ M :.x.S.c.c.,X8X;XW.*. .U.sXgXtX! R N.J.rXyX;X5.q 7 M b G L W W <X!.3 $ x N.",
"` a. X@XcXuX8 # s M i j h I 5XrX9X9XS.x.i.@.i $ + @ p Z B C V.V.L A Z _ ;X8.5.W.}.=XzXpXq.D.xXlX_ $ 4 x P 1.M.u.Y Y '.5X,X8.w b ",
"Z &.g.}.lXiX< o M $.K ` Y ! [.,X4X7XS.x.N.x.i # @ 5 K W A L V.M.K Z Z <.;X;X>.} ;.%XgXeXY #.gXsXa # s ..3.N.N.x.L H '.5X8X!.x p ",
"> < v e 2 2 1 g @.%.M.u.H H H R c.C.M.M.V.u.i o < h u.M.i.3.d.%.u.u.Z.C.H G 1 @ + 1 U.U.z { U.*.$ $ m 2.M.M.V.Z.M.%.! H W L s > ",
"& + 5 1 .   s t.k.f.V.%.H H V V x.c.x.M.N.z.3 - 5 R V.f.d.M.3.3.d.d.S.v.D D 5 o . X } } 2 8 } } < i 2.C.V.M.M.M.M.x.L B C H m l ",
"m x % # . $ 2._.k.u.M.z.V B A A x.x.M.u.T R M 7 e l.G.1.K W C.Z.S.C.M.x.c.c...s N O.5.=.O.o.8.;X).-X,X7X,X;XV V M.N.x.#.^ ( A ^ ",
") ..% # # 3 B.@Xk.%.v.x.H H I ' x.x.M.u.A h c s ;.#XOXx.B L Z.Z.x.x.t.3.M.3.N v 7.`.!.W.>.} 5.8XaXrX8X8XqX>X' ! x.x.M.M.' ' L / ",
"I b $ # i z 7.oX/.M.4.v.C.S.M.B.Z.C.N.u.6 % i x {.xXfX:XB A C.v.C t D Q @.x a n ;X8XhX;X* X 3 i.pXrX#XeXyX8X8X,XA B x.M.d.u.L / ",
"K c % % s x +.^.^.D.N.N.M.M.3.M.Z.Z.N.I % + 5 n !.tXpX,XA W x.x.Y Y H P N z n :.;X,XhX,X4 $ < ! &X#X[.[.<X8X8X,X! H x.i.u.%.W ` ",
"k g x b w x x } 6.+X@X/.T A 0 G q.s.6.z . o s m J O.Y.T.k.u.x.x.w.i.$.x z X.,X,XK C N.f.:.n $ 3 c i.E ! qX8X5X4XN.M.N.u.A L M.b.",
"h g N X. .N x x O./.(.V.Q L U u E u ..a o = N :.b b $.T.k.f.N.N.t.~ } z b V.hX8XL B u.N.3.:.3 o 1 R T &.8X8X[.<XM.x.M.#.L W d.z.",
"K n :.x.%.#.@. .X.X.J N -./.$XG.c < x b e  .3.3.h g  .+.B.K.G.a.-.b b >.,X,XQ L S L x.M.C.3.b x x M b i.(.N.x.x.H A B L N.N.1.P ",
"<...4.b.N.c.f.N.<.N g n +.(.@XF.2 o z X.%.i.S.M.W H U J 2.G.a.#.e 5 b _.kX,XB Z K L x.M.N.N.u.O.M s 4 &.^.N.N.M.! Y A W N.M.b p ",
"Z V x.N.N.Z.N.N.x.@.X.J 9 x o.| x x P 4.N.c.C H >X4X%.@.=.O.7 2 s g ..'.fX5XK W x.v.M.x.C W M.3.5 @ o 1 A.2Xl.s./.+XG.H.v...s p ",
"/ W x.M.C.C.#.x.c.N.c.t.0 1 7 5 g ..x.C.Z.v.! ' 7X9XN.u.3.b $ o % 8 ..XXtX).L L C.N.N.u.V Y N.N.H p @ $ M B.i.#.^.].E.M.m a 7 j ",
"b.N.x.x.Z.x.B C v.C.! H V 8 o X = K x.N.t.M.8X8X9XqXS.M.C.<.< $ X   g l.r.V h C x.M.f.%.A ( M.M.C.M.| 7 o 5 { b } { N x o o x ! ",
"C.M.u.%.C.x.H H x.N.H H #.Y i * i Q c.x.M.V.8X8X>X>XN.x.C.v.c 5 @ @ s #.t.! H H x.M.M.x.A W x.M.S.S. .7   X 5 8 s 8 s 5 X + b m.",
"b.M.Y R x.3.M.M.N.N.V ! yXeX8.:.8 0.u R 4X5XyX8XL C 3.x.N.u.H h P v M b -.XX/.x.v.Z.M.#.V L %.d.N.N.s #   X s m x x x i   o ..K.",
"v.v.H L M.M.M.N.M.M.H ! 5X,X8.>.e l.q.&.4X4X8X<XL B u.x.f.u.W W 3.:.s 7 o.^.^.N.Z.C.x.u.H H d.M.N.N.p # X $ N :. .| ..s   # ..K.",
"( ` B ! 9X4XS.M.L A %.u.Y ! 6.*.wXlXtX:X4X:XG H 6.M.x.x.c.C.x.i.C.4.% % O.7.G r.J.M.4.u.%.x.C.C.H.H.I 8 8 n P #.u.&.X.M i 5 { G.",
"^ L B ! 8X4XN.C.A Z d.M.B K 5.>.1XgXuXeX8X'.V V d.M.i.x.C.x.d.x.H.C.i % N b 1 E G.N.N.V.f.M.Z.C.v.3.J x n ..<.x.f.i.1.:.b s e G.",
"V V 5X4XA W x.x.#.#.N.C.3...$ $ o.~.iXdXkX7X:X'.%.&.x.b.c.c.u.u.D.c.b z { ..o.7.U p.XXXX/..X/.F.<.b x 8 % V C.S.S.Z.C.C.Q.X.s s.",
"C y 4X:XA L x.c.N.N.Z.x.5.N $ < v | |.tXyX,X5X5XV.M.S.N.c.x.c.x.i.%.b x v ..>...7 u T.].^.^.F.x.b s z b k W x.x.M.C.Z.J.'.B.m z.",
"e.r.F Z x.N.#.u._.3Xs.y...z O.>.....5.R.-._._.(.gXfXOXG.q.r.OX^.2.K x 5 O 3 8.5.3 $ { | ....b c s a P 3.C.x.C t u.d.u.u.x.M.`.).",
"! u.! ! V.D.x.x.^._.l.#.N s N o.o.o.b b ../.(.(.tXtX(.l.p.u.F.3.m s 6 a $ z ;XU.3 o 7 s s a 5 a i a P C.J.x.H Y %.u.%.x.x.F.).:.",
"2 a A._.k.k./.^.3.{ J J x 8 7 8 8 8 i s J -.;.$.c c o.....{ 3 = 9 6 s M o.<.m k g s m n g x g s 7 a 5 ~ _.N.u.u.H H v.C.v.S.Q. .",
"- & x.3X+X.XoXK.! p 6 g j d g p d p p d K I K K p > k j g p - & d g k K 4.v./ ^ / ` ] I K K Z h p d d y.2Xb.c.n./ / n.b.L.L.I.1."
};
