/* XPM */
static char *eb9ecef474ba4ac5e468ea2ea8e6f09164Cd7QsE2Cs3CcWM[] = {
/* columns rows colors chars-per-pixel */
"32 32 196 2 ",
"   c #272D14",
".  c #282F14",
"X  c #262C18",
"o  c #2C3316",
"O  c #2F3817",
"+  c #263019",
"@  c #2C351A",
"#  c #353D17",
"$  c #33351B",
"%  c #343C1C",
"&  c #393F1E",
"*  c #39351C",
"=  c #3D3720",
"-  c #343C20",
";  c #3B3C21",
":  c #5B3F13",
">  c #403D21",
",  c #6C3F23",
"<  c #36401B",
"1  c #3B441E",
"2  c #3D4321",
"3  c #44451E",
"4  c #48451E",
"5  c #45491D",
"6  c #494B1E",
"7  c #524B1E",
"8  c #5D441F",
"9  c #51511F",
"0  c #5C5D1F",
"q  c #644B1E",
"w  c #78501D",
"e  c #424422",
"r  c #4B4522",
"t  c #454922",
"y  c #4C4D23",
"u  c #5C4623",
"i  c #534E24",
"p  c #5D4C24",
"a  c #5C4B2B",
"s  c #4E5322",
"d  c #535423",
"f  c #5C5625",
"g  c #575B25",
"h  c #5B5B25",
"j  c #555428",
"k  c #5A542B",
"l  c #54582A",
"z  c #5C5B2A",
"x  c #644724",
"c  c #644B23",
"v  c #6A4D24",
"b  c #644C2A",
"n  c #6A4D2A",
"m  c #714A24",
"M  c #645225",
"N  c #6C5424",
"B  c #615D27",
"V  c #62552C",
"C  c #6C522A",
"Z  c #635C2B",
"A  c #6A592F",
"S  c #6A5B22",
"D  c #725426",
"F  c #7D5926",
"G  c #74552A",
"H  c #76592A",
"J  c #7C5627",
"K  c #6D5232",
"L  c #685E32",
"P  c #665632",
"I  c #725332",
"U  c #785F33",
"Y  c #775937",
"T  c #5D6125",
"R  c #5E6028",
"E  c #636426",
"W  c #696425",
"Q  c #6F6B27",
"!  c #64632B",
"~  c #6A642D",
"^  c #6A6B2C",
"/  c #666D2A",
"(  c #73642D",
")  c #7C642D",
"_  c #736C2D",
"`  c #7C6B2C",
"'  c #746C27",
"]  c #6C7128",
"[  c #74732E",
"{  c #7D732D",
"}  c #6C6531",
"|  c #6B6B30",
" . c #736532",
".. c #7C6533",
"X. c #746B32",
"o. c #7D6B32",
"O. c #7D6538",
"+. c #767333",
"@. c #7A7533",
"#. c #7C7C33",
"$. c #7E7A39",
"%. c #81581B",
"&. c #835A23",
"*. c #855F2F",
"=. c #876022",
"-. c #8B6024",
";. c #81672F",
":. c #89622A",
">. c #826D2E",
",. c #976F2D",
"<. c #9C6F2F",
"1. c #86742E",
"2. c #8B782D",
"3. c #94792D",
"4. c #96722D",
"5. c #846435",
"6. c #836D33",
"7. c #8A6D34",
"8. c #846D39",
"9. c #8D6E3B",
"0. c #8B6734",
"q. c #916F3C",
"w. c #857234",
"e. c #8A7434",
"r. c #847B36",
"t. c #8D7934",
"y. c #85713A",
"u. c #8A743A",
"i. c #827D3A",
"p. c #8D7939",
"a. c #907133",
"s. c #967D34",
"d. c #917539",
"f. c #957A3B",
"g. c #997F3A",
"h. c #9C7A33",
"j. c #946E45",
"k. c #96802A",
"l. c #8B833A",
"z. c #8F893D",
"x. c #8C8235",
"c. c #9C8335",
"v. c #92853E",
"b. c #9C823B",
"n. c #938A3D",
"m. c #9B8E3F",
"M. c #928334",
"N. c #979B37",
"B. c #9E923F",
"V. c #9A9C3D",
"C. c #969C3D",
"Z. c #A0892C",
"A. c #A08436",
"S. c #A38933",
"D. c #A98E37",
"F. c #A2843B",
"G. c #A48D3B",
"H. c #AC9436",
"J. c #AC923C",
"K. c #A1993F",
"L. c #B2923B",
"P. c #A0A23A",
"I. c #A4A93B",
"U. c #958742",
"Y. c #948A42",
"T. c #9B8E42",
"R. c #979044",
"E. c #9D9245",
"W. c #959D43",
"Q. c #A68D4C",
"!. c #A18541",
"~. c #A29545",
"^. c #A39945",
"/. c #AA9E47",
"(. c #A2954A",
"). c #A69B4B",
"_. c #A99D4B",
"`. c #AA9F52",
"'. c #9EA141",
"]. c #AFA447",
"[. c #A5A04A",
"{. c #ABA44C",
"}. c #A3A842",
"|. c #B4AB44",
" X c #B4AC4C",
".X c #AAB041",
"XX c #B9B64E",
"oX c #BDBC4E",
"OX c #ADA452",
"+X c #B4AE52",
"@X c #B6B252",
"#X c #BBB757",
"$X c #BFBC50",
"%X c #C2BC4E",
"&X c #C4BD58",
"*X c #CBC75F",
/* pixels */
" . .= P 5.Y u > a i ..0.q.U V V r V j.0.9.q., Q.* L F.9.n Q.0.Y ",
"* t 6.w.y.` 6. .@ @.(.(.I 6.6.' $ y @X~.N o.u.u.l.+.3 4. XG.( 6 ",
"Y 6.>.6.N 6.>.u.#.#.{.{.N c u.>.f 9 &.6.N w.C w.( @.E [ [ d y 3 ",
"p.s.o.w.c 6.7.m +.C.F c w.y.>.u. .d _ A.O.N n H ~ o Y.o.b ~ f d ",
"i N  XT.T.^.n T.^ '.F o.w.G w.7.` d 3 [ H.4.:.h t l.E.^.).C w.i ",
"i @ I.$X@XXXz.@.e C.].c ) 6.>.o.d 1 Z 1 ! g 5 E #.{.{.N [.E.e.o.",
"k @ - ! | % ] | E | .X+X(.w.a.Z s r y.M o...n.X.5 :.x K u /.) u.",
"$ y 7 ` ..T.^.2 z % o '.%XH.[ g c ` w.C 6.e.w.} l Q J.Z.J.%.d.( ",
"u.t.x u.6.B.`.` @.i $ % % l o d c.w.v w.w.N C _ d 6 d d d s d $ ",
"g.3.6.>.6.T.OXw.7.( y s j h z 6 ` b...6.y.w.7.b - % % Z o.M 3 | ",
"r.x.g.` 6./.x 7.a.v.d L >.u.: U.9 { F.>.v n p #.[ X.y.w.e.e.>.T.",
"> $ c G.S.s.e.o.h # 4 w.6.N >.).~ s 7 H.G.G.e % b c y.S M n e...",
"~ d h _ W g d y t g y.w.y.6.^.p.X.d 6 h # s t ^ c.q p.C C w.c h ",
"c K p c o.~ d h r ' b.;.w.5.d.>.u.1 o f ( ..A 9 @.c.y.` u.H t y ",
"n 6.t.v y.c _.! k 1.3.y.6.7.w.7.G @.i.{.G w.q ~ < d w y.&.p h M.",
"O.>.y.y.u.c _.7.~ +.P.s.8.>.o.u.~ z ) t.>.w.w.u.e ! V.L.w.T M.G ",
"..p.>.7.` C /.E.@.! ] M D.S.J.o.> _ h.6.>.7.6.7.B.n.d h s E J.b ",
"a G 6.` _.R.l.5 +.2 ! d T T % d d d ' s.o.y.w.c ^.V d i 2 % f b.",
"a x o.d.! $ @ z.i o.W d o y } ( ).z.[ V.XX8 w.B.^.h s e C z.+ Q ",
"I A.*Xt s t p ^._.p.w.e O r c t.N b Y.@.N.*X&.*XV 5 ! 6.N B.E.s ",
"> g 1 e ( w.N N 8.6.d.e 1 >.7.>.` p.D 2 # #.s #.1 l w.p.6.D C s ",
"V & X _ 3.y.c v 6.1.J d h s.M y.u.w.7.! z ] ^ $.U.E.E.c w.6.K C ",
"A % 3 { c.o.u.e.u.u.r r V.$Xu y.v m X.t Y.OX% 2 |.K.).).n 6.1.C ",
"p d d g w.H.G p &.+.o y R 2.3.7.:.^ y E.C e.| % f F ).^.e.e.v w.",
"V } o.( ~ R ` J.f s 0 o.f W r.<.` g E.H C >.w.Z d f b.w.N c u.` ",
"b 6.7.t.6.( 7 ^ d Z y.v T.o._ t s ! oXC 8.u.N w.6 o i.,.b.h.@.y ",
"9.6.u.c 6.H c O ; 7.;.).`.p.8.1 . i :.p >.1.n w.y.E o T T z $ d ",
"8.D 8.>.t.c {.$.6 w ~.{.C ;.e.N Z d { c.8.6.v >.d.6 . i d d   Z ",
"K x ^.p.C >.m #.W.].^.N 6.6.w.7.y.1 ^ N s.6.) y.d.~ t Z >.~ 3 T ",
"x ~.N y...u.o.% ] }.+XR.` 8.7.` a.B z ^ S D.A.b.( d 2 w.p.y.x.y ",
"5.m y.) b.<.~ ^ ! [ 1.c.XXG.:.S. .i o $.& h ! f y z e.v >.>.6.n.",
"2 w.k.c.` h g t 6 t h { f ! E 1 i s ! V i l d d 3 3 b.>.C 6.6.l."
};
