/* XPM */
static char *_652539812a94adbc34a885b47e3e068CRPRznAyEdrD7H5g[] = {
/* columns rows colors chars-per-pixel */
"32 32 205 2 ",
"   c #120F04",
".  c #161204",
"X  c #191405",
"o  c #1E1806",
"O  c #1D1808",
"+  c #231C06",
"@  c #261F08",
"#  c #2D2406",
"$  c #272009",
"%  c #2B2309",
"&  c #312706",
"*  c #352905",
"=  c #3B2D01",
"-  c #302608",
";  c #362B09",
":  c #3F3001",
">  c #3D360D",
",  c #272D14",
"<  c #2B3316",
"1  c #2D341A",
"2  c #343513",
"3  c #33351B",
"4  c #343A1C",
"5  c #383B19",
"6  c #39351C",
"7  c #3D3720",
"8  c #333C20",
"9  c #3D3A20",
"0  c #433401",
"q  c #483702",
"w  c #473805",
"e  c #4C3B03",
"r  c #48360A",
"t  c #4B3B0A",
"y  c #513E03",
"u  c #413613",
"i  c #443B12",
"p  c #403D21",
"a  c #6C3F23",
"s  c #39431E",
"d  c #3D4421",
"f  c #554204",
"g  c #5A4505",
"h  c #5E4806",
"j  c #55420A",
"k  c #5A450A",
"l  c #5C490B",
"z  c #4D4814",
"x  c #44461E",
"c  c #46491E",
"v  c #494A1E",
"b  c #49451D",
"n  c #554312",
"m  c #5C4C14",
"M  c #5C461C",
"N  c #524D1D",
"B  c #5D491A",
"V  c #574D13",
"C  c #5F5216",
"Z  c #5E571F",
"A  c #614B07",
"S  c #644D09",
"D  c #684F09",
"F  c #6C520C",
"G  c #61520D",
"H  c #71560D",
"J  c #74590E",
"K  c #634F16",
"L  c #634B1C",
"P  c #645216",
"I  c #6C5414",
"U  c #67531A",
"Y  c #6B541D",
"T  c #66581F",
"R  c #6D5B1D",
"E  c #6D5D17",
"W  c #705710",
"Q  c #745A11",
"!  c #795E13",
"~  c #735D1C",
"^  c #7A5E18",
"/  c #74551D",
"(  c #7E6216",
")  c #7C641E",
"_  c #73621E",
"`  c #454323",
"'  c #4B4620",
"]  c #474A24",
"[  c #4C4C23",
"{  c #584726",
"}  c #534D25",
"|  c #5C4C2B",
" . c #535423",
".. c #5C5B25",
"X. c #575628",
"o. c #5C522D",
"O. c #5C592B",
"+. c #5A5922",
"@. c #634623",
"#. c #664B25",
"$. c #6B4C25",
"%. c #634B2B",
"&. c #6A4D2B",
"*. c #714A23",
"=. c #6B5423",
"-. c #635A24",
";. c #6C5A23",
":. c #63542C",
">. c #6B522A",
",. c #645B2B",
"<. c #6A592F",
"1. c #725426",
"2. c #7B5826",
"3. c #765928",
"4. c #755A28",
"5. c #685E32",
"6. c #665632",
"7. c #725332",
"8. c #785F33",
"9. c #775937",
"0. c #5D6125",
"q. c #5E6028",
"w. c #64642B",
"e. c #6A642D",
"r. c #6A6A2B",
"t. c #666D2A",
"y. c #7C6421",
"u. c #72642C",
"i. c #7C652C",
"p. c #77692E",
"a. c #7D6B2D",
"s. c #756126",
"d. c #74742E",
"f. c #7D722F",
"g. c #6C6431",
"h. c #6D6B30",
"j. c #746532",
"k. c #796432",
"l. c #7D6B31",
"z. c #7D6538",
"x. c #757233",
"c. c #7A7535",
"v. c #7E7A35",
"b. c #7D7B39",
"n. c #816416",
"m. c #81651A",
"M. c #855C22",
"N. c #836A24",
"B. c #826D2D",
"V. c #8F6928",
"C. c #8C6023",
"Z. c #9C6F2F",
"A. c #877220",
"S. c #86722E",
"D. c #8B7322",
"F. c #957B2F",
"G. c #99712C",
"H. c #846435",
"J. c #836D34",
"K. c #8A6C34",
"L. c #8D6E3B",
"P. c #896A38",
"I. c #916F3C",
"U. c #857233",
"Y. c #8A7435",
"T. c #877C37",
"R. c #857139",
"E. c #8A743A",
"W. c #877B37",
"Q. c #907132",
"!. c #917539",
"~. c #987D36",
"^. c #946E45",
"/. c #96802A",
"(. c #8C823A",
"). c #8E883C",
"_. c #8C8235",
"`. c #9E8535",
"'. c #91853B",
"]. c #9C823B",
"[. c #968D3B",
"{. c #938434",
"}. c #979C3D",
"|. c #A78934",
" X c #A2843B",
".X c #A38C3B",
"XX c #A08534",
"oX c #A8923D",
"OX c #A4A93B",
"+X c #958B42",
"@X c #9A8E41",
"#X c #999743",
"$X c #A68D4C",
"%X c #A49945",
"&X c #A69C4B",
"*X c #A89D4A",
"=X c #A2944A",
"-X c #A9A140",
";X c #ABA44C",
":X c #A3A842",
">X c #B4AC4C",
",X c #B9B64E",
"<X c #BFBB4F",
"1X c #B4AE52",
"2X c #B6B252",
/* pixels */
"k.g.7 6.H.9.{ p | { k.P.I.8.<.%.b ,.^.H.L.I.a $X6 5. XP.&.$XK.9.",
"6 ] l.U.U.J.B.j.< c.%X=X7.J.J.e.4 [ 2X%X=.J.E.E.).x.c G.>XoXu.b ",
"9.J.B.K.=.J.B.E.v.v.;X;X=.#.Y.B...} M.K.$.U.=.U.e.c.w.d.d. .[ b ",
"E.{.l.U.#.J.K.*.x.}.2.L ~ y I N._ W f I ;.=.&.7.e.< '.l.| e.O. .",
"} =.>X@X@X%X$.@Xr.}.W I S y S ) y.A g S J N./ Z ] W.%X%X%X>.U.} ",
"} 1 OX<X,X2X).c.m G I W A y A N.^ q f H m.m.g k w.[.;X=.&X=XU.J.",
"o.3 4 w.t.5 E l F f Y H F q f ~ I 0 y Q N.N.k A ~ ! L &.M *Xi.Y.",
"3 [ N a.k.R l 0 g y D H H q f H g 0 y F ^ N.j F N.F _ A.oXM.!.s.",
"R.Y.@.Y.K q 0 = y e h F D 0 e A f 0 e g H N.t F ( A _ y.N [  .4 ",
"].F.J.m e y 0 = e g f A f 0 0 y q 0 A g 0 I f H N.k ^ B.Q B c r.",
"T._.~.t 0 e 0 0 : g q e S f 0 0 = g H f g y = S m.q ~ m.D I i.@X",
"9 3 j * = y 0 # 0 h y q D A 0 = q g H y H f = A J e ~ m.S g J.l.",
"w. .> % % : 0 % w h f f F S 0 0 g y A S ! D e S S 0 Q Q f F B ..",
"%.n - @ = % 0 # = g f g F A y 0 f D f D H S 0 F H 0 A ! f S l [ ",
"&.u # % % w ; % % y 0 g A A f 0 e S 0 A ! F = F n.0 F n.f W S {.",
"z.u % % = - = % = # w q g f f * q f e S H g e Q Q 0 S ! l F S 1.",
"k.6 % % % = - % % w ; = g f q = 0 y 0 f H f 0 W J q f ! S J S #.",
"%.t % X * - : - * ; = % y q 0 & = 0 0 f S g = D F 0 y H A Q S  X",
"| y * $ % : * % # = - = ; = * O = - = y e 0 & k y = e A g ! D r.",
"7.D.i o $ % % o % - # - # & - X # # # 0 * # % 0 0 e 0 f h H _  .",
"p ..> X @ : + . . % o % X # + X X % X & + @ % % : * = f h S =.] ",
"o.9 2 > X # % X + X % X + + @ X . X @ X @ X % X % % $ : g S &.>.",
"<.4 x w X $ o X X @ o @ +   X X X   X % + @ X @ o $ % $ e 4.S.>.",
"| +.N N 0 X @ X + + X X X . X X X . X X X X @ + + % X # P S.#.U.",
",.e.B.u.-.0 X . X X X . . . X . X . X . X . X X X $ # m =.@.Y.p.",
"%.l.Y.Y.i.T 0 @ . . . X X X X X X X . . . X . . o & C V.].`.c.[ ",
"L.J.E.#.J.3.M > = % . . . X X X . X . . . . O # j V 2 0.q...3 } ",
"L.=.J.U.Y.#.;Xv.z k = $ .       .   .   o # t I S.' , [  . ., w.",
"7.@.%XY.>.B.1.v.#X:X'.B m = * * * * * w R U s.J.!.w.[ ,.a.e.] 0.",
"@.%X>.U.H.U.l.4 t.:X1X@Xa.J.K.a.Q.-.w.r.;.|.`.].j. .d U.E.E.(.v ",
"H.*.U.i.].Z.w.r.w.d.S.XX,X.XC..Xj. ., b.s +.w...[ O.U.$.B.B.J.[.",
"s R.F.`.p.w. .] v ' ..f.+.r.w.s } [ w.:.} X.} } c c ].B.>.J.J.(."
};
