/* XPM */
static char *ee7e4ba49dcc475d875155024b0d951d80gNeYfVzXXvrtI6[] = {
/* columns rows colors chars-per-pixel */
"64 64 234 2 ",
"   c #120F04",
".  c #161204",
"X  c #191405",
"o  c #1E1806",
"O  c #1D1808",
"+  c #231C06",
"@  c #251E08",
"#  c #281F02",
"$  c #2C2306",
"%  c #272009",
"&  c #2B2309",
"*  c #312606",
"=  c #352A05",
"-  c #3B2D02",
";  c #302709",
":  c #342A09",
">  c #3B2E08",
",  c #3F3001",
"<  c #3D340D",
"1  c #292E15",
"2  c #2D3316",
"3  c #2D3419",
"4  c #323515",
"5  c #32351B",
"6  c #343B1C",
"7  c #393E1D",
"8  c #3C3717",
"9  c #3C3B20",
"0  c #383721",
"q  c #433402",
"w  c #483702",
"e  c #463805",
"r  c #4C3A03",
"t  c #4C3C09",
"y  c #45380C",
"u  c #513E03",
"i  c #413613",
"p  c #463D13",
"a  c #433E23",
"s  c #6C3F23",
"d  c #3A431D",
"f  c #34401C",
"g  c #3C4320",
"h  c #4F420E",
"j  c #554104",
"k  c #5A4505",
"l  c #5E4806",
"z  c #554309",
"x  c #5A460A",
"c  c #5D4A0B",
"v  c #444215",
"b  c #43451E",
"n  c #4B461C",
"m  c #45491D",
"M  c #494B1E",
"N  c #4C4513",
"B  c #544511",
"V  c #554A12",
"C  c #5C4B14",
"Z  c #524C1C",
"A  c #5D4A1B",
"S  c #5B4517",
"D  c #59531C",
"F  c #4D501D",
"G  c #624A07",
"H  c #644D09",
"J  c #684F09",
"K  c #65510D",
"L  c #6C520B",
"P  c #71560D",
"I  c #74590E",
"U  c #624C14",
"Y  c #63491B",
"T  c #655315",
"R  c #6B5412",
"E  c #6B541B",
"W  c #6D5B1C",
"Q  c #675719",
"!  c #715710",
"~  c #745A12",
"^  c #7A5E12",
"/  c #735D1C",
"(  c #795E1B",
")  c #74551D",
"_  c #7D6115",
"`  c #7C631D",
"'  c #73651D",
"]  c #454422",
"[  c #4D4423",
"{  c #464A22",
"}  c #4B4C22",
"|  c #514623",
" . c #534C24",
".. c #5A4C25",
"X. c #544A28",
"o. c #5C4C2A",
"O. c #59462B",
"+. c #4E5123",
"@. c #535324",
"#. c #5B5425",
"$. c #565A23",
"%. c #5B5A26",
"&. c #5B532B",
"*. c #5D5A2A",
"=. c #565829",
"-. c #634723",
";. c #654C24",
":. c #6A4D24",
">. c #644C2B",
",. c #6A4D2B",
"<. c #6D472D",
"1. c #734B2A",
"2. c #645326",
"3. c #6C5324",
"4. c #625C23",
"5. c #6C5B23",
"6. c #63542B",
"7. c #6C522A",
"8. c #625C2B",
"9. c #6A5B2E",
"0. c #725424",
"q. c #735C24",
"w. c #7C5A26",
"e. c #74562A",
"r. c #735A2B",
"t. c #7B5C2C",
"y. c #795723",
"u. c #6E4D33",
"i. c #744E31",
"p. c #6B5C31",
"a. c #6A5432",
"s. c #745332",
"d. c #735C33",
"f. c #7A5C32",
"g. c #795738",
"h. c #5D6124",
"j. c #5E6029",
"k. c #626226",
"l. c #64642B",
"z. c #6B632B",
"x. c #6C6B2D",
"c. c #686728",
"v. c #766226",
"b. c #7C6423",
"n. c #7D6A23",
"m. c #74642D",
"M. c #7C652C",
"N. c #726C2E",
"B. c #7D6A2C",
"V. c #726D27",
"C. c #7B722E",
"Z. c #75762E",
"A. c #6C6731",
"S. c #746531",
"D. c #7A6333",
"F. c #756B31",
"G. c #7D6B32",
"H. c #7D6738",
"J. c #767333",
"K. c #7E7A36",
"L. c #7B7635",
"P. c #6E702F",
"I. c #816416",
"U. c #81651A",
"Y. c #84681F",
"T. c #845D24",
"R. c #826623",
"E. c #836A24",
"W. c #826D2D",
"Q. c #8B6C2C",
"!. c #8B6428",
"~. c #936B2C",
"^. c #85722D",
"/. c #8A762A",
"(. c #93772D",
"). c #846435",
"_. c #836D33",
"`. c #896B34",
"'. c #8C6D3A",
"]. c #886839",
"[. c #916E3B",
"{. c #857234",
"}. c #8A7334",
"|. c #857D34",
" X c #8C7B33",
".X c #857239",
"XX c #8A743A",
"oX c #837D3A",
"OX c #917536",
"+X c #927B34",
"@X c #9B7D33",
"#X c #917539",
"$X c #927B3B",
"%X c #99783B",
"&X c #8C6C40",
"*X c #936F43",
"=X c #947B41",
"-X c #97842C",
";X c #8C833D",
":X c #898535",
">X c #938334",
",X c #9C8434",
"<X c #93843B",
"1X c #9D823A",
"2X c #948B3D",
"3X c #9A8A3C",
"4X c #9A8A36",
"5X c #9B973D",
"6X c #888932",
"7X c #A58938",
"8X c #A5963C",
"9X c #B1943A",
"0X c #9AA33E",
"qX c #A7A53D",
"wX c #9A8E42",
"eX c #948A42",
"rX c #9D9344",
"tX c #939B41",
"yX c #8F9541",
"uX c #A68944",
"iX c #A19545",
"pX c #A39A45",
"aX c #A59C4A",
"sX c #A89D4B",
"dX c #A3944B",
"fX c #ABA544",
"gX c #ADAA45",
"hX c #ABA34C",
"jX c #A5A644",
"kX c #B3AB4C",
"lX c #B9B44E",
"zX c #BAB84C",
"xX c #B5B352",
"cX c #B0AC4F",
/* pixels */
"D.z.A.z.8 a a.a.].&Xg.<.O.] a [ o.X.X.9.f.`.`.).[.'.f.6.6.9.2.X.[ } 2.`.*X&X).].'.'.[.).s 1.uX=X6 1 p.uX7X'.'.`.<.<.uXdX`.`.g.O.",
"l.l.J.J.b  .A.S.G..Xe.:.A } ] g +.+.$.z.B._.{.`.}.^.M.z.z.z.*. .m M k.}.=XXXW._.{.{.XX_.Y 0.pX2Xd 4 *.J. X+X>X+Xw.w.hXsXR.m.*.X.",
"5 6 { d.W.G.{.{..X{._.B.B.G.A.=.3 3 L.aXpXiXdXwXs.7.{..X`.G.v.%.6 5 } $XxXaXpX5X3.:._..XXX.XXX.X<XoXJ.j.b R.(.~.kXlX8X+Xz.$.{ | ",
"a 9 o.f.}.}.XXXX_.W._.}.}.}.L.A.f 0 oXhXhXsXsXdX7.<.G.{.}.}.C.z.9 5 } @XkXuXiX3X:.Y B.}.&X.X{.{.rX<XJ.=.7 4.m.x.jXjXC.8.&.} b [ ",
"g.H.{.^.W.W.{._.3.3._..XW.{.XX.XK.P.K.rXhXaXhXpX2.-.Y 3.}.}.W.B.%.M F ~.T.:._.`.:.:.{.{.:.r.{.{.z.%.J.F.l.P.J.P.P.P.@.} } M M | ",
"&XwX(.^.B.W.{._.3.3.{.XXW._.XX`.K.P.:XjXpXrXrXwX3.:.3.9.}..X}.W.l.@.m 2.y.T.XX{.3.,.G.D.,.7.W._.z.$.c.x.N.P.N.N.x.z.@.{ }  .M | ",
"#X7X+XB.B.G.{.G.;.-._..X_._.:.:.J.x.5XfXy.:.Y C 5.T z k R b.b.n.` ( P H z z Q W 5.M.3.:.>.7.e.f.z.@.2 g 2XeXG.F.>...z.l.%.*.@.| ",
"D. X(. X}.{.{.{.7.,.}.XX_.D.E ;.P.x.0XqXy.Y U C Q c r k R ` b.R.q.! L G j u H W / B.b.w.e.7.2.#.*.@.6  .aXpXXX}.f.t.G.F.z.m.%...",
" .$.3.@XcXiXeXrX3XrXaX2X,.r.eX;Xx.x.5X-XR L R L H k r j H _ ` R.b.E G j k l G P I ` E.R.E E %.F { =.oXrXjXrXpXaXdXiX7.>.{._.X.[ ",
"[ m d V.zXcXhXgXgXgXgXeX;.6.eXJ.k.c.6X' K L P L H j j j l ~ ` R.` R u r j H L I _ Y.Y./ x N B N } l.eXjXpXaXrXpXhXsX7.u. X}.>.O.",
" .m 2 M qXzXzXzXlXxXxXaX2XK.J.%.C c K H R ( P J l k j j H I b.R.^ H w q z J I _ ` Y.U.I z j x c 5.|.2XpXhXrX3.5.hXcXdXeX^.{._.).",
" .m 2 f Z.0XgXjXjXpX2X:X|.V.Q C H J j z E ` ! J H k j r l ~ b.` P j q q u J ~ U.n.R.` ! z j l H T ' E.^.oXeXY ;.eXwXaXrX^._.`.[.",
"&.+.5 3 0 { l.l.c.k.f d Q R c k J J j z E ( P L L l w q j L ( q.R j q - u J I U.R.E.R./ k r l L / ` _ U S >.,.6.S Y sXsXM.M.`.*X",
"X.] 0 g 7 ] l.8.l.k.N V K G j j H H u k R ^ P L P H q , u J ~ ~ H u q q u J I ^ ` n.Q./ k j H _ R.E.` I E ) t.t.y.w.pXpXW._.`.D.",
"5 2 { =. .2.B.B.m.q.W K l j , e k G u j L P P L P H w , z J P L l r q q z J L I _ U.E./ z j L _ E.` L K ` n./.-XuX8XT.0.#X+Xm.>.",
"] d l.x.;.y.Q.W.v.T c j j , , , j k u z G L L L L l q q u G J H u r - q u G H L I ` E.' z j L U.R./ c H ` U.' ' {.|.A Z S.S.#.[ ",
"}. X}.D.-.3.}.{.U z r q q q - q u u u u l J L L J k q q r l G G j w q q r j k J P ( E./ t w L I.I.I l K ` E.v.T Z @.} } $.+.6 5 ",
"7X9X7XW.-.,.B.5.z u q - - - - q r u u u j G J J l u q - w r j k u q q q u j k k k J ` ) w r R U.U.~ G c ' Q.Q.' C Z } @.=.} 3 5 ",
"1X7X(.M._.M.C t r u u w q - - q r u l k j j G G j r q - q w u u w q q u G H k r q u ! P u u P U.Y./ k x / E.W.` ~ T A A n { A.p.",
" X:X(. XXXq.t q w u u u q - q q w u G k u r j l k u q q - - r r - q u G P J k r q w k k u k L I.E./ r z ' E.R.` P J U 0.;.6.oXL.",
"|.|.:X7X@X5.r q q q u r q - q q - w k k w q w k G G j q q - q q - w k P L J j u l k r q q r H I U.! w e / E.Y.~ L c R v.M.{.rX$X",
"z.%.l.^.M.T e = - q r u q - - - - r k k w q w j L L G r q - - - - r G P P H u j L L r = = w l I ^ L w t / E._ I H x c W M.OXrX=X",
"9 3 5 d z e : * - q u u q - * : q j l k r r r j J L H u q - - , w u G J P H u z ~ I u q = q G P P J u z v.E.U.I K k x U W.}.G.p.",
"a 5 5 8 e * & & = q r r q = @ ; q k l l j u u k J L J z q - , w u j u l J J j G ~ ~ G r q r G P L l r k / Y._ P G k G H M.G.9.&.",
"z.$.@.Z i # & & & = q q q - @ ; e k l l j u j G J L J j q - r u l k u u G H G L ^ ^ J j r j H L J j q t ~ I.~ J j j J L A Z #.| ",
"S.z.Q B 4 @ @ & & * = - q - $ ; q j l l u j k H L L H j q q w j l G k u j G J I I I J z r j L P J u q w K ^ I J j j J L B N @.#.",
">.Y B y ; % & $ - : $ * q - $ & - r k l j u k H L L G l u r q q j H J H j j J P P J H z q r R _ L k q q G I ^ L z u H L x z  .H.",
";.S y = $ & & ; - - : = - : $ & * q j l u r k H J J G k j r , q u H L H u r H I I L H u - r L I.^ G q q G ^ _ ~ j j L L H G l.].",
",.-.i $ $ & & & # : w e : & & & & : u j q w k H G G l l j r q q r l H G w w G I ^ I L u - w ! I.I.L q e K I.I.L j z ~ I H c >X[.",
"7.-.8 & & & & & $ : w w : & & & & = q q q w u k l l l k j r - - r j j u q w G I ^ I G u q u R I.I.L e q L I._ P k k ! I H l 1X`.",
"D.m.i & & & & $ - - : : - - $ $ - - $ : r r w r k l j j j r = = w u u u u u H P P J l r w k I ^ ~ G q q H ^ _ ~ l l L L H l 0.1.",
"H.d.i & & & @ * - - * $ - : ; $ = - * : q e - q j G j r r q * ; q u u u r u H L P J u w w x ~ ^ I G q q k L _ ~ H l L L l l >.i.",
"D.S.i & & & $ $ & = , = = & & & $ : y w : = - r k G u r q q - - q w u r q q k J P J j w q u ! I.I G q q j L ^ ^ J G I I H l :.<.",
"d.r.p * & & % % & = = - ; & & & & : w w = # * q u G u q q - q q - q r q q q u H J H k w - w L ^ I G q q u J I I c H ~ _ K l e.1.",
"o.:.e : ; % X o = , ; * , = ; & - - = * : - & : u k w q q - = = - q q q q q k H J G j w - w J ~ J k q q u J P L G H ~ ~ J l 7X&X",
"O.;.t q ; + o o = - ; ; - - $ ; - - * * - - * = q w q - - * @ @ - q - - - w u l l u u q - q G J G r - q u H H H l J ~ ~ H l 1X*X",
"O.:.z q : % % & & = - - = & $ & & : - - = ; - - = : q q = @ + + - q = * - q u u r q w q * > k H u q - q r l l G k J ^ ~ K c V.1X",
">.e.U t : + % % % $ = - ; % % % @ $ - : ; & : - & @ = - ; @ . X = : & & = q r r - - - * @ : r u q - q q w u k l l K ~ ~ x z D {.",
"s.Q./.~ p + o o % & ; ; ; % o o @ ; * * ; & ; ; & ; * * ; @ X X # = & & * : q q : ; ; & @ = q w - q r r q w k G l H L ~ ' W $.$.",
">.n./.V.N % . X + ; ; $ & + . X + @ & & @ @ @ & @ @ @ @ @ + X X + @ ; @ + + - = & @ @ & @ ; = - - q w w - q u G l l K ! |.|.$.[ ",
"a f $.D , $ X . % : , = + . . X X o & & o O & & + X @ @ + X . X X + & & o o & @ + X @ ; & & & : q - = : - q u k l l G G :.3.} ] ",
"7 4 b v < - % X O $ , : + . . X X o + + X o + + X + @ @ + X X .   X @ @ o o @ + X o @ @ & & @ & = - & @ = q q j l l l C ;.,.>.O.",
"&.@.7 5 4 , > O X O & = $ + X X @ @ o o @ @ X o @ @ + + @ @ + . X X X + @ @ X o @ @ o o @ & o o $ * & & $ : - r k H H E ,.u.6.u.",
"p.l.7 5 4 d v % X . + & & @ X X @ @ o o @ @ o O # +   X @ @ X   .     X @ @ + + @ @ o o @ + X o + @ & & & & * q z c Q v.d.d.7.i.",
"9.*.6 4 m M h $ . . % & + X X X X o @ @ o o % & + X X   X + X X X X . X X + @ @ + o @ # O o @ @ X o @ $ $ & & : r x q.^.^.B.7.i.",
"9.#.d 7 } D V w $ o + + o X . X X o % @ X X @ @ X   X X   X   . X   . .   X @ + X X + @ o o @ @ o o & & @ @ % : t c M.`.W.B.7.s.",
"X. .@.#.@.@.Z B , $ o X @ + X X + & + X . X X o X   X X . X . X X X . X . X + X . . X + @ @ o o @ & & @ X o $ e U v.W.W.>.7.{.OX",
"o.Z %.z.c.h.@.V c q $ X @ @ X X @ @ X . X . . . X . X X   X X X X . X . X .   . . X   o @ @ X X @ & & @ X $ e T v._._.W.7.e.^.).",
"6.#.l._.B.B.m.4.4.V , & o . . . X o X . X . X . X . X . . X X X   X X X X . . . X . . X o X X . X O @ & = , C v.2.:.-.e.}.#XN.9.",
"S.l.H.'.`.{. XQ.S.A h q $ . X X .   . . . X . X . X . X X X   X X X X X X X X X . X X . . . . . . O # : r C v.W.e.0.:.r.}._.%.[ ",
">.>.G.XXXX`.}.}.G.v.Q B , = & X . . . . X X . . . X X . X . . X X X X X . X X . X . X . . .   . X & * q C /.Q.~.7X7X@X}..X8.} [ ",
"s.e._.}.XX}.B.).{.}._.E t , < ; + o X X . . . X X . X X . X X X   X . X X . X X X . . X X X o @ ; < , y D {.Q.M.>X>X;X{.&.{ b X.",
"'.}._._.XX{.;.:.`.XXe.E A p < < , * & o .     X . X . X . X . . X X . . . . . . . .   . o @ * - B T V v 4 d h.h.h.k.%.@.3 4 @.d.",
"'.{.W.G..X_.3.3..X.X3.3.M.r.b v t y y : @ o o X . . . . . . . . X   . . .   . . X o o + * y r c q.W.W n 2 4 b m } } } ] 2 2 %.'.",
".X.X0.0.G._.{.{.}.{.;.r.hXaX{.k.V U U t - = @ O .                     .         o & $ , t S Q W W.}.n 2 1 2 } =.@.@.$.] 1 2 l.%X",
"_._.7.0.{.{.{.{.{.{.:.r.jXrXK.x.D Y.) T T z N < = + + + + + + + + + + + + + & : 8 y t x S E M.B.}.}.} 5 2 6 *.A.z.k.8.} 1 4 k.1X",
"s.a.-.r.aXiXXX`.7.,.B.C.e.r.L.N.tXxXjX:X2XC.C S C t - = = - = - = = = = = - y U W 3.T W v.M._..X#X#Xz.M m #.8.m.B.n.l.=.} b h.,X",
"u.7.<.r.aXpXXX{.,.;.^.{.-.2.J.x.yXxXgXjXaX2XA A W T e , - - q - q q q , - w t R R.b.M.n.^.}.XXXX.X_.8.@.$.l.D._.Q.^.D.z.%.} $.@X",
"..Y pXiX7.r.`.{.M.M..X.XG.l.0 f c.6XjXlXxXdXwX3XB.M.{.'.`._.W._.~.`.8.F j.l.x.J.5.E.7X7X1X1X1X$Xm.*.F M 9 &..XXXXXXXXX.X;Xz.} ~.",
":.E iXwX:.7._._.}.}.}.`.J.=.f 6 $.x.6XgXhXrXpXpX X XXX}.`.Q.Q._.).v.%.@.h.j.A.l.m ' -X>X>X-X(.C.#.} @.&...r._._.XXXXXX$X3XL.6.).",
").Q.1.>.`.{.M._.1XuX~.).l.@.x.x.l.x.J.:XB.,X7X3XlXzX7X@X!.!.7X<XG.&.} b 3 g L.J.g 6 h.k.l.j.%.#.} { *.H..X`.:.:.W.^.B._._.{.2X<X",
"f.R.e.e.}. X_.W.<X1X(.R.j.{ *.l.c.l.%.%.l.,X4X4XfXgX4X XR.E. XG.*.} } } f +.yXoXg 3 m } { } M m ] { *..X$X_.3.3.B.B.W._.}. X;XS.",
"d { {.3X(.-X,X(.B.k.4.h.@.M m M M M ] } k.C.C.N.#.#.c.c.l.j.d a M n } $.l.x.&.o.X.} =.#. .@. .} b } m M.@X}.W.W.3.7._..XXXXX;Xc.",
"0 7 .XuX7X@X9X1Xr.[ n | X. . .[ [ [ [ | 2.9.8.6.[ a o. .| [ 0 0 n O.o.a.G.].i.u.i.s.f.9.6.6.>.X.[ | | !.uX'.`.'.1.i.'.&X].*X$XD."
};
