/* XPM */
static char * Game_Boy_Advance___Digimon_Battle_Spirit___Terriermon_xpm[] = {
"32 32 248 2",
"  	c #536777",
". 	c #504E4D",
"+ 	c #4F4A44",
"@ 	c #536879",
"# 	c #505050",
"$ 	c #504C48",
"% 	c #484848",
"& 	c #343434",
"* 	c #323232",
"= 	c #515151",
"- 	c #4A4949",
"; 	c #3E3D3D",
"> 	c #6C6B6B",
", 	c #CFD1D1",
"' 	c #272727",
") 	c #434343",
"! 	c #2F2F2F",
"~ 	c #747E7E",
"{ 	c #A5B3B3",
"] 	c #859090",
"^ 	c #7B8989",
"/ 	c #121111",
"( 	c #2D2E2E",
"_ 	c #444444",
": 	c #B0B5B5",
"< 	c #F5F6F6",
"[ 	c #F9F9F9",
"} 	c #F6F6F6",
"| 	c #A8B8B8",
"1 	c #8F9F9F",
"2 	c #B1B5B5",
"3 	c #BAC9C9",
"4 	c #596060",
"5 	c #4E4E4E",
"6 	c #3C3C3C",
"7 	c #D3D3D3",
"8 	c #FAF9F9",
"9 	c #D1DADA",
"0 	c #A4B5B5",
"a 	c #E3E7E7",
"b 	c #FAFAFA",
"c 	c #A1ACAC",
"d 	c #B3C3C3",
"e 	c #494E4E",
"f 	c #4A4A4A",
"g 	c #C8C7C8",
"h 	c #F8F8F8",
"i 	c #CBD2D2",
"j 	c #98A6A6",
"k 	c #D1D4E3",
"l 	c #F3F4F8",
"m 	c #FAFAF9",
"n 	c #ADC0DE",
"o 	c #BACAC9",
"p 	c #798484",
"q 	c #474747",
"r 	c #515051",
"s 	c #284729",
"t 	c #BFFAC1",
"u 	c #8C9999",
"v 	c #B0BEBE",
"w 	c #F3F3F3",
"x 	c #000044",
"y 	c #E7E8EB",
"z 	c #C8D4D4",
"A 	c #57698E",
"B 	c #9FAEAE",
"C 	c #B4C4C4",
"D 	c #2B2929",
"E 	c #4F4F4F",
"F 	c #55565B",
"G 	c #92ED97",
"H 	c #00F82D",
"I 	c #E6F6E7",
"J 	c #8E9B9B",
"K 	c #B1BFBF",
"L 	c #D8D7D7",
"M 	c #C5A0A0",
"N 	c #E9E4E4",
"O 	c #415F4E",
"P 	c #ADBDBD",
"Q 	c #1E4C1C",
"R 	c #778483",
"S 	c #EFF2F1",
"T 	c #E0F8E1",
"U 	c #F0F3F0",
"V 	c #373F3F",
"W 	c #839191",
"X 	c #DEE4E4",
"Y 	c #686161",
"Z 	c #CF9696",
"` 	c #F2EFEF",
" .	c #436150",
"..	c #ADBFBD",
"+.	c #007500",
"@.	c #4B4A4B",
"#.	c #1A2B1A",
"$.	c #00AD0A",
"%.	c #40F24F",
"&.	c #E6F9E7",
"*.	c #A8B2B3",
"=.	c #3B3A3A",
"-.	c #363737",
";.	c #AAB1B1",
">.	c #E7EBEB",
",.	c #F0F2F3",
"'.	c #A9A9A9",
").	c #B4B4B5",
"!.	c #686E6E",
"~.	c #778788",
"{.	c #B2C2C2",
"].	c #90A69D",
"^.	c #3E463E",
"/.	c #333937",
"(.	c #C4D6CC",
"_.	c #6BF773",
":.	c #AFFAB2",
"<.	c #656465",
"[.	c #363939",
"}.	c #677273",
"|.	c #577F60",
"1.	c #678C6B",
"2.	c #7B987B",
"3.	c #5F825F",
"4.	c #3A4B43",
"5.	c #788888",
"6.	c #899999",
"7.	c #91B89E",
"8.	c #093B08",
"9.	c #393738",
"0.	c #91AF9E",
"a.	c #C9D6CE",
"b.	c #FBF9FB",
"c.	c #FCFAFC",
"d.	c #656565",
"e.	c #6E6D6D",
"f.	c #CAD2D2",
"g.	c #D1DADB",
"h.	c #9CAF9E",
"i.	c #00A80B",
"j.	c #05B330",
"k.	c #7E968B",
"l.	c #8FA09F",
"m.	c #3A7348",
"n.	c #7A8A8A",
"o.	c #A1BFB0",
"p.	c #2B432F",
"q.	c #3E373D",
"r.	c #00B32B",
"s.	c #4EC85C",
"t.	c #79D482",
"u.	c #BDE5C0",
"v.	c #646464",
"w.	c #4D7A54",
"x.	c #EBEFEB",
"y.	c #B0C3B0",
"z.	c #9EB5AC",
"A.	c #BAC9CA",
"B.	c #6AA874",
"C.	c #70AC7C",
"D.	c #535E5C",
"E.	c #5A8762",
"F.	c #233927",
"G.	c #324631",
"H.	c #1DCF3A",
"I.	c #35F447",
"J.	c #37F748",
"K.	c #26DD38",
"L.	c #0E4515",
"M.	c #657273",
"N.	c #6F7E7E",
"O.	c #D1D5D5",
"P.	c #C4C3C3",
"Q.	c #000000",
"R.	c #445154",
"S.	c #236128",
"T.	c #00B023",
"U.	c #00C537",
"V.	c #332932",
"W.	c #005F00",
"X.	c #33EB42",
"Y.	c #0BB829",
"Z.	c #34F246",
"`.	c #2AE742",
" +	c #0C5018",
".+	c #2F2D2D",
"++	c #B2BFBF",
"@+	c #C3C3C3",
"#+	c #000E00",
"$+	c #005C00",
"%+	c #009200",
"&+	c #009B09",
"*+	c #00BF33",
"=+	c #332A33",
"-+	c #006000",
";+	c #29DE3D",
">+	c #009E20",
",+	c #33F146",
"'+	c #009C28",
")+	c #2F302F",
"!+	c #EBEAEB",
"~+	c #FAF9FA",
"{+	c #E6EBEB",
"]+	c #E5E9EA",
"^+	c #8F9C9C",
"/+	c #1F3E1F",
"(+	c #008E00",
"_+	c #00BE33",
":+	c #374437",
"<+	c #009613",
"[+	c #008422",
"}+	c #13B123",
"|+	c #2D5531",
"1+	c #3B383B",
"2+	c #71A771",
"3+	c #7AD483",
"4+	c #788879",
"5+	c #576264",
"6+	c #579C61",
"7+	c #447F4B",
"8+	c #242324",
"9+	c #3E3C3E",
"0+	c #006D00",
"a+	c #027000",
"b+	c #01B732",
"c+	c #323032",
"d+	c #005300",
"e+	c #2B402B",
"f+	c #1E3032",
"g+	c #667273",
"h+	c #3A3D3E",
"i+	c #454545",
"j+	c #162A2D",
"k+	c #445354",
"l+	c #3A3E3E",
"m+	c #333233",
"n+	c #3F3E3F",
"o+	c #332F33",
"p+	c #3E3E3E",
"q+	c #546A7C",
"r+	c #505356",
"s+	c #484A4E",
"t+	c #4F5255",
"u+	c #515356",
"v+	c #494C4F",
"w+	c #474A4D",
"x+	c #484B4E",
"y+	c #504F4F",
"  . . . . . . . . . . . . . . . . . . . . . . . . . . . . . . + ",
"@ # # # # # # # # # # # # # # # # # # # # # # # # # # # # # # $ ",
"@ # # # # # # # # # # # # # # # # # # # # # # # # # # # # # # $ ",
"@ # # # # # # # # # # # # # # # # # # # # # # # # # # # # # # $ ",
"@ # # # # # # # # # # # # # # # # # # # # # # # # # # # # # # $ ",
"@ # # # # # # # # # # # # # # # # # # # # # # # # # # # # # # $ ",
"@ # # # # # # # # # # # # # # # # # # # # # # # # # # # # # # $ ",
"@ # # # # # # # # # # # # # # # # # # # # # # # # # # # # # # $ ",
"@ # # # # # # # # # # # # # # # # # # # # # # # # # # # # # # $ ",
"@ # # # # # # # # # # # # # # # # # # # # # # # # # # # # # # $ ",
"@ # # # # # # # # # # # # # # # # # # # # # # # # # # # # # # $ ",
"@ # # # # # # # # # # # # # # # # # # # # # # # # # # # # # # $ ",
"@ # # # # # # # # # # # # # # # # # # % # # # # # # # # # # # $ ",
"@ # # # # # # # # # # # # # # # # # & * # # # # # # # # # # # $ ",
"@ # # # # # # # # # # # # # = - ; > , ' = # # # # # # # # # # $ ",
"@ # # # # # # # # # # # # ) ! ~ { ] ^ / ( # # # # # # # # # # $ ",
"@ # # # # # # # # # # = _ : < [ } | 1 2 3 4 5 # # # # # # # # $ ",
"@ # # # # # # # # # # 6 7 8 9 [ } 0 a b c d e = # # # # # # # $ ",
"@ # # # # # # # # # f g h i j [ } k l m n o p q # # # # # # # $ ",
"@ # # # # # # # # r s t } u v [ w x y z A B C D # # # # # # # $ ",
"@ # # # # # # # E F G H I J K [ h b L M N O P Q 5 # # # # # # $ ",
"@ # # # # # # # 5 R S T U V W X h b Y Z `  ...+.@.# # # # # # $ ",
"@ # # # # # # = #.$.%.&.*.=.-.;.>.,.'.).!.~.{.].^.# # # # # # $ ",
"@ # # # # # # # /.(._.:.<.= [.}.|.1.2.3.4.5.6.7.8.= # # # # # $ ",
"@ # # # # # # 9.0.a.b.c.d.e.f.g.h.i.j.k.l.m.n.o.p.= # # # # # $ ",
"@ # # # # # # q.r.s.t.u.v.w.x.h h y.z.A.B.C.D.E.F.# # # # # # $ ",
"@ # # # # # E G.H.I.J.K.L.M.N.O.h h [ P.Q.R.S.T.U.V.# # # # # $ ",
"@ # # # # # 5 W.X.Y.Z.`. +.+++[ h h h @+#+$+%+&+*+=+# # # # # $ ",
"@ # # # # # 5 -+;+>+,+'+@.)+!+~+[ {+]+^+f /+(+-+_+=+# # # # # $ ",
"@ # # # # # # :+<+[+}+|+E 1+2+3+4+5+6+7+8+9+0+a+b+=+# # # # # $ ",
"@ # # # # # # = c+d+e+= # _ f+g+h+i+j+k+l+= m+n+o+p+# # # # # $ ",
"q+r+r+r+r+r+r+r+r+s+t+r+r+u+v+w+t+u+v+x+t+r+u+u+u+u+r+r+r+r+r+y+"};
