/* XPM */
static char *aabf60e83dc34083d741cabfe6d9caa2Aur7QTAlzmNX6kga[] = {
/* columns rows colors chars-per-pixel */
"32 32 217 2 ",
"   c #05030F",
".  c #0C0612",
"X  c #0E0A12",
"o  c #130B14",
"O  c #1C0F16",
"+  c #151313",
"@  c #1D1216",
"#  c #1C1916",
"$  c #221317",
"%  c #241419",
"&  c #2A1619",
"*  c #231B19",
"=  c #2D1B1D",
"-  c #211B14",
";  c #311B1D",
":  c #3A1D1C",
">  c #252715",
",  c #2B241B",
"<  c #2C2C1A",
"1  c #252618",
"2  c #31251D",
"3  c #392A1B",
"4  c #2A3217",
"5  c #2A331A",
"6  c #35351D",
"7  c #38351E",
"8  c #343A1B",
"9  c #3B3C1E",
"0  c #373C17",
"q  c #351E21",
"w  c #342721",
"e  c #3B2322",
"r  c #352922",
"t  c #3C3620",
"y  c #353C20",
"u  c #3D3A20",
"i  c #43221F",
"p  c #452F1A",
"a  c #46321F",
"s  c #453A1C",
"d  c #442422",
"f  c #4B2522",
"g  c #422925",
"h  c #4C2A22",
"j  c #4E2C29",
"k  c #512720",
"l  c #552A23",
"z  c #5B2E25",
"x  c #532F2A",
"c  c #5B2F28",
"v  c #423B22",
"b  c #4A3725",
"n  c #56312B",
"m  c #5C322C",
"M  c #553629",
"N  c #603127",
"B  c #62352D",
"V  c #613C2E",
"C  c #6C3C2A",
"Z  c #623630",
"A  c #653931",
"S  c #6A3B32",
"D  c #713E31",
"F  c #3A441D",
"G  c #3D4420",
"H  c #45451E",
"J  c #46491E",
"K  c #494B1D",
"L  c #48451E",
"P  c #514C1F",
"I  c #5D441F",
"U  c #644B1E",
"Y  c #474A24",
"T  c #4C4C23",
"R  c #494323",
"E  c #544325",
"W  c #5C4625",
"Q  c #534E24",
"!  c #5D4B24",
"~  c #5D4B2A",
"^  c #554F28",
"/  c #535424",
"(  c #5B5624",
")  c #5B5B25",
"_  c #565528",
"`  c #5A532B",
"'  c #5B592A",
"]  c #565E22",
"[  c #5D4532",
"{  c #634623",
"}  c #654B24",
"|  c #6A4C24",
" . c #6A4D2A",
".. c #634B2B",
"X. c #714A23",
"o. c #635124",
"O. c #6C5523",
"+. c #615D27",
"@. c #63532C",
"#. c #6C522A",
"$. c #645B2B",
"%. c #6A5B2C",
"&. c #6A5B22",
"*. c #715426",
"=. c #77592A",
"-. c #76562D",
";. c #744434",
":. c #774933",
">. c #7C4936",
",. c #7C4736",
"<. c #6A5632",
"1. c #735334",
"2. c #785938",
"3. c #6E4837",
"4. c #5E6125",
"5. c #5E6028",
"6. c #646527",
"7. c #64642B",
"8. c #6A642D",
"9. c #6A6A2B",
"0. c #696627",
"q. c #72642C",
"w. c #726C2D",
"e. c #7D6A2D",
"r. c #7C642D",
"t. c #73742E",
"y. c #7E732F",
"u. c #6C6432",
"i. c #6A6A30",
"p. c #746433",
"a. c #796432",
"s. c #7D6B31",
"d. c #766B36",
"f. c #797535",
"g. c #7A7735",
"h. c #7E5642",
"j. c #81581B",
"k. c #835B23",
"l. c #834D39",
"z. c #814D36",
"x. c #85503A",
"c. c #8C543B",
"v. c #93573C",
"b. c #94593D",
"n. c #985C3E",
"m. c #826D2E",
"M. c #8B6127",
"N. c #9C6F2F",
"B. c #95762E",
"V. c #846435",
"C. c #836D33",
"Z. c #8A6C34",
"A. c #826D39",
"S. c #8C6B38",
"D. c #916F3C",
"F. c #857234",
"G. c #8A7435",
"H. c #847B36",
"J. c #8D7833",
"K. c #85713A",
"L. c #8A743A",
"P. c #877C3A",
"I. c #917539",
"U. c #957A3B",
"Y. c #957A34",
"T. c #87752E",
"R. c #895845",
"E. c #9A5D40",
"W. c #966B48",
"Q. c #9A714B",
"!. c #A56649",
"~. c #B16E4F",
"^. c #B4734F",
"/. c #AE6E54",
"(. c #B97855",
"). c #A77A51",
"_. c #8B833A",
"`. c #8F883C",
"'. c #8C8235",
"]. c #9D8535",
"[. c #9C823B",
"{. c #94883A",
"}. c #9A9A3E",
"|. c #96802A",
" X c #A0892C",
".X c #A48933",
"XX c #A48C3B",
"oX c #A28539",
"OX c #AB923C",
"+X c #B39439",
"@X c #A4A93B",
"#X c #9A8E42",
"$X c #968C45",
"%X c #9D9345",
"&X c #979044",
"*X c #A68D4C",
"=X c #A39945",
"-X c #AA9E47",
";X c #A69C4B",
":X c #A99D4C",
">X c #A2944A",
",X c #AA9F52",
"<X c #ABA44C",
"1X c #B4AC4C",
"2X c #B9B64E",
"3X c #BFBB4F",
"4X c #ADA151",
"5X c #B6B252",
"6X c #C58556",
"7X c #C6915E",
"8X c #D2955E",
"9X c #CC8761",
"0X c #D18F62",
"qX c #CE9B63",
"wX c #D89B65",
"eX c #E09E68",
"rX c #CBC75F",
/* pixels */
"p.p.t <.V.2.W v ` ~ a.Z.D.2.#.@.L @.W.V.S.D.{ *X7 %.oXZ. .*XZ.2.",
"6 Y e.F.K.e.m.u.5 g.=X>X-.C.C.9.8 T 5X=XO.C.L.L.`.d.Y N.1XXXq.Y ",
"2.F.m.Z.O.Z.m.L.g.g.<X1XO.{ J.C._ / k.C.| F.#.F.q.f.6.t.t./ T L ",
"I.'.s.F.} C.G.X.f.}.| 3 % % @ O * , = ! p.O. .1.8.4 {.s...8._ / ",
"^ O.1X#X#X=X .$Xi.}.3 e W.x.C :.).qX7Xb s B.M.5.T g.=X=X=X#.F.^ ",
"Q 5 @X3X2X5X`.f.y _ b R.~.6X(.~.0XeX6XQ.[ 6 0 5.g.<X<XO.<X%XF.s.",
"` 6 8 7.i.8 t.i.6 o R.~.v.7XwX/./.!.v.8X).o _ d.T M.~ #.I -Xr.Z.",
"6 T P e.a.#X=XF t o r x.(.9X(.!.v.^.wXW.r X E p._ 9.OX XOXk.I.r.",
"F.J.{ G.C.}.,Xm.E . $ M R.h.3.V m 1.Q.[ O . a w./ K / / / T _ 8 ",
"[.B.C.s.C.#X4XC.E o i h , 2 , 2 r 2 2 m c O E ~ 8 F 0 $.s.o.H i.",
"H.'.[.e.C.-X} C.E o i z f i i f j A ;.c.,.x = 6 i.d.K.C.J.F.e.&X",
"9 6 o.XX.XY.G.s.6 o i N l c z z z 3.l.E.v.;.= . W o.K.&.o. .G.s.",
"7./ 4.w.0._ Q T < X i l z N Z l h z Z l.c.S = # Y.U J.|  .G...] ",
"} <.! ! s.8./ ] < X i z l B A Z c S l.c.v.c.e + 9.].K.m.L.=.H Q ",
" .Z.J.| L.} :X8.7 o i z l B S S Z ,.b.b.b.n.g # 8 / *.C.k.! ) '.",
"a.Z.K.K.F.| :XC.v o i z l B S A Z ;.c.b.b.v.g # u 7.}.+XF.6.'.=.",
"a.L.Z.C.m. .-X%XT . i z l z m S A S ;.l.n.b.e # }.{._ ) T 6.OX} ",
"..*.F.e.;X&X_.0 t % f z l k l m Z m Z >.n.b.n % p.b 9 u y F ( [.",
"~ } e.U.6.8 4 * & l l l l l l l h z A l.b.v.,.l +   X . 3 `.4 9.",
":..XrXY 1 # * ; k l l k k m B B m Z Z l.b.v.D h : d n x e u &X/ ",
"u ) F < $ $ % l N l k l c Z S Z Z Z Z l.n.b.;.z c m n Z q . *.T ",
"_ F 4 @ i z l l l l k c Z S B l k z Z l.b.v.b.z.N & . X X X <.#.",
"%.8 R X & ; & $ d S B A S B l k k S c.:.S ;.n.z.% v d.u.a E F.#.",
"~ / / # - , % + ; m Z A B l l c d l :.N k m l.,.; a $X-XG.G.| C.",
"` u.m.%.$._ q.oX3 o d m l k B S =   + i z z B ,.c.g , e.#.} G.r.",
"..C.G.G.m.8.P 9.9   : N C S c w , t i.& ; & $ j l.l.j a q.].f.T ",
"S.m.L.} F.=.U 5 , @ h m c Z e X > Q M.2 @ # o * j l.;.O < 4.6 / ",
"A.=.C.C.G.} %X, & l D j o o w W ' / T.J.p.r.W ! o @ O . < / > $.",
"1.{ ;XG.#.m.{ o O : d = v v  .m.L.9 9.O.Y.C.e.A.E 6 1 7 o.8.Y 4.",
"W =XO.K.s.L.8.+ X X . v e.C.Z.s.G.+.4.i.&..XoX].p./ G F.L.L._.K ",
"c.O.F.e.[.N.8.8.7.t.e.].2XXXM.XXs.T 4 g.F ) 7._ T ' L.| m.e.C.{.",
"F H.B.].e.4._ K J R 6.y.( 0.6.G K T i.@.Q _ / Q J L [.m.O.K.Z._."
};
