/* XPM */
static char *_9f434bb91754bc8b7b3f4e403948f3cwX4N6wb2BoMTncFt[] = {
/* columns rows colors chars-per-pixel */
"64 64 246 2 ",
"   c #05030F",
".  c #0C0712",
"X  c #0D0A12",
"o  c #070510",
"O  c #130B14",
"+  c #1B0E16",
"@  c #141313",
"#  c #1C1415",
"$  c #1C1915",
"%  c #1F1819",
"&  c #221317",
"*  c #211B16",
"=  c #241419",
"-  c #2A1619",
";  c #241B19",
":  c #2C1B1C",
">  c #321C1C",
",  c #3C1E1D",
"<  c #200F15",
"1  c #242516",
"2  c #2B221B",
"3  c #2C2C1A",
"4  c #272818",
"5  c #32231C",
"6  c #3B2D1D",
"7  c #37271C",
"8  c #2C3316",
"9  c #2D341A",
"0  c #2B361B",
"q  c #34341C",
"w  c #343B1B",
"e  c #3A3D1D",
"r  c #36361B",
"t  c #361E21",
"y  c #3A1F20",
"u  c #3C2322",
"i  c #382922",
"p  c #3B3521",
"a  c #3C3B21",
"s  c #353920",
"d  c #2D2020",
"f  c #43221F",
"g  c #49281E",
"h  c #44321E",
"j  c #47381E",
"k  c #52351E",
"l  c #442522",
"z  c #4B2521",
"x  c #432B24",
"c  c #4B2A24",
"v  c #4D2B29",
"b  c #512721",
"n  c #552A23",
"m  c #5A2D25",
"M  c #532E2A",
"N  c #5A2F28",
"B  c #433D22",
"V  c #4A3D23",
"C  c #493528",
"Z  c #55312B",
"A  c #5C312B",
"S  c #57372A",
"D  c #5E3C33",
"F  c #623127",
"G  c #62352D",
"H  c #633A2E",
"J  c #6B3B2D",
"K  c #6B3B28",
"L  c #623630",
"P  c #663931",
"I  c #6A3C32",
"U  c #713F33",
"Y  c #713E2E",
"T  c #3B431D",
"R  c #34401C",
"E  c #3C4321",
"W  c #44451E",
"Q  c #45491D",
"!  c #494C1E",
"~  c #4A461E",
"^  c #574A1E",
"/  c #4F541E",
"(  c #64491E",
")  c #71561D",
"_  c #454522",
"`  c #4D4423",
"'  c #454A21",
"]  c #4B4C22",
"[  c #534424",
"{  c #534C24",
"}  c #5B4C25",
"|  c #544B29",
" . c #5C4B2A",
".. c #5A4529",
"X. c #4E5123",
"o. c #535424",
"O. c #5B5425",
"+. c #5B5A26",
"@. c #5D5B29",
"#. c #585727",
"$. c #5B4432",
"%. c #654B24",
"&. c #6A4D24",
"*. c #634D2A",
"=. c #6A4D2A",
"-. c #654726",
";. c #734A2B",
":. c #625124",
">. c #6C5324",
",. c #64542B",
"<. c #6C522B",
"1. c #635B2B",
"2. c #6B5B2D",
"3. c #665C26",
"4. c #725425",
"5. c #7B5D26",
"6. c #73562A",
"7. c #745A2B",
"8. c #7B5B2C",
"9. c #785628",
"0. c #6D4231",
"q. c #6A4836",
"w. c #734334",
"e. c #7A4634",
"r. c #754C32",
"t. c #7C4936",
"y. c #7B4A39",
"u. c #6B5C31",
"i. c #6A5431",
"p. c #745233",
"a. c #745C32",
"s. c #7A5B33",
"d. c #77573C",
"f. c #5D6125",
"g. c #5E602A",
"h. c #626326",
"j. c #64632B",
"k. c #6B642C",
"l. c #6C6B2D",
"z. c #686628",
"x. c #73642D",
"c. c #7C642C",
"v. c #726B2D",
"b. c #7D6A2D",
"n. c #786426",
"m. c #7A752D",
"M. c #6C6532",
"N. c #6C6B31",
"B. c #666132",
"V. c #746432",
"C. c #7B6433",
"Z. c #746B33",
"A. c #7D6B33",
"S. c #7B6938",
"D. c #757332",
"F. c #7D7A35",
"G. c #7B7636",
"H. c #7E5841",
"J. c #845C23",
"K. c #824D36",
"L. c #834D39",
"P. c #86503A",
"I. c #8C543B",
"U. c #88543A",
"Y. c #91573C",
"T. c #94593D",
"R. c #9A5D3E",
"E. c #826D2E",
"W. c #896629",
"Q. c #94692A",
"!. c #89762D",
"~. c #94752D",
"^. c #836D33",
"/. c #896B34",
"(. c #826C3A",
"). c #8C6D3A",
"_. c #876537",
"`. c #916E3B",
"'. c #857234",
"]. c #8A7434",
"[. c #837D34",
"{. c #8D7B33",
"}. c #86723A",
"|. c #8A743A",
" X c #877C39",
".X c #937B34",
"XX c #927A3A",
"oX c #967936",
"OX c #81581B",
"+X c #9B5D41",
"@X c #955F4A",
"#X c #885945",
"$X c #896643",
"%X c #9A6546",
"&X c #967845",
"*X c #A56749",
"=X c #AA724A",
"-X c #B3744E",
";X c #AB7853",
":X c #B97956",
">X c #AE6E51",
",X c #C27B56",
"<X c #8B843C",
"1X c #898435",
"2X c #938234",
"3X c #9C8534",
"4X c #94843B",
"5X c #9D823A",
"6X c #9B8B3D",
"7X c #988A39",
"8X c #9B953D",
"9X c #96802A",
"0X c #A58938",
"qX c #A7943B",
"wX c #A98F33",
"eX c #A3A63D",
"rX c #9BA33E",
"tX c #948B41",
"yX c #9B8E43",
"uX c #968945",
"iX c #9D9344",
"pX c #9B9346",
"aX c #8C8442",
"sX c #A68944",
"dX c #A19545",
"fX c #A49A45",
"gX c #A59B4A",
"hX c #A99E4B",
"jX c #A59849",
"kX c #BB8857",
"lX c #AA9553",
"zX c #ABA34C",
"xX c #A8A745",
"cX c #B3AB4B",
"vX c #BAB74D",
"bX c #B6B451",
"nX c #AFA452",
"mX c #C5865A",
"MX c #C8915E",
"NX c #D3935E",
"BX c #D69864",
"VX c #CE9162",
"CX c #DAA267",
"ZX c #EDAE6E",
"AX c #E09E68",
"SX c #CBC75F",
/* pixels */
"V.k.Z.u.r V i.u._.$XK.=..._ B ` | | | 2.8././._.`.`.8.,.3.2.*.| ` ` 3._.&X$X_._.).`.`._.K ;.lXXXr 3 k.sX0X|././.=.;.lXsX/./.s...",
"j.j.D.D.W { M.M.'.].6.%.} ! ' E X.] #.k.b.E.^.^.].E.b.k.k.k.@.{ Q ! f.].XX).b.^.'.].|.^.( >.dX7XR q @.D.!..X2X.X5.9.zXjXc.k.@.{ ",
"r w ' a.E.A.'.'.'.'.E.E.^.b.M.#.0 0 G.pXgXdXjXuXp.r.^.}.^.^.x.+.w q ] .XbXjXfXqX>.( ^.|.|.|.|.'.<X1XD.g.W W.~.~.cXbX0XoXx.o.' [ ",
"e E  .s.].].|.|.^.A.^.].].'.G.M.E s 1XcXzXhXhXjX<.*.A.'.].].b.k.e q ] 5XnXyXiX8X%.( b.'.}.}.^.].pX4XD.o.T +.7.l.xXxXm.j.+.Q W [ ",
"d.(.!.E.E.E.'.^.>.>.'.'.E.E.|.}.F.D.F.iXzXhXzXgX>.} %.>.|.|.E.b.+.' X.Q.J.&.^.^.=.&.'.^.<.<.].'.x.@.D.l.j.l.D.v.D.l.o.] ] ' ! [ ",
"$XuX.XE.b.E.'.'.>.>.'.|.E.^.|.}.F.l.1XxXfXtXB.3 . . . X X X . X . X X X O >  .^.>.=.E.A.=.<.E.^.k.o.l.l.v.D.Z.N.l.z.o.' ] { ! ` ",
"oX0X.Xb.b.b.'.A.-.-.^.}./.^.&.( D.N.8XeX=.^ i : = = % + + # # + ; : d d : 7  .7.V.A.>.%.=.<.9.s.k.o.8 E 7XtXA.Z.*.} k.j.#.@.o.{ ",
"C.{.~.!.{.^.'.'.,.<.'.|.^.E.&.%.l.l.rX8Xk > d v P D M l f f c S $.H.H.S.H.$.B j ,.E.n.9.p.6.,.o.+.o.q o.pXzXXX'.s.9.A.v.x.x.+.} ",
"{ +.3.~.cXpXiXiX6XyXiX8X&.7.uX<XN.N.rXF.2 @ x H.*X+XL.Y J J e.#X=XkXCXCXMX$XB $ j n.~.Q.W.9.3./ ' o. XiXfXfXfXfXgXjX<.*.'.^.} V ",
"~ ! T v.bXcXxXxXcXxXcXiX-.@.aXG.@.j.<X+.* - P @X:X,X-X`.R.T.%X-XMXAXZXZXAX;Xq.d 4 ~ O.O.O.^ X.Q X.u.pXhXfXfXfXhXnXgX6.=.{.'.,.$.",
"{ Q 8 Q eXvXvXvXvXvXbXpX<XF.G.j.s 9 #.| Z q.#X@X>X,XkXmX:X-X>X:XVXAXZXBXmX;X&XH.$.p 6 q w ! g.j.G.pXzXxXzXiX4.3.gXnXpXtX!.'.A._.",
"| Q 8 R [.eXxXxXxXiX8X<X1XD.N.@.0 $ d S d.*X*X+XR.-XMXNXNX,X>X:X:XkX:X*X+X=XMXMX&X$.* 1 w X.j.M.[.xXxXtXyXaX^ ( uXpXgXdXE.E./.`.",
"#.] s 0 s ' j.j.j.j.w E D.z.N.g.r @ O Z #X:X>X@XY.=XMXAXBXmX>X>X>X>X*XY.Y.-XBXCX;X$.@ @ | G.Z.j.Q J.J.&.*.-.,.*.^ ( hXhXc.c.'.%X",
"| _ R s e _ j.1.j.j.' o.F.D.N.g.e O O i q.@X*X@X*X,XVXBXBX:X>X*X@X>X*X-X-X:XkX;XH.C O $ #.<XG.N.' O.5.5.5.x._.8.9.J.fXdXE.^.^.A.",
"q 8 ] +.^ >.b.b.C.A.yXdXfX<XE R s @ O % d D H.@X,X,XVXmX,X>X+X+X@X+X:XNXBXMX%X$.i % X ; [ C.M.@.o.o.v.3XqXwXwX3XqX0XJ.) oX{.x.*.",
"_ T j.k.( 9.E.'./.|.gXxXnXiX+.E B % X X @ i D @X>X:X>X*X+X#XP.t.U I.*XMXBXsXi.i O X X ; [ _.A.B.o.Q +.F.9X!.m.!.1X X^ [ V.c.#.` ",
"].{.].c.-.=.|.].^.^.8XfXnXjXb.k.[ * . + & 7 S w.H.#XH.H.q.q.-.S S -.d.$X&XH.q.u < . . # C 7.v.g.o.! ! / o.o.o.o.o.o.] ] o.X.w r ",
"0XqX0XE.-.<.{.|.^.^.6XfXlXjX'.b.| * O & , g Z C C S C C C x x i x x C C $.S S Z y & o $ j 4.v.@.o.' ! ! W ~ / { o.{ o.o.#.' 0 q ",
"0XwX~.b.^.^.^.b.E.'.6XdXnXjX^.c.[ ; . - g n c u 2 2 2 5 d d i i i i d d d C G I A y O ; V s.*._ s 0 w T w T 1.Z.A.C.:. .~ _ N.u.",
"|.1X~.].|.'.b.E.^.^.dXdXuXuX'.x.[ ; O - z m n f > 5 > > 5 5 5 u i i x p x S w.e.U M t : h V B E E E _ ] { o.C.'.oX|.8.9.%.@. XG.",
"{.[.1X0XXX/.b.E.^.^.hXiX-.>.^.b.[ ; O - f m m z z l f f f l z c M A D 0.e.K.P.P.y.I A u : ; p ] l.F.Z.S.}.'.'.'.'.!.!.'.E.'.yX&X",
"k.+.j.[..X{.{.{.{..XfXqX>.6.b.x.V & . - f n m m n n m n m b n m A P w.L.Y.T.R.T.I.L.U v - O @ a l.1XA.^.XX}.E.E.m.'.E.A.E.].pX4X",
"a 8 q T ^ ~.0X0X0X3X.X].|.].A.1.r @ . - f m m m m N F N m n n m m G U e.L.Y.T.T.#XL.U M > O X 4 ..=.&.4.}.}.>.>.=.&.=.p.|.].A.u.",
"_ q q e ! W.4X4X2X{.m.x.x.x.1.o.3 @ O - f n m n n m G G F m n c n m G G I K.I.Y.Y.L.I v : O X j 8.6.&.>.}.S.>.>.&.&.<.7./.A.k.*.",
"1.#.o.o.+.z.v.Z.z.h.#.{ o.o.] _ 3 @ O - f n m n n m G I L m n n b n m A P e.L.Y.I.L.I v t O $  .oXE.( >. X'.<.<.<.<.].^.%.{ +.{ ",
"Z.l.z.z.j.h.j.j.j.+.o.' ] ] ] ` 3 @ O - f m m n n F G I P G m m n m G G I y.P.I.Y.I.e.N t O $ [ !.].) >. X}.<.<.<.<.|.|.^ e /  .",
"&.%.i.i.%.} ( :.A.A.k.+.o.o.+.o.3 @ . - f n m n n N G I P L L L A G I w.L.P.Y.I.Y.R.P.K y O O 3 l.qX5X'.^.'.b.b.}.}.7.4.W w { C.",
"-.4.d.s.4.4.( 4.|.|.V.1.Z.x.h.o.8 @ O - f m m n n m G P I P L L L P U L.I.T.T.T.R.`.T.0.f O @ 3 X.[.2X].^.A.E.A.|.XX<.[ _ W B.).",
"=.4./. X{.^.&.-.|.|.-.2.hXpXk.o.6 $ O = f m m b n A L P I I I P L I e.P.T.R.T.Y.T.+XR.e.x O @ q q E ] W.OX( /.}.5.Q.} e +.1X2X].",
"=.4.^.|.].^.=.6.'.}.&.8.nXjXx.#.p $ O - f n m n n N L I I P P P L P w.P.T.R.T.Y.R.R.R.w.x O % B s 0 Q x.n.n.XX.X5.5./ T l.3X3X).",
"S.).E.E.|.'.}.).'.^.&.9.hXjX^.x.B $ O - f n m n n m L P I P P L L P w.K.I.T.Y.I.T.R.T.w.l O $ V E w j.F.8XcXwXwXE.+.h.[.1X{.4.;.",
"C.|.E.E.'.'.}.}.'.'.%.7.hXjX].b.B @ . = f m m n n m A G L P I P P P 0.e.K.U.I.I.T.%XT.0.u X % [ O.X.N.N.1XeX0X.Xj.' g.wXwXE.*.r.",
"C.'.|.|.E.!.^.'.E.E.,.a.zXgXiX<X] $ . & f m m n b m m M A L I I P I I I w.y.L.I.R.+XR.Y 7 . * } yXiX7XD.o.@.+.+.X.' f.qXqXE.%.r.",
"a.|.|.|.W.E.^.].'.E.,.u.8X7X<XZ._ $ . - f m m n m b b m A L P I P P P L P w.L.I.R.+XT.w.l O $ ` iXzXiX[.X.W W ' ' ] f.m.2X{.9.;.",
"$.7.4.7.'./.b.E.hXzXpXaX1Xj.w q p ; - , f m m n n c b b n A A L A A L A P I L.I.R.+XT.e.M > = 7 M.G.` r E q s _ a s R e o.~.5X).",
"$.4.&.>.^.'.E.'.iXtXF.N.j.' 1 * 2 > f z b b m m b b b b b n m m m m Z A L w.y.I.T.R.Y.K.0.M u : p s $ @ * $ % d a ` ' e w 3.5X&X",
" .<.-.:.C.A.XX|.h.! w 8 8 4 ; O - l n m n n n b m b m b n n n b b n m A P w.L.I.T.T.Y.P.L.I v - O o o . . . . + i *.<XD.8 w l.5X",
"*.s.9.c.4XXX(.1.W w 4 4 4 4 $ - , n m F m n c b b m m A m m M m m M A A P w.L.I.T.T.Y.I.L.I N , = + + - : : d - 6 V D.M.E q / '.",
"6.~.3XqXSXbX' 4 4 1 $ $ ; - - f b n m m n n n b b m Z A G A G G G A G A P w.L.I.R.R.Y.L.Y N z f y y l M M A M l u > a B pXF.+.+.",
"*.n.9X7XbXrXE * % X o o + - f n m m b b n m b b n m G P I P P P P P L G P w.y.I.T.T.Y.L.J n b g b n N P I U I A y # O O gX7Xo.W ",
"B R f./ T 8 9 2 < < < < = f n F F m n b n n n n m A P P I P L L P L L L L U L.I.+XR.T.K.e.F m m F N A A Z L L v > O . . 4.<.] B ",
"e 9 Q T 8 $ ; 5 , f f f f b m F F b b b b n n A G L I I P G A m m A N N L U L.T.%XR.T.I.K.e.;.K F n l y t t t : = O . . =.<.O.$.",
"O.o.T 9 4 . @ > f m m n b n n m b b b b b n N G P I I P G A n b n n M N P w.K.Y.R.T.Y.T.T.Y.K.0.F f : @ o . X X . X . . p.i.<.=.",
"u.1.a q q . + - f b b b z f f f b M F A m m G H I I P G m n n z b n N I w.e.K.K.K.K.P.I.R.R.P.J z > d d 3 d % % ; : 2 2 d.a.<.r.",
"2.3.w 9 W . O + = > > - - = = - l N I I L G P P I P A A m b b b b m J K.I.P.e.K J J e.L.+X+Xt.S = * B k.S.M.B.B.h h [ [ !.b.<.r.",
",.+.e e ] X . . O X O O O . . + y N I U I P P I P G m M b b n b b n J K.T.P.0.m m A P y.Y.+Xe.c O ; O.<XgXpXpXuX=.-.A.E.b.b.<.p.",
"| { o.o.o.$ $ $ ; 2 2 ; & O O $ t l Z P P P P P L A n b b N N n f z n J e.0.F b z n N U L.P.e.Z : ; h } pXgXfXfX].'.].E.&.<.E.`.",
"} { 3.k.k.e 6 q W  .:.{ h h h h 7 2 y x m A F A m n b b m J P M , - - u x c n n m m N I e.L.y.w.H c 7 6 M.<XiXiX'./.^.b.<.6.'.^.",
",.o.M.^.b.x.3.3.2.j.#.#.x..X0X/.q @ + > l m m m n b b n F I I M : X . o O - f n F m m F G I e.#XI.0.g # 2 [ b.'.3.=.-.<.].].b.,.",
"M.k.A.).]./.].E.V.@.{ o.l.9XqX1X8 X o + , n F m m m N m A G M l ; @ @ ; 4 ; > f z f f f l v P L.T.U.H 5 * h ,.7.-.4.=.4.{.'.@.` ",
"*.*.^.|.).'.].].^.x.x.1.^ O.l.h.e @   + , n F F J U I G S v > * 2 3 s | N.B ; - - - - - = t x I P.I.L.w.M B h V c..X5X].}.1.] ' ",
"r.9.^.'.|.'.E.^.^.].E.W.^ T W W q @ . & , n F J I U U I v > O @ 3 W @.2XqX,.: O O + O . . . ; v I L.Y.T.e.v ; % { '.2X'.@.' W | ",
").'.E.^.'./.-.-.(.|.7.>.( W 8 1 ; = & > c N N L N A L M u ; X $ 1 8 / Q.W.[ 7 $ & & * # O @ = > l I y.P.e.x + o 3 o.g.o.9 8 o.a.",
"|.'.E.E.}./.>.>./.'.4.>.9.{ 3 $ ; > f m G P N x t t u u u i 6 8 r w ] n.W.>.k h V V V V 6 6 h : - l v S c > O   1 W ' W 8 8 3.`.",
"(.'.6.3.^.A.'.!. X'.%.6.iXB.2 + - f m G U P M : O O O O 2 [ -.} +.#.#.f.F.3X.Xx.V.C.C.6.} -. .7 O + + + + @ X @ 3 W o._ 4 8 +.oX",
"(./.>.6.}.'.'.'.'.'.%.x.yX| @ O - , n F L N i : O O O % B <.6.2.A.M.] ' z.2X2X|.|.}./.b.>.4.x.` d @ X X X X + 2 B O.j.] 8 q 1.0X",
"p.i.-.7.jXdX|.'.<.=.E.E.&.6 O O + - , 7 l y 2 5 a j j V ,.A.E.^.}.A.e e l.F.>.W.oX'.^.E.E.^.(.,.[ V 6 4 3 3 p V >.n.k.o.' W f.3X",
"p.<.-.7.hXdX X'.<.-.E.E.[ 6 # X O O + + + + : x x.V.x.7.C././.E.XX}._ R +.@.T n.2X].].].!.].}.^.V.a.o.] ` #.2.x.E.E.Z.M.#.X.f.oX",
"..( fXdX=.6././.c.c.'.}.V.a @ . . . X X . O B Z.b.x./.|./.'.E.E.`./.3./ f.j.l.D.3.W.wX0X3X0X5X.XV.@./ ! T  .'.|.].|.}.}.<Xz.! Q.",
"&.) dXyX=.<.^.^.].].|.'.k.r @ . . . . o . O V G.{.].].|./.^.].E.E.b.+.X.+.j.l.j.Q ) 9X7X.X2X{.E.1.' X.#. .9.^.^.|.|.).XX6XF.3.U.",
"_.W.4.*.'.'.A.E.5XsXQ.W.j.o.j.N.j.l.D.1XE.2X3X3XvXvX0X~.W.Q.0XXXC.1.{ W 8 E F.D.R R f.h.j.1.+.#.] ' 1.C.|.^.&.&.E.E.b.^.^.'.7X<X",
"9.c.9.7.]..XE./.XX6X~.n.@.] @.l.j.j.+.+.z.7X0X7XeXcX7X9Xn.W.{.b.@.] Q ' R X.aXF.E 9 Q ] ' ] ~ W W ' g.}.XX^.>.4.b.E.b.^.].{.<XV.",
"T ' '.6X~.9X3X.Xb.h.3.f.o.! Q ! ! ! _ ` +.m.m.v.:.O.l.j.j.f.E E ~ ~ ] +.j.x.1. .| ] #.o.{ o.{ ] Q ' ' 5.oX|.E.E.>.>.^.'.(.XX<Xz.",
"p a }.sXwXoXwX5X7.` ~ [ | { { ` ] ` [ | :.2.2.,._ _  .| { ` s 6 [ { | u.A.^.d.q.r.p.s.u.:.2.,.| ` [ [ W.sX)././.p.r.).$X).`.&XC."
};
